<?xml version="1.0" encoding="utf-8"?>
<!-- Generator: Adobe Illustrator 25.2.1, SVG Export Plug-In . SVG Version: 6.00 Build 0)  -->
<svg version="1.1" id="Layer_1" xmlns="http://www.w3.org/2000/svg" xmlns:xlink="http://www.w3.org/1999/xlink" x="0px" y="0px"
	 viewBox="0 0 122.9 118.7" style="enable-background:new 0 0 122.9 118.7;" xml:space="preserve">
<style type="text/css">
	.st0{fill-rule:evenodd;clip-rule:evenodd;}
</style>
<g>
	<path class="st0" d="M43.1,54.4h4.1v-8.7c0-4.7,1.9-9,5-12.1l0,0c3.1-3.1,7.4-5,12.1-5s9,1.9,12.1,5l0,0c3.1,3.1,5,7.4,5,12.1v8.7
		h3.3c0.7,0,1.3,0.6,1.3,1.3v28.2c0,0.7-0.6,1.3-1.3,1.3H43.1c-0.7,0-1.3-0.6-1.3-1.3V55.7C41.8,55,42.4,54.4,43.1,54.4L43.1,54.4z
		 M16.7,22.2c-1.8,2.2-3.4,4.6-5.1,7.5c-6,10.6-8.5,22.7-7.5,34.5c1,11.5,5.4,22.8,13.4,32.3c2.9,3.4,5.9,6.4,9.1,9
		c11.1,8.9,24.3,13.3,37.4,13.2c13.1-0.1,26.2-4.8,37.1-14c3.2-2.7,6.2-5.7,8.9-9.1c6.4-8,10.5-17.3,12.1-27.1
		c1.5-9.7,0.6-19.8-3.1-29.7c-3.5-9.4-8.8-17.7-15.8-24.2c-6.5-6.3-14.6-10.8-24-13.1c-2.9-0.7-5.9-1.2-9-1.4S64,0,60.8,0.3
		c-2,0.2-3.5,2-3.2,4c0.2,2,2,3.5,4,3.2c2.8-0.3,5.5-0.4,8.1-0.2C72.4,7.6,75,8,77.5,8.6c8.1,2,15.1,5.9,20.8,11.3
		c6.1,5.8,10.8,13.1,13.9,21.4c3.2,8.6,4,17.5,2.7,26c-1.4,8.6-5,16.7-10.6,23.7c-2.5,3.1-5.1,5.8-7.9,8.1
		c-9.6,8.1-21,12.2-32.5,12.3c-11.5,0.1-23-3.8-32.8-11.6c-2.9-2.3-5.6-5-8.1-8c-6.9-8.2-10.8-18.1-11.7-28.2
		c-0.9-10.4,1.3-21,6.6-30.3c1.6-2.8,3.2-5.1,5-7.2l0.5,14.7c0.1,2,1.8,3.6,3.8,3.5s3.6-1.8,3.5-3.8L30,17c-0.1-2-1.8-3.6-3.8-3.5
		c-0.1,0-0.3,0-0.4,0l0,0L3.2,16.7c-2,0.3-3.4,2.1-3.1,4.1s2.1,3.4,4.1,3.1L16.7,22.2L16.7,22.2L16.7,22.2z M53.9,54.4h21v-8.8
		c0-2.9-1.2-5.5-3.1-7.4l0,0c-1.9-1.9-4.5-3.1-7.4-3.1s-5.5,1.2-7.4,3.1c-1.9,1.9-3.1,4.5-3.1,7.4V54.4L53.9,54.4L53.9,54.4z
		 M64.5,69.8l2.1,9.8h-5.8l1.7-9.9c-1.6-0.5-2.7-2-2.7-3.7c0-2.2,1.8-3.9,3.9-3.9c2.2,0,3.9,1.8,3.9,3.9
		C67.6,67.8,66.3,69.4,64.5,69.8L64.5,69.8L64.5,69.8z"/>
</g>
</svg>
