<?xml version="1.0" encoding="utf-8"?>
<!-- Generator: Adobe Illustrator 25.2.1, SVG Export Plug-In . SVG Version: 6.00 Build 0)  -->
<svg version="1.1" id="Layer_1" xmlns="http://www.w3.org/2000/svg" xmlns:xlink="http://www.w3.org/1999/xlink" x="0px" y="0px"
	 viewBox="0 0 24 24" style="enable-background:new 0 0 24 24;" xml:space="preserve">
<g id="orders_returns" transform="translate(-14 -170)">
</g>
<g>
	<path d="M13.3,14.9c-0.1,0-0.1,0-0.2,0c-1.6,0-3.2,0-4.8,0c-0.3,0-0.5-0.1-0.7-0.3c-0.1-0.1-0.1-0.2-0.1-0.3
		c-0.1-1.4,0-2.9-0.1-4.3c0-0.3,0.1-0.6,0.5-0.8c0.1,0,0.3-0.1,0.4-0.1c1.6,0,3.2,0,4.7,0c0.1,0,0.1,0,0.2,0c0-0.1,0-0.1,0-0.2
		c0-1,0-2,0-2.9c0-0.3,0.1-0.7,0.5-0.8c0.2-0.1,0.5,0,0.7,0.1c0.6,0.6,1.3,1.3,1.9,1.9c0.5,0.5,1,1,1.5,1.5c0.7,0.7,1.5,1.5,2.2,2.2
		c0.2,0.2,0.4,0.4,0.6,0.6c0.2,0.2,0.2,0.6,0,0.9c-0.8,0.8-1.6,1.5-2.3,2.3c-0.7,0.7-1.5,1.5-2.2,2.2c-0.6,0.6-1.1,1.1-1.7,1.7
		c-0.3,0.3-0.8,0.2-1-0.2c-0.1-0.2-0.1-0.4-0.1-0.6C13.3,16.8,13.3,15.9,13.3,14.9C13.3,15,13.3,14.9,13.3,14.9z"/>
	<path d="M4.6,12c0,1.4,0,2.8,0,4.2c0,0.3,0.1,0.6,0.2,0.8c0.2,0.3,0.5,0.6,0.8,0.7c0.1,0.1,0.3,0.1,0.5,0.1c1.2,0,2.4,0,3.6,0
		c0.1,0,0.2,0,0.4,0.1c0.2,0,0.2,0.2,0.2,0.4c0,0.2,0,0.5,0,0.7s-0.2,0.3-0.4,0.3c-0.8,0-1.7,0-2.5,0c-0.3,0-0.6,0-0.9,0
		s-0.6-0.1-0.9-0.1S5.1,19,4.8,18.9c-0.3-0.2-0.5-0.4-0.8-0.6c-0.3-0.3-0.5-0.6-0.6-0.9c-0.1-0.2-0.1-0.4-0.2-0.6
		c-0.1-0.6-0.1-1.2-0.1-1.7c0-2.2,0-4.4,0-6.7c0-0.3,0-0.6,0.1-0.9s0.2-0.7,0.4-0.9C3.7,6.4,3.9,6.2,4.1,6c0.3-0.6,0.7-0.9,1.2-1
		c0.3-0.1,0.7-0.2,1-0.2c1.2-0.1,2.4,0,3.6,0c0.1,0,0.2,0.1,0.3,0.1c0.1,0.1,0.1,0.2,0.1,0.4c0,0.2,0,0.4,0,0.7
		c0,0.2-0.2,0.3-0.4,0.3c-0.9,0-1.9,0-2.8,0c-0.3,0-0.5,0-0.8,0c-0.4,0-0.7,0.1-1,0.3C5,6.7,4.7,7.1,4.6,7.4c0,0.1,0,0.2,0,0.3
		C4.6,9.2,4.6,10.6,4.6,12z"/>
</g>
</svg>
