<?xml version="1.0" encoding="utf-8"?>
<!-- Generator: Adobe Illustrator 25.2.1, SVG Export Plug-In . SVG Version: 6.00 Build 0)  -->
<svg version="1.1" id="Layer_1" xmlns="http://www.w3.org/2000/svg" xmlns:xlink="http://www.w3.org/1999/xlink" x="0px" y="0px"
	 viewBox="0 0 24 24" style="enable-background:new 0 0 24 24;" xml:space="preserve">
<style type="text/css">
	.st0{opacity:1.000000e-03;fill:#F7F7F9;enable-background:new    ;}
	.st1{fill:#E78002;stroke:#F8F8F8;stroke-width:0.2;}
</style>
<g id="orders_returns" transform="translate(-14 -170)">
	<rect id="Rectangle_951" x="14" y="170" class="st0" width="24" height="24"/>
	<g id="noun-return-3884092" transform="translate(-68 150.979)">
		<path id="Path_62582" class="st1" d="M104,29.8c0-3.1-2.5-5.6-5.6-5.6H86.2l1.8-1.8c0.2-0.3,0.2-0.7,0-0.9c-0.2-0.2-0.6-0.2-0.9,0
			l-2.8,2.8c-0.1,0.1-0.2,0.3-0.2,0.4c0,0.2,0.1,0.3,0.2,0.4l2.9,2.9c0.1,0.1,0.3,0.2,0.4,0.2c0.2,0,0.3-0.1,0.4-0.2
			c0.2-0.2,0.3-0.6,0-0.9c0,0,0,0,0,0l-1.8-1.8h12.2c2.4,0,4.3,1.9,4.4,4.3c0,2.2-1.7,4.1-3.9,4.3v-2.8c0-0.2-0.1-0.5-0.4-0.6
			l-5.3-2.4c-0.2-0.1-0.4-0.1-0.5,0l-5.3,2.4C87.2,30.8,87,31,87,31.3v6.4c0,0.2,0.1,0.5,0.4,0.6l5.3,2.4c0.1,0,0.2,0.1,0.3,0.1
			c0.1,0,0.2,0,0.3-0.1l5.3-2.4c0.2-0.1,0.4-0.3,0.4-0.6v-2.3C101.8,35.1,104,32.7,104,29.8z M92.9,29.6l3.8,1.7L92.9,33l-3.8-1.7
			L92.9,29.6z M88.3,32.3l4,1.8v5l-4-1.8L88.3,32.3z M93.6,39.1v-5l4-1.8v5L93.6,39.1z"/>
	</g>
</g>
</svg>
