<?xml version="1.0" encoding="utf-8"?>
<!-- Generator: Adobe Illustrator 25.2.1, SVG Export Plug-In . SVG Version: 6.00 Build 0)  -->
<svg version="1.1" id="Layer_1" xmlns="http://www.w3.org/2000/svg" xmlns:xlink="http://www.w3.org/1999/xlink" x="0px" y="0px"
	 viewBox="0 0 24 24" style="enable-background:new 0 0 24 24;" xml:space="preserve">
<style type="text/css">
	.st0{opacity:3.000000e-03;fill:#F7F7F9;enable-background:new    ;}
	.st1{fill:#E78002;stroke:#F8F8F8;stroke-width:0.5;}
	.st2{fill-rule:evenodd;clip-rule:evenodd;fill:#E78002;stroke:#F8F8F8;stroke-width:0.5;}
</style>
<g id="profile" transform="translate(-14 -132)">
	<rect id="Rectangle_950" x="14" y="132" class="st0" width="24" height="24"/>
	<g id="noun-profile-3530304" transform="translate(-71.5 116.504)">
		<path id="Path_62552" class="st1" d="M92.5,32.2c-0.4,0.3-0.9,0.2-1.2-0.2c-0.1-0.2-0.2-0.4-0.2-0.6c0-0.2,0.2-0.4,0.3-0.5
			c3.5-2.6,8.4-2.6,11.9,0c0.2,0.1,0.3,0.3,0.3,0.5c0.1,0.5-0.2,0.9-0.7,0.9c-0.2,0-0.4,0-0.6-0.2C99.5,30,95.5,30,92.5,32.2
			L92.5,32.2z"/>
		<path id="Path_62553" class="st2" d="M87.5,27.5c0-5.5,4.5-10,10-10c5.5,0,10,4.5,10,10s-4.5,10-10,10c-2.7,0-5.2-1.1-7.1-2.9
			C88.6,32.7,87.5,30.2,87.5,27.5z M89.2,27.5c0-4.6,3.7-8.3,8.3-8.3c4.6,0,8.3,3.7,8.3,8.3c0,4.6-3.7,8.3-8.3,8.3
			c-2.2,0-4.3-0.9-5.9-2.4C90,31.8,89.2,29.7,89.2,27.5z"/>
		<path id="Path_62554" class="st2" d="M94.2,24.7c0-1.8,1.5-3.3,3.3-3.3c1.8,0,3.3,1.5,3.3,3.3S99.3,28,97.5,28
			c-0.9,0-1.7-0.3-2.3-1C94.6,26.4,94.2,25.6,94.2,24.7 M95.9,24.7c0-0.4,0.2-0.9,0.5-1.2c0.6-0.6,1.7-0.6,2.3,0c0,0,0,0,0,0
			c0.6,0.6,0.6,1.7,0,2.3c-0.6,0.6-1.7,0.6-2.3,0C96.1,25.5,95.9,25.1,95.9,24.7"/>
	</g>
</g>
</svg>
