<?xml version="1.0" standalone="no"?>
<!DOCTYPE svg PUBLIC "-//W3C//DTD SVG 1.1//EN" "http://www.w3.org/Graphics/SVG/1.1/DTD/svg11.dtd" >
<svg xmlns="http://www.w3.org/2000/svg" xmlns:xlink="http://www.w3.org/1999/xlink" version="1.1">
<metadata>
Created by FontForge 20170731 at Mon Dec 11 07:21:05 2023
 By Aleksey,,,
(c) 2014 Typodermic Fonts Inc. See attached license agreement. If agreement is missing visit typodermicfonts.com for more info.
</metadata>
<defs>
<font id="KingsbridgeExRg-Bold" horiz-adv-x="688" >
  <font-face 
    font-family="Kingsbridge Ex Rg"
    font-weight="700"
    font-stretch="expanded"
    units-per-em="2048"
    panose-1="2 6 8 5 1 1 1 1 1 1"
    ascent="1634"
    descent="-414"
    x-height="1176"
    cap-height="1610"
    bbox="-573 -414 2353 2044"
    underline-thickness="40"
    underline-position="-333"
    unicode-range="U+0017-25CA"
  />
<missing-glyph horiz-adv-x="1320" 
d="M92 1847h1137v-2166h-1137v2166zM477 319v-319h316v319h-316zM285 1155h186q0 146 40 205t116 59q36 0 61.5 -12t40 -31t22.5 -50t10.5 -60.5t2.5 -71.5q0 -99 -20 -152t-97 -168q-49 -75 -70 -115.5t-37 -113.5t-16 -174h224q0 96 26 160.5t98 159.5q48 63 71 96.5
t49.5 85t37 105.5t10.5 122q0 203 -97 322.5t-286 119.5q-372 0 -372 -487z" />
    <glyph glyph-name="copyright" unicode="&#x28;C&#x29;" horiz-adv-x="1851" 
d="M1038 1018v55q0 96 -114 96q-55 0 -86 -27.5t-47.5 -102t-16.5 -208.5q0 -176 32 -255.5t118 -79.5q54 0 91.5 29t37.5 85v29h129v-29q0 -74 -42 -129.5t-103 -81.5t-128 -26q-146 0 -222.5 128.5t-76.5 334.5q0 134 32.5 234t102.5 159t173 59q111 0 184.5 -62
t73.5 -157v-51h-138zM926 1642q100 0 197.5 -20.5t192.5 -62t175.5 -110.5t142 -159t96.5 -214.5t35 -270.5q0 -174 -50 -317t-133 -238t-193 -160t-226 -94t-237 -29t-237.5 29t-226.5 94t-193 160t-133 238t-50 317q0 126 26 236t72 193.5t109.5 152.5t137.5 115.5
t157.5 78.5t167.5 46.5t170 14.5zM926 1481q-104 0 -199.5 -24t-181.5 -76.5t-149.5 -130t-100.5 -192t-37 -253.5t37 -253.5t100.5 -192t149.5 -131t181.5 -77.5t199.5 -24q103 0 198.5 24t181.5 77.5t149 131t100.5 192t37.5 253.5t-37.5 253.5t-100.5 192t-149 130
t-181.5 76.5t-198.5 24z" />
    <glyph glyph-name="registered" unicode="&#x28;R&#x29;" horiz-adv-x="1851" 
d="M926 1642q100 0 197.5 -20.5t192.5 -62t175.5 -110.5t142 -159t96.5 -214.5t35 -270.5q0 -174 -50 -317t-133 -238t-193 -160t-226 -94t-237 -29t-237.5 29t-226.5 94t-193 160t-133 238t-50 317q0 126 26 236t72 193.5t109.5 152.5t137.5 115.5t157.5 78.5t167.5 46.5
t170 14.5zM926 1481q-104 0 -199.5 -24t-181.5 -76.5t-149.5 -130t-100.5 -192t-37 -253.5t37 -253.5t100.5 -192t149.5 -131t181.5 -77.5t199.5 -24q103 0 198.5 24t181.5 77.5t149 131t100.5 192t37.5 253.5t-37.5 253.5t-100.5 192t-149 130t-181.5 76.5t-198.5 24z
M670 1272h227q156 0 233.5 -69t77.5 -183q0 -153 -153 -209l119 -264q19 -39 73 -39q35 0 49 4v-119q-45 -18 -98 -18q-64 0 -105.5 34.5t-72.5 114.5l-98 254h-99v-385h-153v879zM823 1155v-281h80q79 0 117.5 30t38.5 106q0 77 -39 111t-117 34h-80z" />
    <glyph glyph-name="uni2117" unicode="&#x28;P&#x29;" horiz-adv-x="1851" 
d="M690 1272h225q158 0 235 -69t77 -187q0 -238 -312 -238h-73v-385h-152v879zM842 1155v-281h80q80 0 116.5 29.5t36.5 106.5q0 78 -37.5 111.5t-115.5 33.5h-80zM926 1642q100 0 197.5 -20.5t192.5 -62t175.5 -110.5t142 -159t96.5 -214.5t35 -270.5q0 -174 -50 -317
t-133 -238t-193 -160t-226 -94t-237 -29t-237.5 29t-226.5 94t-193 160t-133 238t-50 317q0 126 26 236t72 193.5t109.5 152.5t137.5 115.5t157.5 78.5t167.5 46.5t170 14.5zM926 1481q-104 0 -199.5 -24t-181.5 -76.5t-149.5 -130t-100.5 -192t-37 -253.5t37 -253.5
t100.5 -192t149.5 -131t181.5 -77.5t199.5 -24q103 0 198.5 24t181.5 77.5t149 131t100.5 192t37.5 253.5t-37.5 253.5t-100.5 192t-149 130t-181.5 76.5t-198.5 24z" />
    <glyph glyph-name=".notdef" horiz-adv-x="1320" 
d="M92 1847h1137v-2166h-1137v2166zM477 319v-319h316v319h-316zM285 1155h186q0 146 40 205t116 59q36 0 61.5 -12t40 -31t22.5 -50t10.5 -60.5t2.5 -71.5q0 -99 -20 -152t-97 -168q-49 -75 -70 -115.5t-37 -113.5t-16 -174h224q0 96 26 160.5t98 159.5q48 63 71 96.5
t49.5 85t37 105.5t10.5 122q0 203 -97 322.5t-286 119.5q-372 0 -372 -487z" />
    <glyph glyph-name=".null" horiz-adv-x="0" 
 />
    <glyph glyph-name="nonmarkingreturn" horiz-adv-x="682" 
 />
    <glyph glyph-name="uni0017" horiz-adv-x="741" 
 />
    <glyph glyph-name="space" unicode=" " horiz-adv-x="741" 
 />
    <glyph glyph-name="exclam" unicode="!" horiz-adv-x="677" 
d="M80 1610h518l-162 -1139h-194zM178 319h328v-319h-328v319z" />
    <glyph glyph-name="quotedbl" unicode="&#x22;" horiz-adv-x="802" 
d="M61 1610h285l-55 -656h-174zM457 1610h284l-55 -656h-174z" />
    <glyph glyph-name="numbersign" unicode="#" horiz-adv-x="1781" 
d="M641 1610h317l-133 -463h308l133 463h313l-129 -463h283l-56 -217h-282l-78 -248h287l-54 -219h-288l-129 -463h-314l133 463h-307l-133 -463h-313l133 463h-283l51 219h283l74 248h-283l53 217h285zM774 930l-74 -248h304l73 248h-303z" />
    <glyph glyph-name="dollar" unicode="$" horiz-adv-x="1325" 
d="M946 1462h289v-377h-299v105q-54 99 -197 108v-329q60 -32 95 -51.5t90 -51t87.5 -55t75 -56t67 -61.5t48.5 -63.5t34.5 -71t10.5 -74.5q0 -69 -26.5 -128t-83.5 -110t-159 -82.5t-239 -35.5v-231h-90v231q-169 11 -262 80h-12v-64h-299v428h299v-112q32 -76 97 -115
t155 -39h22v369q-33 23 -93 56.5t-113.5 61.5t-114 68.5t-103.5 81t-71.5 96t-28.5 115.5q0 48 15.5 92.5t51.5 87.5t90 75t137 51.5t185 19.5q31 0 45 -2v231h90v-240q130 -22 195 -84h12v76zM492 1169q0 -36 30.5 -66.5t126.5 -84.5v278q-77 -10 -117 -44t-40 -83z
M848 455q0 72 -109 157v-288q51 19 80 53.5t29 77.5z" />
    <glyph glyph-name="percent" unicode="%" horiz-adv-x="1699" 
d="M1397 1610h207l-1299 -1610h-209zM399 1630q153 0 215 -106.5t62 -356.5q0 -248 -62 -354t-215 -106t-215.5 106t-62.5 354q0 249 62.5 356t215.5 107zM399 1505q-59 0 -72.5 -58t-13.5 -280q0 -220 13.5 -278t72.5 -58q21 0 34.5 4.5t24 20.5t16 37t8.5 63t4 88t1 123
t-1 124t-4 89t-8.5 63t-16 37t-24 20.5t-34.5 4.5zM1300 905q153 0 215 -106.5t62 -356.5q0 -248 -62 -354t-215 -106t-215.5 106t-62.5 354q0 249 62.5 356t215.5 107zM1300 780q-59 0 -72.5 -58t-13.5 -280q0 -220 13.5 -278t72.5 -58q21 0 34.5 5t24 20.5t16 36.5t9 62.5
t4.5 88.5t1 123q0 77 -1 124t-4.5 89t-9 63t-16 36.5t-24 20.5t-34.5 5z" />
    <glyph glyph-name="ampersand" unicode="&#x26;" horiz-adv-x="1820" 
d="M31 326q0 66 24.5 126.5t65 109.5t103 97.5t127 87t149.5 82.5q-131 144 -177.5 233.5t-46.5 180.5q0 82 28.5 150.5t89 126t168 90t253.5 32.5q133 0 231.5 -27.5t157 -77t86 -114t27.5 -143.5q0 -121 -79.5 -210t-291.5 -198l332 -337q93 160 180 421h301
q-116 -385 -293 -612q85 -83 139 -109t105 -26q34 0 74 6v-215q-139 -33 -252 -33q-213 0 -350 127q-231 -127 -551 -127q-281 0 -440.5 91.5t-159.5 267.5zM721 197q181 0 301 67l-408 441q-116 -71 -161 -139.5t-45 -149.5q0 -115 77 -167t236 -52zM639 1278
q0 -48 39.5 -109t152.5 -180q112 59 159.5 114.5t47.5 143.5q0 87 -45.5 126.5t-148.5 39.5q-105 0 -155 -36.5t-50 -98.5z" />
    <glyph glyph-name="quotesingle" unicode="'" horiz-adv-x="407" 
d="M61 1610h285l-55 -656h-174z" />
    <glyph glyph-name="parenleft" unicode="(" horiz-adv-x="1052" 
d="M758 1810h276q-142 -97 -249 -280.5t-159.5 -391.5t-52.5 -411q0 -202 52.5 -410t159.5 -391.5t249 -279.5h-276q-101 47 -195.5 148t-169.5 239.5t-120.5 320t-45.5 373.5t45.5 373.5t120.5 320t169.5 240t195.5 149.5z" />
    <glyph glyph-name="parenright" unicode=")" horiz-adv-x="1052" 
d="M18 1810h279q100 -48 194 -149.5t169 -239.5t120 -320t45 -374t-45 -373.5t-120 -320t-169 -239.5t-194 -148h-279q143 96 250.5 279.5t160 391.5t52.5 410q0 203 -52.5 411t-160 391.5t-250.5 280.5z" />
    <glyph glyph-name="asterisk" unicode="*" horiz-adv-x="1009" 
d="M160 1501l280 -188l-24 338h178l-25 -338l281 188l90 -151l-307 -148l307 -147l-90 -152l-281 189l25 -334h-178l24 334l-280 -189l-90 152l307 147l-307 148z" />
    <glyph glyph-name="plus" unicode="+" horiz-adv-x="1294" 
d="M541 1358h217v-445h444v-215h-444v-440h-217v440h-449v215h449v445z" />
    <glyph glyph-name="comma" unicode="," horiz-adv-x="450" 
d="M61 319h340l-147 -655h-193v655z" />
    <glyph glyph-name="hyphen" unicode="-" horiz-adv-x="1009" 
d="M92 874h826v-229h-826v229z" />
    <glyph glyph-name="period" unicode="." horiz-adv-x="450" 
d="M61 319h328v-319h-328v319z" />
    <glyph glyph-name="slash" unicode="/" horiz-adv-x="1363" 
d="M1034 1675h330l-1036 -1964h-328z" />
    <glyph glyph-name="zero" unicode="0" horiz-adv-x="1443" 
d="M721 1645q177 0 297 -47t195 -151t107 -259t32 -383q0 -227 -32 -381.5t-107 -258.5t-195 -151t-297 -47t-296.5 47t-194 151t-106.5 258.5t-32 381.5q0 228 32 383t106.5 259t194 151t296.5 47zM721 1434q-50 0 -84 -10t-60.5 -39.5t-41.5 -71.5t-25 -117t-13 -165.5
t-3 -225.5t3 -225t13 -164.5t25 -116.5t41.5 -71.5t60.5 -39.5t84 -10t84.5 10t61 39.5t41.5 71.5t24.5 117t12.5 164t3 225t-3 226t-12.5 165t-24.5 117t-41.5 71.5t-61 39.5t-84.5 10z" />
    <glyph glyph-name="one" unicode="1" horiz-adv-x="1093" 
d="M473 1610h303v-1405h225v-205h-909v205h252v993h-252v197h123q109 0 179 57t79 158z" />
    <glyph glyph-name="two" unicode="2" horiz-adv-x="1347" 
d="M119 1155v55q0 211 145.5 321.5t415.5 110.5q151 0 264 -35t179 -97t98 -140.5t32 -173.5q0 -99 -42 -178t-142 -169t-299 -228q-89 -62 -128 -90t-89 -67t-66.5 -57t-35.5 -46.5t-23 -52t-4 -56.5v-16h541v217h297v-453h-1182v215q0 184 91 314t347 315q64 46 93 67
t74 55t62.5 50t45 42.5t36.5 42.5t21 39t15 44t3 47q0 92 -54.5 140t-178.5 48q-254 0 -254 -209v-55h-262z" />
    <glyph glyph-name="three" unicode="3" horiz-adv-x="1376" 
d="M119 1155v55q0 211 143 321.5t410 110.5q122 0 218.5 -23.5t159.5 -63.5t104.5 -96.5t59 -119t17.5 -133.5q0 -261 -246 -356q299 -96 299 -389q0 -102 -37.5 -190t-110.5 -156.5t-192 -108t-272 -39.5q-262 0 -418 111.5t-156 320.5v56h279v-56q0 -209 229 -209
q131 0 193.5 70t62.5 219q0 136 -54.5 192t-178.5 56h-252v229h252q128 0 180.5 48t52.5 176t-54.5 183.5t-184.5 55.5q-124 0 -185 -50t-61 -159v-55h-258z" />
    <glyph glyph-name="four" unicode="4" horiz-adv-x="1574" 
d="M1206 1651h31v-1078h293v-161h-293v-207h160v-205h-795v205h223v207h-825v20zM817 948l-371 -366v-9h379v375h-8z" />
    <glyph glyph-name="five" unicode="5" horiz-adv-x="1370" 
d="M248 1610h987v-461h-301v246h-361l-61 -357q83 29 211 29q138 0 245.5 -45t173 -123t99 -177t33.5 -214q0 -120 -36.5 -217t-110 -170.5t-192 -113.5t-273.5 -40q-262 0 -418 111.5t-156 320.5v56h262v-56q0 -106 66.5 -157.5t179.5 -51.5q127 0 192.5 71.5t65.5 238.5
q0 379 -338 379q-84 0 -191.5 -20.5t-181.5 -49.5l-24 22z" />
    <glyph glyph-name="six" unicode="6" horiz-adv-x="1421" 
d="M494 950h8q163 72 348 72q88 0 161.5 -17t125 -45t92 -68.5t64.5 -84t39.5 -95t21.5 -98t6 -96.5q0 -94 -21.5 -174.5t-70.5 -151t-123 -119.5t-185.5 -77.5t-252.5 -28.5q-126 0 -222.5 22t-164 68t-112.5 107.5t-70 150.5t-35.5 185.5t-10.5 222.5q0 232 34 398.5
t110.5 285.5t204.5 177t311 58q259 0 405 -111.5t146 -320.5v-55h-263v55q0 209 -254 209q-98 0 -154.5 -38t-91 -140.5t-46.5 -290.5zM500 770v-125q0 -182 20 -278.5t67.5 -137.5t137.5 -41q122 0 175.5 75t53.5 259q0 169 -48.5 242.5t-166.5 73.5q-65 0 -132 -19
t-107 -49z" />
    <glyph glyph-name="seven" unicode="7" horiz-adv-x="1273" 
d="M70 1610h1185v-21q-213 -413 -349.5 -804t-186.5 -785h-459q151 705 569 1395h-460v-246h-299v461z" />
    <glyph glyph-name="eight" unicode="8" horiz-adv-x="1333" 
d="M57 379q0 280 381 459q-161 128 -222.5 213.5t-61.5 191.5q0 180 146.5 289.5t395.5 109.5q240 0 383.5 -102t143.5 -260q0 -111 -77 -203.5t-228 -177.5q201 -141 278.5 -240t77.5 -229q0 -213 -171 -331.5t-448 -118.5q-171 0 -305 44.5t-213.5 136.5t-79.5 218z
M866 387q0 37 -11.5 69.5t-28.5 58t-55 60.5t-71 61.5t-98 75.5l-12 9q-104 -65 -158.5 -139t-54.5 -172q0 -110 67 -161.5t185 -51.5q111 0 174 46.5t63 143.5zM528 1260q0 -63 49 -112.5t195 -148.5q93 60 131.5 120t38.5 128q0 166 -199 166q-100 0 -157.5 -39.5
t-57.5 -113.5z" />
    <glyph glyph-name="nine" unicode="9" horiz-adv-x="1409" 
d="M924 659h-9q-162 -73 -356 -73q-88 0 -161 17t-124 45.5t-90.5 69t-63 84t-38 94.5t-20 96t-5.5 93q0 95 21.5 176.5t70 152.5t122.5 121t184.5 78.5t249.5 28.5q102 0 185.5 -15t167.5 -58t141 -113t92.5 -187.5t35.5 -273.5q0 -138 -27.5 -268.5t-70.5 -233
t-104 -198.5t-120 -164.5t-126 -130.5h-473q61 21 148.5 97.5t166.5 172.5t138 204t65 185zM918 840v125q0 138 -10 223t-37 138.5t-69 74t-110 20.5q-124 0 -176.5 -74.5t-52.5 -263.5q0 -167 46.5 -239t168.5 -72q66 0 135 19t105 49z" />
    <glyph glyph-name="colon" unicode=":" horiz-adv-x="512" 
d="M92 1159h328v-319h-328v319zM92 471h328v-319h-328v319z" />
    <glyph glyph-name="semicolon" unicode=";" horiz-adv-x="512" 
d="M92 1159h328v-319h-328v319zM92 471h340l-147 -655h-193v655z" />
    <glyph glyph-name="less" unicode="&#x3c;" horiz-adv-x="1294" 
d="M92 913l1110 400v-236l-799 -268v-8l799 -266v-234l-1110 397v215z" />
    <glyph glyph-name="equal" unicode="=" horiz-adv-x="1294" 
d="M92 692h1110v-215h-1110v215zM92 1137h1110v-215h-1110v215z" />
    <glyph glyph-name="greater" unicode="&#x3e;" horiz-adv-x="1294" 
d="M92 1077v236l1110 -400v-215l-1110 -397v234l799 266v8z" />
    <glyph glyph-name="question" unicode="?" horiz-adv-x="1234" 
d="M55 1155v55q0 211 145 321.5t414 110.5q151 0 264.5 -35t179.5 -97.5t98 -140.5t32 -171q0 -51 -9 -95.5t-29 -82t-39.5 -66t-55 -60.5t-59.5 -51t-68 -52q-105 -79 -150 -142.5t-45 -152.5v-27h-309v25q0 88 22.5 154t59 113.5t108.5 115.5q13 13 40.5 38t38.5 35.5
t31.5 32.5t29 35t21 35.5t17.5 43t9 47.5t4 58q0 48 -9 83.5t-33 67.5t-72 49t-120 17q-122 0 -189 -51t-67 -158v-55h-260zM416 319h327v-319h-327v319z" />
    <glyph glyph-name="at" unicode="@" horiz-adv-x="2029" 
d="M1231 1059h213v-668q0 -69 96 -69q24 0 40.5 5t36.5 26.5t32.5 59.5t21 110t8.5 173q0 108 -9 195.5t-28.5 155.5t-46.5 119.5t-66.5 88.5t-84 61t-105 38.5t-123.5 20t-143 5.5q-93 0 -164 -7.5t-142.5 -29t-123.5 -57.5t-97.5 -95t-73.5 -140.5t-44 -194.5t-16 -256
q0 -106 9 -192.5t24.5 -154.5t43.5 -120.5t59 -90t77.5 -64t92 -42.5t110.5 -25t126 -12t144 -3q491 0 661 92v-248q-188 -96 -649 -96q-181 0 -317.5 16t-255.5 55.5t-200 106.5t-139 167.5t-85 240t-27 323.5q0 171 24 310.5t67.5 243t110 182t145.5 129.5t180 83t207 45
t233 13q115 0 211.5 -10.5t188.5 -36.5t164 -68t133.5 -106t101.5 -148t62.5 -198t22.5 -253q0 -105 -13 -190t-34 -144t-53.5 -103t-66.5 -69.5t-78 -41t-83.5 -20.5t-86.5 -5q-185 0 -265 86h-8q-45 -41 -118.5 -63.5t-147.5 -22.5q-159 0 -239 109.5t-80 340.5
q0 459 319 459q142 0 242 -86zM1186 401v443q-50 47 -129 47q-73 0 -106 -60.5t-33 -197.5q0 -283 139 -283q75 0 129 51z" />
    <glyph glyph-name="A" unicode="A" horiz-adv-x="1566" 
d="M793 1651h20l576 -1436h122v-215h-686v215h146l-43 119h-316l-45 -119h146v-215h-658v215h129zM772 801l-125 -295h248l-115 295h-8z" />
    <glyph glyph-name="B" unicode="B" horiz-adv-x="1542" 
d="M92 1610h635q317 0 496.5 -105.5t179.5 -314.5q0 -253 -273 -340q178 -55 261.5 -154.5t83.5 -246.5q0 -73 -19 -135.5t-67 -122t-123 -100.5t-195.5 -66t-275.5 -25h-703v215h160v1180h-160v215zM688 750v-535h92q124 0 189 65t65 207q0 146 -66.5 204.5t-193.5 58.5
h-86zM688 1395v-457h80q112 0 176 58t64 182q0 120 -61.5 168.5t-178.5 48.5h-80z" />
    <glyph glyph-name="C" unicode="C" horiz-adv-x="1372" 
d="M983 1610h289v-461h-301v98q0 174 -178 174q-68 0 -112 -26.5t-75 -96.5t-44 -192t-13 -313q0 -125 6 -213.5t22.5 -166.5t45.5 -124.5t75 -72.5t111 -26q94 0 152.5 52t58.5 157v56h260v-56q0 -139 -68.5 -238t-184 -146.5t-265.5 -47.5q-137 0 -249 42t-191 117.5
t-132.5 181t-78.5 231t-25 270.5q0 179 39 329.5t113.5 263.5t192.5 176.5t267 63.5q193 0 277 -100h8v68z" />
    <glyph glyph-name="D" unicode="D" horiz-adv-x="1585" 
d="M92 1610h660q190 0 335 -61.5t234 -174t133.5 -261.5t44.5 -331q0 -181 -44 -323t-134 -245.5t-233.5 -158.5t-335.5 -55h-660v215h160v1180h-160v215zM688 1395v-1180h86q87 0 142 48t86.5 175t31.5 344q0 219 -31 356.5t-87.5 197t-141.5 59.5h-86z" />
    <glyph glyph-name="E" unicode="E" horiz-adv-x="1464" 
d="M92 1610h1268v-461h-301v246h-371v-439h647v-229h-647v-512h377v309h301v-524h-1274v215h160v1180h-160v215z" />
    <glyph glyph-name="F" unicode="F" horiz-adv-x="1421" 
d="M92 1610h1268v-461h-301v246h-371v-439h647v-229h-647v-512h215v-215h-811v215h160v1180h-160v215z" />
    <glyph glyph-name="G" unicode="G" horiz-adv-x="1468" 
d="M1020 1610h289v-461h-301v98q0 89 -54 131.5t-145 42.5q-70 0 -115.5 -27t-80 -98.5t-49.5 -200t-15 -327.5q0 -125 6.5 -212t23.5 -160.5t47.5 -116t78 -66t114.5 -23.5q65 0 127 17v520h-219v229h590v-858q-69 -53 -214.5 -92t-303.5 -39q-153 0 -275 43t-203 117
t-134.5 180t-77 226.5t-23.5 261.5q0 249 71.5 438.5t216.5 299t345 109.5q98 0 175 -26.5t118 -73.5h8v68z" />
    <glyph glyph-name="H" unicode="H" horiz-adv-x="1763" 
d="M92 1610h725v-215h-129v-418h363v418h-136v215h756v-215h-184v-1180h184v-215h-756v215h136v533h-363v-533h129v-215h-725v215h160v1180h-160v215z" />
    <glyph glyph-name="I" unicode="I" horiz-adv-x="940" 
d="M92 1610h756v-215h-160v-1180h160v-215h-756v215h160v1180h-160v215z" />
    <glyph glyph-name="J" unicode="J" horiz-adv-x="1470" 
d="M610 1610h803v-215h-160v-885q0 -543 -628 -543q-274 0 -424 106t-150 326v56h305v-43q0 -112 61.5 -165.5t168.5 -53.5q119 0 175 73t56 242v887h-207v215z" />
    <glyph glyph-name="K" unicode="K" horiz-adv-x="1708" 
d="M92 1610h713v-215h-117v-365h8l367 365h-135v215h678v-215h-191l-256 -271l260 -823q13 -41 56 -66.5t112 -25.5q37 0 84 6v-215q-152 -33 -256 -33q-166 0 -274.5 68.5t-139.5 204.5l-135 573l-178 -188v-410h129v-215h-725v215h160v1180h-160v215z" />
    <glyph glyph-name="L" unicode="L" horiz-adv-x="1419" 
d="M92 1610h782v-215h-180v-1180h346v309h301v-524h-1249v215h166v1180h-166v215z" />
    <glyph glyph-name="M" unicode="M" horiz-adv-x="2207" 
d="M92 1610h653l371 -842h8l377 842h615v-215h-160v-1180h160v-215h-633v215h123v795h-9l-489 -1051h-21l-477 1051h-8v-795h123v-215h-633v215h160v1180h-160v215z" />
    <glyph glyph-name="N" unicode="N" horiz-adv-x="1640" 
d="M92 1610h522l435 -621h8v406h-133v215h661v-215h-158v-1436h-20l-776 965h-8v-709h141v-215h-672v215h160v1180h-160v215z" />
    <glyph glyph-name="O" unicode="O" horiz-adv-x="1542" 
d="M770 1642q137 0 251.5 -46.5t194 -127.5t134.5 -191t80.5 -234.5t25.5 -260.5t-25.5 -256.5t-80.5 -223t-134.5 -177t-193.5 -116.5t-252 -42q-137 0 -250.5 42t-193 116.5t-134.5 177t-80.5 223t-25.5 256.5t25.5 261t80.5 234.5t134 190.5t193 127.5t251 46.5z
M770 1421q-116 0 -166.5 -162t-50.5 -477q0 -307 50 -450.5t167 -143.5q118 0 168.5 144t50.5 450q0 154 -12 269.5t-37.5 199.5t-68 127t-101.5 43z" />
    <glyph glyph-name="P" unicode="P" horiz-adv-x="1542" 
d="M92 1610h660q190 0 334 -38.5t232 -109.5t131.5 -165t43.5 -210q0 -234 -181.5 -363.5t-559.5 -129.5h-64v-379h221v-215h-817v215h160v1180h-160v215zM688 1395v-584h86q132 0 196 62t64 219q0 160 -65.5 231.5t-194.5 71.5h-86z" />
    <glyph glyph-name="Q" unicode="Q" horiz-adv-x="1542" 
d="M770 1642q137 0 251.5 -45.5t194 -124t134.5 -185.5t80.5 -228.5t25.5 -253.5q0 -189 -51.5 -344t-163.5 -268.5t-274 -155.5q47 -123 245 -123q80 0 158 16v-215q-127 -26 -231 -26q-58 0 -105.5 6.5t-102.5 27.5t-97.5 55.5t-81 95t-62.5 142.5q-122 11 -221.5 57.5
t-170 119t-118.5 169t-71 207.5t-23 236q0 132 25.5 253.5t80.5 228.5t134 185.5t193 124t251 45.5zM770 1421q-59 0 -101 -41t-67.5 -122t-37 -192t-11.5 -259q0 -296 50 -433.5t167 -137.5q118 0 168.5 138t50.5 433q0 301 -51.5 457.5t-167.5 156.5z" />
    <glyph glyph-name="R" unicode="R" horiz-adv-x="1738" 
d="M92 1610h660q361 0 538.5 -127t177.5 -342q0 -277 -292 -381l282 -479q46 -74 164 -74q41 0 80 8v-215q-125 -33 -244 -33q-154 0 -253.5 63.5t-172.5 209.5l-235 462h-109v-487h217v-215h-813v215h160v1180h-160v215zM688 1395v-514h86q132 0 195 53.5t63 193.5
q0 141 -64.5 204t-193.5 63h-86z" />
    <glyph glyph-name="S" unicode="S" horiz-adv-x="1290" 
d="M922 1610h288v-461h-301v127q-51 137 -223 137q-108 0 -163.5 -46t-55.5 -120q0 -64 50.5 -111t197.5 -132q53 -30 82.5 -47t79.5 -48.5t79 -53t70.5 -55t66 -61.5t52.5 -66t43 -74.5t25 -81t10 -91.5q0 -92 -36 -172t-103 -141.5t-171.5 -97t-232.5 -35.5
q-225 0 -326 98h-8v-78h-297v524h297v-141q33 -86 102 -136t162 -50q90 0 151.5 48t61.5 146t-65 167t-193 140q-23 13 -62.5 34t-65 35t-63 36t-62.5 39.5t-56 43.5t-51.5 50t-42 56t-34 65t-20.5 74t-8 86q0 88 29.5 162.5t87 131.5t152 89t217.5 32q239 0 327 -116h9v94z
" />
    <glyph glyph-name="T" unicode="T" horiz-adv-x="1560" 
d="M49 1610h1462v-461h-301v246h-213v-1180h207v-215h-850v215h207v1180h-215v-246h-297v461z" />
    <glyph glyph-name="U" unicode="U" horiz-adv-x="1683" 
d="M61 1610h719v-215h-129v-920q0 -153 41 -226t152 -73q110 0 152 73.5t42 225.5v920h-147v215h731v-215h-178v-922q0 -87 -19 -160t-63.5 -138t-114 -110.5t-175.5 -71.5t-243 -26t-243 26t-175 71.5t-114 110.5t-63.5 138t-18.5 160v922h-154v215z" />
    <glyph glyph-name="V" unicode="V" horiz-adv-x="1566" 
d="M55 1610h688v-215h-147l192 -555h9l209 555h-148v215h653v-215h-129l-602 -1436h-20l-582 1436h-123v215z" />
    <glyph glyph-name="W" unicode="W" horiz-adv-x="2111" 
d="M55 1610h637v-215h-121l119 -607h6l357 607h18l352 -607h7l129 607h-140v215h637v-215h-127l-338 -1436h-20l-510 823h-6l-506 -823h-21l-346 1436h-127v215z" />
    <glyph glyph-name="X" unicode="X" horiz-adv-x="1740" 
d="M82 1610h760v-215h-164l215 -326l240 326h-160v215h686v-215h-166l-426 -553l459 -627h133v-215h-766v215h170l-240 375l-239 -375h168v-215h-670v215h151l429 608l-445 572h-135v215z" />
    <glyph glyph-name="Y" unicode="Y" horiz-adv-x="1652" 
d="M55 1610h703v-215h-144l217 -363h9l223 363h-139v215h673v-215h-165l-392 -609v-571h166v-215h-768v215h166v555l-389 625h-160v215z" />
    <glyph glyph-name="Z" unicode="Z" horiz-adv-x="1390" 
d="M92 1610h1217v-21l-717 -1374h393v309h301v-524h-1235v20l723 1375h-385v-246h-297v461z" />
    <glyph glyph-name="bracketleft" unicode="[" horiz-adv-x="1056" 
d="M313 1812h701v-172h-393v-1822h393v-172h-701v2166z" />
    <glyph glyph-name="backslash" unicode="\" horiz-adv-x="1363" 
d="M0 1675h328l1036 -1964h-330z" />
    <glyph glyph-name="bracketright" unicode="]" horiz-adv-x="1056" 
d="M43 1812h700v-2166h-700v172h393v1822h-393v172z" />
    <glyph glyph-name="asciicircum" unicode="^" horiz-adv-x="1294" 
d="M532 1610h218l452 -1100h-237l-322 811h-8l-305 -811h-238z" />
    <glyph glyph-name="underscore" unicode="_" horiz-adv-x="1671" 
d="M0 -172h1677v-215h-1677v215z" />
    <glyph glyph-name="grave" unicode="`" horiz-adv-x="761" 
d="M80 1595h334l270 -321h-256z" />
    <glyph glyph-name="a" unicode="a" horiz-adv-x="1339" 
d="M487 696l275 60q-3 137 -38 184t-124 47q-188 0 -188 -149v-41h-287v41q0 168 142 263t366 95q78 0 149.5 -12t141 -41t119.5 -73.5t81 -114.5t31 -158v-539q0 -29 27 -46t65 -17q22 0 64 10v-205q-79 -33 -191 -33q-101 0 -181.5 27t-125.5 78q-126 -92 -317 -92
q-214 0 -323.5 89.5t-109.5 221.5q0 62 24.5 121.5t73.5 115t133 100t193 68.5zM625 197q84 0 137 32v357l-98 -25q-123 -32 -165 -75.5t-42 -131.5q0 -90 36.5 -123.5t131.5 -33.5z" />
    <glyph glyph-name="b" unicode="b" horiz-adv-x="1462" 
d="M12 1610h549v-518q72 45 168 74.5t193 29.5q211 0 326.5 -154.5t115.5 -455.5q0 -606 -498 -606q-218 0 -366 118l-15 -98h-317v1405h-156v205zM561 879v-588q64 -64 189 -64q118 0 170.5 79.5t52.5 264.5q0 377 -213 377q-51 0 -107.5 -18.5t-91.5 -50.5z" />
    <glyph glyph-name="c" unicode="c" horiz-adv-x="1236" 
d="M856 1176h311v-359h-319v33q0 47 -39.5 88t-126.5 41q-109 0 -158 -86.5t-49 -300.5q0 -91 9 -156.5t33 -122.5t71 -86.5t117 -29.5q77 0 123 36t46 103v45h287v-62q0 -154 -128 -246.5t-347 -92.5q-284 0 -442 161t-158 449q0 141 39 256t108 191t163 117.5t204 41.5
q148 0 252 -74h4v54z" />
    <glyph glyph-name="d" unicode="d" horiz-adv-x="1527" 
d="M721 1610h571v-1405h160v-205h-534v84q-68 -48 -169 -76t-202 -28q-218 0 -333.5 145t-115.5 446q0 625 502 625q169 0 299 -74v283h-178v205zM899 297v588q-26 29 -77 46t-109 17q-118 0 -172 -85t-54 -273q0 -182 50.5 -272.5t160.5 -90.5q53 0 109.5 18.5t91.5 51.5z
" />
    <glyph glyph-name="e" unicode="e" horiz-adv-x="1341" 
d="M1251 537h-776q6 -176 60 -258t182 -82q96 0 154.5 42t58.5 109v33h287v-33q0 -114 -73.5 -199t-193 -127t-266.5 -42q-281 0 -439.5 160t-158.5 438q0 118 30 218.5t84 173.5t128.5 124t163.5 76.5t188 25.5q173 0 305.5 -75t202 -202.5t69.5 -285.5q0 -61 -6 -96z
M678 977q-87 0 -135.5 -58t-61.5 -200h404q0 132 -54.5 195t-152.5 63z" />
    <glyph glyph-name="f" unicode="f" horiz-adv-x="1175" 
d="M43 1176h197v127q0 169 130 260.5t353 91.5q200 0 320 -73.5t120 -207.5v-61h-278v53q0 86 -115 86q-137 0 -137 -100v-176h307v-205h-307v-766h211v-205h-764v205h160v766h-197v205z" />
    <glyph glyph-name="g" unicode="g" horiz-adv-x="1376" 
d="M936 1415h319q68 -65 68 -137q0 -64 -50.5 -121t-137.5 -96q149 -128 149 -332q0 -93 -35.5 -172t-104.5 -139.5t-181.5 -94.5t-257.5 -34q-121 0 -220 24q-43 -34 -43 -73q0 -60 111 -60h408q211 0 313 -80.5t102 -214.5q0 -138 -107.5 -218.5t-332.5 -80.5h-418
q-204 0 -296.5 69.5t-92.5 186.5q0 110 78 174q-72 60 -72 152q0 68 43 126t127 97q-174 120 -174 338q0 94 35.5 177t104.5 148.5t181 103.5t255 38q144 0 256 -39q57 48 57 111q0 75 -84 147zM709 989q-203 0 -203 -254q0 -122 48.5 -178.5t154.5 -56.5q105 0 152.5 56.5
t47.5 178.5q0 254 -200 254zM436 -53q-37 -32 -37 -82q0 -109 179 -109h260q176 0 176 99q0 48 -41 70t-131 22h-406z" />
    <glyph glyph-name="h" unicode="h" horiz-adv-x="1646" 
d="M92 1610h553v-518h8q108 55 201 79.5t195 24.5q364 0 364 -305v-686h156v-205h-690v205h137v645q0 46 -30 68t-95 22q-131 0 -246 -63v-672h135v-205h-688v205h160v1200h-160v205z" />
    <glyph glyph-name="i" unicode="i" horiz-adv-x="882" 
d="M92 1176h553v-971h160v-205h-713v205h160v766h-160v205zM252 1610h393v-258h-393v258z" />
    <glyph glyph-name="j" unicode="j" horiz-adv-x="976" 
d="M440 1610h394v-258h-394v258zM281 1176h553v-1252q0 -167 -129.5 -252.5t-354.5 -85.5q-201 0 -320.5 68t-119.5 201v61h283v-59q0 -82 110 -82q62 0 99.5 25t37.5 77v1094h-159v205z" />
    <glyph glyph-name="k" unicode="k" horiz-adv-x="1562" 
d="M92 1610h553v-889h8l332 250h-154v205h652v-205h-174l-262 -209l264 -492q35 -69 157 -69q53 0 80 4v-213q-134 -25 -235 -25q-308 0 -389 203l-150 373l-129 -105v-233h160v-205h-713v205h160v1200h-160v205z" />
    <glyph glyph-name="l" unicode="l" horiz-adv-x="882" 
d="M92 1610h553v-1405h160v-205h-713v205h160v1200h-160v205z" />
    <glyph glyph-name="m" unicode="m" horiz-adv-x="2430" 
d="M92 1176h531v-84h8q203 104 411 104q255 0 330 -129q203 129 453 129q190 0 280 -76.5t90 -228.5v-686h158v-205h-692v205h139v645q0 46 -30 68t-95 22q-132 0 -262 -78v-657h156v-205h-690v205h137v645q0 46 -30 68t-95 22q-131 0 -246 -63v-672h135v-205h-688v205h160
v766h-160v205z" />
    <glyph glyph-name="n" unicode="n" horiz-adv-x="1646" 
d="M92 1176h531v-84h8q203 104 411 104q371 0 371 -305v-686h156v-205h-690v205h137v645q0 46 -30 68t-95 22q-131 0 -246 -63v-672h135v-205h-688v205h160v766h-160v205z" />
    <glyph glyph-name="o" unicode="o" horiz-adv-x="1372" 
d="M686 1196q149 0 266 -51t188.5 -139t108.5 -198.5t37 -236.5q0 -125 -37 -231t-109 -187t-188 -127t-266 -46t-266 46t-188 127t-109 187t-37 231q0 126 37 236.5t108.5 198.5t188.5 139t266 51zM686 967q-211 0 -211 -394q0 -189 49.5 -276.5t161.5 -87.5q111 0 161 88
t50 276q0 394 -211 394z" />
    <glyph glyph-name="p" unicode="p" horiz-adv-x="1542" 
d="M92 1176h531v-84q66 48 167.5 76t202.5 28q219 0 335 -146.5t116 -447.5q0 -622 -502 -622q-173 0 -301 73v-241h184v-205h-733v205h156v1159h-156v205zM641 879v-588q27 -28 77.5 -46t108.5 -18q119 0 172.5 85t53.5 272q0 183 -50.5 273.5t-160.5 90.5
q-52 0 -109 -18.5t-92 -50.5z" />
    <glyph glyph-name="q" unicode="q" horiz-adv-x="1421" 
d="M971 1176h321v-1364h158v-205h-741v205h190v272q-69 -45 -167.5 -74.5t-194.5 -29.5q-208 0 -323.5 153t-115.5 453q0 610 498 610q217 0 365 -119zM899 297v588q-60 63 -186 63q-120 0 -173 -80t-53 -266q0 -375 213 -375q52 0 108 19t91 51z" />
    <glyph glyph-name="r" unicode="r" horiz-adv-x="1390" 
d="M92 1176h531l4 -105h8q101 64 191.5 94.5t195.5 30.5q169 0 247.5 -77t78.5 -228v-184h-328v157q0 42 -30.5 65t-88.5 23q-62 0 -133.5 -24.5t-122.5 -57.5v-665h193v-205h-746v205h160v766h-160v205z" />
    <glyph glyph-name="s" unicode="s" horiz-adv-x="1263" 
d="M836 1176h313v-359h-326v70q-25 51 -78.5 79.5t-128.5 28.5q-71 0 -104 -25.5t-33 -66.5q0 -46 43 -75.5t183 -90.5q75 -32 122 -54t103 -51.5t89.5 -53.5t67.5 -56t52 -64.5t29.5 -73t11.5 -87.5q0 -157 -114 -243.5t-321 -86.5q-222 0 -337 101h-13v-68h-321v381h321
v-78q30 -50 92 -84.5t140 -34.5q73 0 119.5 31.5t46.5 93.5q0 30 -14 55.5t-33 43.5t-62.5 41t-77 37t-102.5 42q-62 25 -98.5 40t-85.5 38.5t-76.5 43t-59.5 47.5t-48 57t-27 67t-11 82q0 137 98.5 215t295.5 78q215 0 335 -104h9v84z" />
    <glyph glyph-name="t" unicode="t" horiz-adv-x="972" 
d="M240 1473h393v-297h307v-205h-307v-670q0 -50 40.5 -77t112.5 -27q66 0 82 8v-213q-131 -25 -227 -25q-89 0 -159 17.5t-126 55.5t-86 104t-30 157v670h-197v205h197v297z" />
    <glyph glyph-name="u" unicode="u" horiz-adv-x="1605" 
d="M51 1176h551v-850q0 -46 30.5 -68t96.5 -22q130 0 248 63v672h-158v205h551v-971h160v-205h-535v84q-194 -104 -415 -104q-191 0 -281 76.5t-90 228.5v686h-158v205z" />
    <glyph glyph-name="v" unicode="v" horiz-adv-x="1550" 
d="M39 1176h696v-205h-164l211 -410h9l229 410h-168v205h659v-205h-135l-602 -1004h-20l-588 1004h-127v205z" />
    <glyph glyph-name="w" unicode="w" horiz-adv-x="2031" 
d="M39 1176h610v-205h-137l139 -357h13l344 582h28l344 -582h11l155 357h-137v205h584v-205h-115l-432 -1004h-25l-407 711h-10l-416 -711h-27l-418 1004h-104v205z" />
    <glyph glyph-name="x" unicode="x" horiz-adv-x="1624" 
d="M68 1176h727v-205h-144l197 -215l211 215h-144v205h641v-205h-147l-391 -367l420 -399h118v-205h-731v205h152l-213 241l-217 -241h153v-205h-632v205h137l385 393l-397 373h-125v205z" />
    <glyph glyph-name="y" unicode="y" horiz-adv-x="1589" 
d="M39 1176h719v-205h-187l230 -439h8l242 439h-160v205h657v-205h-133l-610 -1123q-76 -139 -189.5 -200.5t-287.5 -61.5q-87 0 -187 19v205q68 -11 105 -11q186 0 264 148l123 233l-467 791h-127v205z" />
    <glyph glyph-name="z" unicode="z" horiz-adv-x="1323" 
d="M92 1176h1161v-21l-680 -956h342v182h316v-381h-1176v20l697 959h-340v-162h-320v359z" />
    <glyph glyph-name="braceleft" unicode="{" horiz-adv-x="1056" 
d="M1014 1804v-174q-82 10 -142 10q-102 0 -142 -42.5t-40 -122.5q0 -45 23.5 -202.5t23.5 -264.5q0 -114 -24 -176t-84 -105q62 -42 85 -106.5t23 -167.5q0 -108 -23.5 -267t-23.5 -200q0 -168 160 -168q125 0 164 10v-172q-59 -10 -168 -10q-108 0 -189 16t-131 43
t-80.5 68t-41.5 84.5t-11 99.5q0 68 31 227t31 267q0 116 -38 156t-153 40h-98v162h98q115 0 153 41t38 158q0 110 -31 267.5t-31 223.5q0 70 19.5 123t66.5 98t135.5 68.5t216.5 23.5q85 0 183 -8z" />
    <glyph glyph-name="bar" unicode="|" horiz-adv-x="745" 
d="M258 1812h229v-2166h-229v2166z" />
    <glyph glyph-name="braceright" unicode="}" horiz-adv-x="1056" 
d="M43 1630v174q98 8 180 8q103 0 181 -16t126.5 -43.5t79 -68.5t42.5 -86t12 -101q0 -65 -31 -222t-31 -267q0 -117 38 -158t153 -41h98v-162h-98q-116 0 -153.5 -39.5t-37.5 -154.5q0 -111 31 -269.5t31 -226.5q0 -56 -11.5 -99.5t-42 -84.5t-80.5 -68t-131.5 -43
t-189.5 -16q-110 0 -166 10v172q41 -10 162 -10q160 0 160 168q0 40 -23 200t-23 265q0 110 23.5 172t83.5 104q-62 44 -84.5 109.5t-22.5 167.5q0 110 23 268t23 201q0 83 -41.5 125t-149.5 42q-69 0 -131 -10z" />
    <glyph glyph-name="asciitilde" unicode="~" horiz-adv-x="1294" 
d="M92 684v100q0 121 63.5 180.5t200.5 59.5q96 0 170 -30.5t181 -106.5q81 -58 120.5 -78.5t79.5 -20.5q47 0 65.5 24t18.5 69v71h211v-102q0 -120 -63 -180t-197 -60q-100 0 -171 30.5t-181 104.5q-84 58 -123.5 78.5t-81.5 20.5q-82 0 -82 -88v-72h-211z" />
    <glyph glyph-name="nbspace" unicode="&#xa0;" horiz-adv-x="741" 
 />
    <glyph glyph-name="exclamdown" unicode="&#xa1;" horiz-adv-x="677" 
d="M598 -301h-518l162 1139h194zM500 989h-328v320h328v-320z" />
    <glyph glyph-name="cent" unicode="&#xa2;" horiz-adv-x="1388" 
d="M997 1462h289v-377h-297v82q0 128 -151 138v-1002q88 2 142 43.5t54 126.5v45h262v-45q0 -105 -59.5 -182.5t-161.5 -119.5t-237 -50v-223h-90v221q-162 4 -287 58.5t-203 148t-118 215.5t-40 266q0 196 69 348.5t210 243t336 90.5h33v221h90v-233q98 -17 151 -70h8v55z
M565 791q0 -224 38.5 -338t144.5 -142v989q-66 -14 -104.5 -64t-58.5 -157.5t-20 -287.5z" />
    <glyph glyph-name="sterling" unicode="&#xa3;" horiz-adv-x="1431" 
d="M104 821h250q-88 123 -115 174q-61 116 -61 234q0 199 154 305t422 106q269 0 410 -110.5t141 -325.5v-49h-261v49q0 113 -62.5 164t-193.5 51q-126 0 -179.5 -47t-53.5 -153q0 -23 2 -45t7 -47l8.5 -42.5t13.5 -46t14.5 -42t18 -45t18 -41.5t20.5 -46t19 -43h641v-153
h-580q49 -135 49 -254q0 -111 -34 -195q82 -29 141 -29q96 0 146.5 55.5t50.5 160.5v49h262v-60q0 -200 -101.5 -314t-285.5 -114q-97 0 -167.5 31t-133.5 86q-117 -117 -312 -117q-123 0 -199.5 50t-76.5 147q0 93 72.5 139.5t195.5 46.5q82 0 166 -24q6 38 6 82
q0 134 -63 260h-349v153zM336 135q96 0 145 96q-61 33 -127 33q-106 0 -106 -65q0 -29 23.5 -46.5t64.5 -17.5z" />
    <glyph glyph-name="currency" unicode="&#xa4;" horiz-adv-x="1228" 
d="M614 1257q135 0 250 -77l137 139l121 -123l-137 -139q76 -109 76 -252q0 -68 -17.5 -123t-60.5 -121l139 -137l-123 -121l-137 135q-115 -76 -250 -76q-140 0 -250 78l-137 -137l-123 121l140 137q-76 115 -76 246q0 139 74 252l-138 139l121 123l137 -139q126 75 254 75
zM612 1077q-104 0 -178 -79t-74 -189t74 -188t178 -78t179 78t75 188t-75 189t-179 79z" />
    <glyph glyph-name="yen" unicode="&#xa5;" horiz-adv-x="1507" 
d="M55 1610h412l285 -531h12l307 531h381l-485 -801v-135h387v-154h-387v-158h387v-153h-387v-209h-437v209h-389v153h389v158h-389v154h389v129z" />
    <glyph glyph-name="brokenbar" unicode="&#xa6;" horiz-adv-x="745" 
d="M258 481h229v-835h-229v835zM258 1812h229v-835h-229v835z" />
    <glyph glyph-name="section" unicode="&#xa7;" horiz-adv-x="1382" 
d="M1286 1329v-125h-282v125q0 54 -42.5 87.5t-132.5 33.5q-92 0 -146 -38t-54 -107q0 -55 36.5 -107.5t94.5 -97.5t129 -91t141.5 -98.5t128.5 -109.5t94.5 -134t36.5 -163q0 -38 -6.5 -73t-25 -76.5t-49 -75.5t-82 -64t-119.5 -47q92 -105 92 -227q0 -51 -14.5 -98
t-53 -95t-98 -83t-157.5 -57t-224 -22q-244 0 -351.5 79.5t-107.5 232.5v127h283v-127q0 -52 42.5 -85.5t133.5 -33.5q93 0 146 37.5t53 107.5q0 56 -36.5 109.5t-94.5 98.5t-128.5 91.5t-141 98t-128.5 108.5t-94.5 132.5t-36.5 160.5q0 47 11.5 91.5t40 94t88 89.5
t143.5 61q-92 105 -92 229q0 51 14.5 98t52.5 94.5t97.5 82.5t157 57t222.5 22q242 0 350.5 -79.5t108.5 -233.5zM942 510q0 26 -5.5 51t-19.5 49t-27 43.5t-39 43t-43 39t-51 39.5t-52.5 36.5t-58 38.5t-56.5 37q-81 -24 -116.5 -66t-35.5 -104q0 -27 5.5 -52t20 -49.5
t27 -43.5t39 -43t42.5 -38.5t52 -39.5t52.5 -36t58 -38t56.5 -37q151 46 151 170z" />
    <glyph glyph-name="dieresis" unicode="&#xa8;" horiz-adv-x="978" 
d="M92 1610h289v-258h-289v258zM598 1610h289v-258h-289v258z" />
    <glyph glyph-name="ordfeminine" unicode="&#xaa;" horiz-adv-x="995" 
d="M141 1360v26q0 112 91 174t241 62q152 0 248 -66t96 -196v-356q0 -20 16.5 -31.5t40.5 -11.5q12 0 48 8v-135q-61 -23 -129 -23q-62 0 -118.5 18t-84.5 50q-76 -60 -211 -60q-136 0 -208.5 59.5t-72.5 149.5q0 89 71 162.5t206 101.5l178 37v47q0 61 -27 85t-77 24
q-117 0 -117 -99v-26h-191zM553 1217l-61 -15q-77 -18 -103.5 -46.5t-26.5 -84.5q0 -59 25.5 -82.5t93.5 -23.5q34 0 72 16v236z" />
    <glyph glyph-name="guillemotleft" unicode="&#xab;" horiz-adv-x="1161" 
d="M393 1176h277l-369 -590l369 -586h-277l-362 586zM854 1176h276l-368 -590l368 -586h-276l-362 586z" />
    <glyph glyph-name="logicalnot" unicode="&#xac;" horiz-adv-x="1294" 
d="M92 913h1110v-913h-217v698h-893v215z" />
    <glyph glyph-name="softhyphen" unicode="&#xad;" horiz-adv-x="1009" 
d="M92 874h826v-229h-826v229z" />
    <glyph glyph-name="macron" unicode="&#xaf;" horiz-adv-x="1243" 
d="M92 1507h1059v-170h-1059v170z" />
    <glyph glyph-name="degree" unicode="&#xb0;" horiz-adv-x="800" 
d="M399 1642q113 0 193 -54.5t115.5 -138.5t35.5 -187q0 -158 -87.5 -258.5t-256.5 -100.5q-167 0 -254.5 100.5t-87.5 258.5q0 76 21 143.5t62 121t107.5 84.5t151.5 31zM399 1497q-78 0 -113.5 -58t-35.5 -175q0 -114 35 -167t114 -53q81 0 116.5 53t35.5 167
q0 117 -36 175t-116 58z" />
    <glyph glyph-name="plusminus" unicode="&#xb1;" horiz-adv-x="1294" 
d="M541 1460h217v-444h444v-215h-444v-441h-217v441h-449v215h449v444zM92 215h1110v-215h-1110v215z" />
    <glyph glyph-name="twosuperior" unicode="&#xb2;" 
d="M100 1360v31q0 116 64.5 176.5t183.5 60.5q129 0 190.5 -68t61.5 -176q0 -82 -36.5 -137t-133.5 -143q-123 -113 -147.5 -145.5t-24.5 -86.5v-10h346v-137h-520v119q0 105 39 174.5t153 171.5q98 88 121 119t23 77q0 56 -19 83.5t-73 27.5q-51 0 -76 -27t-25 -88v-22
h-127z" />
    <glyph glyph-name="threesuperior" unicode="&#xb3;" 
d="M100 1360v31q0 116 64 176.5t182 60.5q128 0 187 -67.5t59 -174.5q0 -139 -109 -194q131 -51 131 -213q0 -117 -69 -194.5t-201 -77.5q-115 0 -182.5 61t-67.5 176v31h131v-31q0 -58 21 -82t67 -24q57 0 81 34.5t24 116.5q0 75 -21 103t-75 28h-115v135h115
q57 0 76.5 23.5t19.5 93.5q0 72 -20 98.5t-76 26.5q-53 0 -74 -22.5t-21 -83.5v-31h-127z" />
    <glyph glyph-name="acute" unicode="&#xb4;" horiz-adv-x="761" 
d="M348 1595h336l-350 -321h-254z" />
    <glyph glyph-name="paragraph" unicode="&#xb6;" horiz-adv-x="1886" 
d="M700 1610h1094v-2003h-356v1827h-332v-1827h-356v1171h-50q-311 0 -459.5 106t-148.5 298q0 196 150 312t458 116zM750 1434h-68q-105 0 -159 -59t-54 -189q0 -129 53 -180.5t160 -51.5h68v480z" />
    <glyph glyph-name="periodcentered" unicode="&#xb7;" horiz-adv-x="450" 
d="M61 920h328v-320h-328v320z" />
    <glyph glyph-name="cedilla" unicode="&#xb8;" horiz-adv-x="632" 
d="M330 -61h211l-148 -353h-301z" />
    <glyph glyph-name="onesuperior" unicode="&#xb9;" horiz-adv-x="673" 
d="M336 1610h158v-885h-213v651h-103v117h47q47 0 77.5 30.5t33.5 86.5z" />
    <glyph glyph-name="ordmasculine" unicode="&#xba;" horiz-adv-x="1015" 
d="M508 1622q98 0 175 -34t124 -92.5t71.5 -131t24.5 -154.5q0 -83 -24.5 -153t-72 -123.5t-124 -84t-174.5 -30.5q-192 0 -294.5 109.5t-102.5 281.5q0 82 25 155t72.5 131t125 92t174.5 34zM508 1473q-137 0 -137 -261q0 -124 33 -182.5t104 -58.5q72 0 104.5 58t32.5 183
q0 261 -137 261z" />
    <glyph glyph-name="guillemotright" unicode="&#xbb;" horiz-adv-x="1161" 
d="M31 1176h276l363 -590l-363 -586h-276l368 586zM492 1176h276l362 -590l-362 -586h-276l368 586z" />
    <glyph glyph-name="onequarter" unicode="&#xbc;" horiz-adv-x="1699" 
d="M1393 1610h206l-1298 -1610h-209zM313 1610h158v-885h-213v651h-102v117h47q47 0 77 30.5t33 86.5zM1491 907h16v-588h101v-96h-101v-223h-196v223h-359v10zM1307 506l-158 -187h162v187h-4z" />
    <glyph glyph-name="onehalf" unicode="&#xbd;" horiz-adv-x="1699" 
d="M1380 1610h207l-1298 -1610h-209zM301 1610h158v-885h-213v651h-103v117h47q47 0 77.5 30.5t33.5 86.5zM1114 635v31q0 116 64.5 176.5t183.5 60.5q129 0 190.5 -68t61.5 -176q0 -82 -36.5 -137t-133.5 -143q-123 -113 -147.5 -145.5t-24.5 -86.5v-10h346v-137h-520v119
q0 105 39 174.5t153 171.5q98 87 121 119t23 78q0 55 -19 82.5t-74 27.5q-51 0 -75.5 -27t-24.5 -88v-22h-127z" />
    <glyph glyph-name="threequarters" unicode="&#xbe;" horiz-adv-x="1699" 
d="M1403 1610h207l-1299 -1610h-209zM1501 907h17v-588h100v-96h-100v-223h-197v223h-358v10zM1317 506l-158 -187h162v187h-4zM88 1360v31q0 116 64 176.5t182 60.5q128 0 187 -67.5t59 -174.5q0 -139 -109 -194q131 -51 131 -213q0 -117 -69 -194.5t-201 -77.5
q-115 0 -182.5 61t-67.5 176v31h131v-31q0 -58 21 -82t67 -24q57 0 81 34.5t24 116.5q0 74 -21.5 102.5t-75.5 28.5h-114v135h114q57 0 77 23.5t20 93.5q0 71 -20.5 98t-76.5 27q-53 0 -73.5 -22.5t-20.5 -83.5v-31h-127z" />
    <glyph glyph-name="questiondown" unicode="&#xbf;" horiz-adv-x="1232" 
d="M1190 154v-56q0 -211 -145 -321.5t-414 -110.5q-122 0 -219.5 23.5t-163 64t-109 97.5t-63 121.5t-19.5 138.5q0 51 9 95.5t29 82t39.5 66t55 60.5t59.5 51t68 52q105 79 150 142.5t45 152.5v27h309v-25q0 -88 -22.5 -154t-59 -113.5t-108.5 -115.5q-13 -12 -41 -38
t-38 -36t-31 -32t-29 -35.5t-21 -36t-18 -42.5t-9 -47.5t-4 -58.5q0 -48 9 -83.5t33 -67.5t72 -49t120 -17q122 0 189 51t67 158v56h260zM829 989h-327v320h327v-320z" />
    <glyph glyph-name="Agrave" unicode="&#xc0;" horiz-adv-x="1566" 
d="M793 1651h20l576 -1436h122v-215h-686v215h146l-43 119h-316l-45 -119h146v-215h-658v215h129zM772 801l-125 -295h248l-115 295h-8zM440 2030h334l270 -322h-256z" />
    <glyph glyph-name="Aacute" unicode="&#xc1;" horiz-adv-x="1566" 
d="M793 1651h20l576 -1436h122v-215h-686v215h146l-43 119h-316l-45 -119h146v-215h-658v215h129zM772 801l-125 -295h248l-115 295h-8zM831 2030h336l-350 -322h-254z" />
    <glyph glyph-name="Acircumflex" unicode="&#xc2;" horiz-adv-x="1566" 
d="M793 1651h20l576 -1436h122v-215h-686v215h146l-43 119h-316l-45 -119h146v-215h-658v215h129zM772 801l-125 -295h248l-115 295h-8zM786 2044h35l465 -373h-248l-229 182h-10l-230 -182h-247z" />
    <glyph glyph-name="Atilde" unicode="&#xc3;" horiz-adv-x="1566" 
d="M793 1651h20l576 -1436h122v-215h-686v215h146l-43 119h-316l-45 -119h146v-215h-658v215h129zM772 801l-125 -295h248l-115 295h-8zM309 1749v80q0 89 62 136.5t186 47.5q91 0 149 -24.5t130 -77.5q61 -45 97 -61.5t89 -16.5q57 0 85 18.5t28 49.5v57h163v-80
q0 -184 -249 -184q-96 0 -160 26t-131 76q-43 32 -62.5 45t-51 24t-66.5 11q-107 0 -107 -72v-55h-162z" />
    <glyph glyph-name="Adieresis" unicode="&#xc4;" horiz-adv-x="1566" 
d="M793 1651h20l576 -1436h122v-215h-686v215h146l-43 119h-316l-45 -119h146v-215h-658v215h129zM772 801l-125 -295h248l-115 295h-8zM406 2044h288v-258h-288v258zM911 2044h289v-258h-289v258z" />
    <glyph glyph-name="Aring" unicode="&#xc5;" horiz-adv-x="1566" 
d="M575 1843q0 85 65.5 143t162.5 58q96 0 162.5 -58.5t66.5 -142.5q0 -81 -63 -136t-156 -58l576 -1434h122v-215h-686v215h146l-43 119h-316l-45 -119h146v-215h-658v215h129l607 1434q-93 3 -154.5 58t-61.5 136zM803 1968q-51 0 -85 -36t-34 -89q0 -52 34 -85.5
t85 -33.5q50 0 84.5 33.5t34.5 85.5t-34.5 88.5t-84.5 36.5zM772 801l-125 -295h248l-115 295h-8z" />
    <glyph glyph-name="AE" unicode="&#xc6;" horiz-adv-x="2230" 
d="M770 1610h1356v-461h-301v246h-373v-439h649v-229h-649v-512h379v309h301v-524h-1278v215h162v119h-404l-45 -119h146v-215h-658v215h129zM977 1395l-334 -889h373v889h-39z" />
    <glyph glyph-name="Ccedilla" unicode="&#xc7;" horiz-adv-x="1372" 
d="M983 1610h289v-461h-301v98q0 174 -178 174q-68 0 -112 -26.5t-75 -96.5t-44 -192t-13 -313q0 -125 6 -213.5t22.5 -166.5t45.5 -124.5t75 -72.5t111 -26q94 0 152.5 52t58.5 157v56h260v-56q0 -139 -68.5 -238t-184 -146.5t-265.5 -47.5q-137 0 -249 42t-191 117.5
t-132.5 181t-78.5 231t-25 270.5q0 179 39 329.5t113.5 263.5t192.5 176.5t267 63.5q193 0 277 -100h8v68zM633 -61h211l-148 -353h-301z" />
    <glyph glyph-name="Egrave" unicode="&#xc8;" horiz-adv-x="1464" 
d="M92 1610h1268v-461h-301v246h-371v-439h647v-229h-647v-512h377v309h301v-524h-1274v215h160v1180h-160v215zM383 2030h334l270 -322h-256z" />
    <glyph glyph-name="Eacute" unicode="&#xc9;" horiz-adv-x="1464" 
d="M92 1610h1268v-461h-301v246h-371v-439h647v-229h-647v-512h377v309h301v-524h-1274v215h160v1180h-160v215zM793 2030h335l-350 -322h-254z" />
    <glyph glyph-name="Ecircumflex" unicode="&#xca;" horiz-adv-x="1464" 
d="M92 1610h1268v-461h-301v246h-371v-439h647v-229h-647v-512h377v309h301v-524h-1274v215h160v1180h-160v215zM719 2044h35l465 -373h-248l-230 182h-10l-229 -182h-248z" />
    <glyph glyph-name="Edieresis" unicode="&#xcb;" horiz-adv-x="1464" 
d="M92 1610h1268v-461h-301v246h-371v-439h647v-229h-647v-512h377v309h301v-524h-1274v215h160v1180h-160v215zM350 2044h289v-258h-289v258zM856 2044h289v-258h-289v258z" />
    <glyph glyph-name="Igrave" unicode="&#xcc;" horiz-adv-x="940" 
d="M92 1610h756v-215h-160v-1180h160v-215h-756v215h160v1180h-160v215zM111 2030h333l271 -322h-256z" />
    <glyph glyph-name="Iacute" unicode="&#xcd;" horiz-adv-x="935" 
d="M92 1610h756v-215h-160v-1180h160v-215h-756v215h160v1180h-160v215zM510 2030h336l-350 -322h-254z" />
    <glyph glyph-name="Icircumflex" unicode="&#xce;" horiz-adv-x="964" 
d="M102 1610h756v-215h-160v-1180h160v-215h-756v215h160v1180h-160v215zM465 2044h35l465 -373h-248l-230 182h-10l-229 -182h-248z" />
    <glyph glyph-name="Idieresis" unicode="&#xcf;" horiz-adv-x="940" 
d="M92 1610h756v-215h-160v-1180h160v-215h-756v215h160v1180h-160v215zM84 2044h289v-258h-289v258zM590 2044h289v-258h-289v258z" />
    <glyph glyph-name="Eth" unicode="&#xd0;" horiz-adv-x="1585" 
d="M92 1610h660q190 0 335 -61.5t234 -174t133.5 -261.5t44.5 -331q0 -181 -44 -323t-134 -245.5t-233.5 -158.5t-335.5 -55h-660v215h160v512h-160v229h160v439h-160v215zM688 1395v-439h223v-229h-223v-512h86q87 0 142 48t86.5 175t31.5 344q0 219 -31 356.5t-87.5 197
t-141.5 59.5h-86z" />
    <glyph glyph-name="Ntilde" unicode="&#xd1;" horiz-adv-x="1640" 
d="M92 1610h522l435 -621h8v406h-133v215h661v-215h-158v-1436h-20l-776 965h-8v-709h141v-215h-672v215h160v1180h-160v215zM299 1749v80q0 89 62 136.5t186 47.5q91 0 148.5 -24.5t129.5 -77.5q60 -44 97 -61t90 -17q112 0 112 68v57h164v-80q0 -184 -250 -184
q-96 0 -159 26t-131 76q-42 31 -62.5 44.5t-52 24.5t-66.5 11q-106 0 -106 -72v-55h-162z" />
    <glyph glyph-name="Ograve" unicode="&#xd2;" horiz-adv-x="1542" 
d="M770 1642q137 0 251.5 -46.5t194 -127.5t134.5 -191t80.5 -234.5t25.5 -260.5t-25.5 -256.5t-80.5 -223t-134.5 -177t-193.5 -116.5t-252 -42q-137 0 -250.5 42t-193 116.5t-134.5 177t-80.5 223t-25.5 256.5t25.5 261t80.5 234.5t134 190.5t193 127.5t251 46.5z
M770 1421q-116 0 -166.5 -162t-50.5 -477q0 -307 50 -450.5t167 -143.5q118 0 168.5 144t50.5 450q0 154 -12 269.5t-37.5 199.5t-68 127t-101.5 43zM410 2030h333l271 -322h-256z" />
    <glyph glyph-name="Oacute" unicode="&#xd3;" horiz-adv-x="1542" 
d="M770 1642q137 0 251.5 -46.5t194 -127.5t134.5 -191t80.5 -234.5t25.5 -260.5t-25.5 -256.5t-80.5 -223t-134.5 -177t-193.5 -116.5t-252 -42q-137 0 -250.5 42t-193 116.5t-134.5 177t-80.5 223t-25.5 256.5t25.5 261t80.5 234.5t134 190.5t193 127.5t251 46.5z
M770 1421q-116 0 -166.5 -162t-50.5 -477q0 -307 50 -450.5t167 -143.5q118 0 168.5 144t50.5 450q0 154 -12 269.5t-37.5 199.5t-68 127t-101.5 43zM799 2030h336l-351 -322h-254z" />
    <glyph glyph-name="Ocircumflex" unicode="&#xd4;" horiz-adv-x="1542" 
d="M770 1642q137 0 251.5 -46.5t194 -127.5t134.5 -191t80.5 -234.5t25.5 -260.5t-25.5 -256.5t-80.5 -223t-134.5 -177t-193.5 -116.5t-252 -42q-137 0 -250.5 42t-193 116.5t-134.5 177t-80.5 223t-25.5 256.5t25.5 261t80.5 234.5t134 190.5t193 127.5t251 46.5z
M770 1421q-116 0 -166.5 -162t-50.5 -477q0 -307 50 -450.5t167 -143.5q118 0 168.5 144t50.5 450q0 154 -12 269.5t-37.5 199.5t-68 127t-101.5 43zM754 2044h34l465 -373h-247l-230 182h-10l-229 -182h-248z" />
    <glyph glyph-name="Otilde" unicode="&#xd5;" horiz-adv-x="1542" 
d="M770 1642q137 0 251.5 -46.5t194 -127.5t134.5 -191t80.5 -234.5t25.5 -260.5t-25.5 -256.5t-80.5 -223t-134.5 -177t-193.5 -116.5t-252 -42q-137 0 -250.5 42t-193 116.5t-134.5 177t-80.5 223t-25.5 256.5t25.5 261t80.5 234.5t134 190.5t193 127.5t251 46.5z
M770 1421q-116 0 -166.5 -162t-50.5 -477q0 -307 50 -450.5t167 -143.5q118 0 168.5 144t50.5 450q0 154 -12 269.5t-37.5 199.5t-68 127t-101.5 43zM276 1749v80q0 89 62 136.5t186 47.5q91 0 149 -24.5t130 -77.5q61 -45 97 -61.5t89 -16.5q57 0 85 18.5t28 49.5v57h164
v-80q0 -184 -250 -184q-96 0 -160 26t-131 76q-43 32 -62.5 45t-51 24t-66.5 11q-107 0 -107 -72v-55h-162z" />
    <glyph glyph-name="Odieresis" unicode="&#xd6;" horiz-adv-x="1542" 
d="M770 1642q137 0 251.5 -46.5t194 -127.5t134.5 -191t80.5 -234.5t25.5 -260.5t-25.5 -256.5t-80.5 -223t-134.5 -177t-193.5 -116.5t-252 -42q-137 0 -250.5 42t-193 116.5t-134.5 177t-80.5 223t-25.5 256.5t25.5 261t80.5 234.5t134 190.5t193 127.5t251 46.5z
M770 1421q-116 0 -166.5 -162t-50.5 -477q0 -307 50 -450.5t167 -143.5q118 0 168.5 144t50.5 450q0 154 -12 269.5t-37.5 199.5t-68 127t-101.5 43zM377 2044h289v-258h-289v258zM883 2044h288v-258h-288v258z" />
    <glyph glyph-name="multiply" unicode="&#xd7;" horiz-adv-x="1294" 
d="M651 958l350 345l152 -152l-348 -346l346 -344l-154 -150l-346 342l-346 -342l-153 150l346 344l-348 346l153 152z" />
    <glyph glyph-name="Oslash" unicode="&#xd8;" horiz-adv-x="1542" 
d="M768 1642q211 0 367 -108l125 197h192l-197 -310q99 -119 150 -285.5t51 -355.5q0 -135 -25.5 -255t-80.5 -223t-134.5 -177t-193.5 -116t-252 -42q-217 0 -373 103l-121 -191h-190l188 299q-188 222 -188 604q0 136 25.5 261t80.5 234.5t134 190.5t192.5 127.5
t249.5 46.5zM989 782q0 114 -6 209l-393 -618q25 -94 69 -139.5t111 -45.5q118 0 168.5 144t50.5 450zM770 1421q-114 0 -165.5 -160.5t-51.5 -467.5q0 -74 4 -172l387 612q-54 188 -174 188z" />
    <glyph glyph-name="Ugrave" unicode="&#xd9;" horiz-adv-x="1683" 
d="M61 1610h719v-215h-129v-920q0 -153 41 -226t152 -73q110 0 152 73.5t42 225.5v920h-147v215h731v-215h-178v-922q0 -87 -19 -160t-63.5 -138t-114 -110.5t-175.5 -71.5t-243 -26t-243 26t-175 71.5t-114 110.5t-63.5 138t-18.5 160v922h-154v215zM475 2030h334l270 -322
h-256z" />
    <glyph glyph-name="Uacute" unicode="&#xda;" horiz-adv-x="1683" 
d="M61 1610h719v-215h-129v-920q0 -153 41 -226t152 -73q110 0 152 73.5t42 225.5v920h-147v215h731v-215h-178v-922q0 -87 -19 -160t-63.5 -138t-114 -110.5t-175.5 -71.5t-243 -26t-243 26t-175 71.5t-114 110.5t-63.5 138t-18.5 160v922h-154v215zM860 2030h336
l-350 -322h-254z" />
    <glyph glyph-name="Ucircumflex" unicode="&#xdb;" horiz-adv-x="1683" 
d="M61 1610h719v-215h-129v-920q0 -153 41 -226t152 -73q110 0 152 73.5t42 225.5v920h-147v215h731v-215h-178v-922q0 -87 -19 -160t-63.5 -138t-114 -110.5t-175.5 -71.5t-243 -26t-243 26t-175 71.5t-114 110.5t-63.5 138t-18.5 160v922h-154v215zM821 2044h35l465 -373
h-248l-229 182h-10l-230 -182h-248z" />
    <glyph glyph-name="Udieresis" unicode="&#xdc;" horiz-adv-x="1683" 
d="M61 1610h719v-215h-129v-920q0 -153 41 -226t152 -73q110 0 152 73.5t42 225.5v920h-147v215h731v-215h-178v-922q0 -87 -19 -160t-63.5 -138t-114 -110.5t-175.5 -71.5t-243 -26t-243 26t-175 71.5t-114 110.5t-63.5 138t-18.5 160v922h-154v215zM440 2044h289v-258
h-289v258zM946 2044h289v-258h-289v258z" />
    <glyph glyph-name="Yacute" unicode="&#xdd;" horiz-adv-x="1652" 
d="M55 1610h703v-215h-144l217 -363h9l223 363h-139v215h673v-215h-165l-392 -609v-571h166v-215h-768v215h166v555l-389 625h-160v215zM862 2030h336l-350 -322h-254z" />
    <glyph glyph-name="Thorn" unicode="&#xde;" horiz-adv-x="1542" 
d="M92 1610h770v-215h-174v-121h64q190 0 334 -35.5t232 -100.5t131.5 -151.5t43.5 -193.5q0 -216 -182 -336.5t-559 -120.5h-64v-121h178v-215h-774v215h160v1180h-160v215zM688 1057v-500h86q132 0 196 52.5t64 187.5q0 138 -65.5 199t-194.5 61h-86z" />
    <glyph glyph-name="germandbls" unicode="&#xdf;" horiz-adv-x="1665" 
d="M645 1262v-1262h-553v205h160v1032q0 215 150.5 316.5t463.5 101.5q317 0 473 -103t156 -317q0 -113 -48 -188t-163 -136q90 -30 158 -98t102.5 -155.5t34.5 -182.5q0 -97 -37.5 -184t-110 -157.5t-192.5 -112t-272 -41.5q-127 0 -197 20v205q47 -12 131 -12
q138 0 197 72t59 237q0 163 -54 228t-173 65h-49v211h49q119 0 167 52t48 165q0 130 -58 179.5t-190 49.5q-131 0 -191.5 -44t-60.5 -146z" />
    <glyph glyph-name="agrave" unicode="&#xe0;" horiz-adv-x="1339" 
d="M487 696l275 60q-3 137 -38 184t-124 47q-188 0 -188 -149v-41h-287v41q0 168 142 263t366 95q78 0 149.5 -12t141 -41t119.5 -73.5t81 -114.5t31 -158v-539q0 -29 27 -46t65 -17q22 0 64 10v-205q-79 -33 -191 -33q-101 0 -181.5 27t-125.5 78q-126 -92 -317 -92
q-214 0 -323.5 89.5t-109.5 221.5q0 62 24.5 121.5t73.5 115t133 100t193 68.5zM625 197q84 0 137 32v357l-98 -25q-123 -32 -165 -75.5t-42 -131.5q0 -90 36.5 -123.5t131.5 -33.5zM272 1595h334l271 -321h-256z" />
    <glyph glyph-name="aacute" unicode="&#xe1;" horiz-adv-x="1339" 
d="M487 696l275 60q-3 137 -38 184t-124 47q-188 0 -188 -149v-41h-287v41q0 168 142 263t366 95q78 0 149.5 -12t141 -41t119.5 -73.5t81 -114.5t31 -158v-539q0 -29 27 -46t65 -17q22 0 64 10v-205q-79 -33 -191 -33q-101 0 -181.5 27t-125.5 78q-126 -92 -317 -92
q-214 0 -323.5 89.5t-109.5 221.5q0 62 24.5 121.5t73.5 115t133 100t193 68.5zM625 197q84 0 137 32v357l-98 -25q-123 -32 -165 -75.5t-42 -131.5q0 -90 36.5 -123.5t131.5 -33.5zM672 1595h336l-351 -321h-254z" />
    <glyph glyph-name="acircumflex" unicode="&#xe2;" horiz-adv-x="1339" 
d="M487 696l275 60q-3 137 -38 184t-124 47q-188 0 -188 -149v-41h-287v41q0 168 142 263t366 95q78 0 149.5 -12t141 -41t119.5 -73.5t81 -114.5t31 -158v-539q0 -29 27 -46t65 -17q22 0 64 10v-205q-79 -33 -191 -33q-101 0 -181.5 27t-125.5 78q-126 -92 -317 -92
q-214 0 -323.5 89.5t-109.5 221.5q0 62 24.5 121.5t73.5 115t133 100t193 68.5zM625 197q84 0 137 32v357l-98 -25q-123 -32 -165 -75.5t-42 -131.5q0 -90 36.5 -123.5t131.5 -33.5zM618 1610h35l465 -373h-248l-229 182h-10l-230 -182h-247z" />
    <glyph glyph-name="atilde" unicode="&#xe3;" horiz-adv-x="1339" 
d="M487 696l275 60q-3 137 -38 184t-124 47q-188 0 -188 -149v-41h-287v41q0 168 142 263t366 95q78 0 149.5 -12t141 -41t119.5 -73.5t81 -114.5t31 -158v-539q0 -29 27 -46t65 -17q22 0 64 10v-205q-79 -33 -191 -33q-101 0 -181.5 27t-125.5 78q-126 -92 -317 -92
q-214 0 -323.5 89.5t-109.5 221.5q0 62 24.5 121.5t73.5 115t133 100t193 68.5zM625 197q84 0 137 32v357l-98 -25q-123 -32 -165 -75.5t-42 -131.5q0 -90 36.5 -123.5t131.5 -33.5zM145 1315v80q0 89 62 136.5t186 47.5q91 0 149 -24.5t130 -77.5q61 -45 97 -61.5t89 -16.5
q113 0 113 67v58h164v-80q0 -184 -250 -184q-96 0 -160 26t-131 76q-43 32 -62.5 45t-51 24t-66.5 11q-107 0 -107 -72v-55h-162z" />
    <glyph glyph-name="adieresis" unicode="&#xe4;" horiz-adv-x="1339" 
d="M487 696l275 60q-3 137 -38 184t-124 47q-188 0 -188 -149v-41h-287v41q0 168 142 263t366 95q78 0 149.5 -12t141 -41t119.5 -73.5t81 -114.5t31 -158v-539q0 -29 27 -46t65 -17q22 0 64 10v-205q-79 -33 -191 -33q-101 0 -181.5 27t-125.5 78q-126 -92 -317 -92
q-214 0 -323.5 89.5t-109.5 221.5q0 62 24.5 121.5t73.5 115t133 100t193 68.5zM625 197q84 0 137 32v357l-98 -25q-123 -32 -165 -75.5t-42 -131.5q0 -90 36.5 -123.5t131.5 -33.5zM231 1610h289v-258h-289v258zM737 1610h289v-258h-289v258z" />
    <glyph glyph-name="aring" unicode="&#xe5;" horiz-adv-x="1339" 
d="M487 696l275 60q-3 137 -38 184t-124 47q-188 0 -188 -149v-41h-287v41q0 168 142 263t366 95q78 0 149.5 -12t141 -41t119.5 -73.5t81 -114.5t31 -158v-539q0 -29 27 -46t65 -17q22 0 64 10v-205q-79 -33 -191 -33q-101 0 -181.5 27t-125.5 78q-126 -92 -317 -92
q-214 0 -323.5 89.5t-109.5 221.5q0 62 24.5 121.5t73.5 115t133 100t193 68.5zM625 197q84 0 137 32v357l-98 -25q-123 -32 -165 -75.5t-42 -131.5q0 -90 36.5 -123.5t131.5 -33.5zM416 1452q0 84 65.5 141.5t161.5 57.5q95 0 162 -58t67 -141q0 -84 -66.5 -140.5
t-162.5 -56.5q-97 0 -162 56t-65 141zM643 1575q-51 0 -85 -36t-34 -89q0 -52 34 -85.5t85 -33.5q50 0 84.5 33.5t34.5 85.5t-34.5 88.5t-84.5 36.5z" />
    <glyph glyph-name="ae" unicode="&#xe6;" horiz-adv-x="2017" 
d="M487 696l275 60q-3 136 -38.5 183.5t-125.5 47.5q-186 0 -186 -149v-41h-287v41q0 168 142 263t366 95q237 0 356 -113q153 113 367 113q173 0 305.5 -75t202 -202.5t69.5 -285.5q0 -61 -6 -96h-776q6 -176 60 -258t182 -82q96 0 154.5 42t58.5 109v33h286v-33
q0 -114 -73.5 -199t-192.5 -127t-266 -42q-292 0 -451 170q-162 -170 -420 -170q-208 0 -317 90t-109 221q0 62 21.5 120t68 114t132 101t202.5 70zM612 197q68 0 115.5 19.5t95.5 59.5q-61 125 -61 310l-98 -25q-123 -31 -165 -76t-42 -131q0 -87 35 -122t120 -35z
M1362 983q-171 0 -207 -264h406q0 46 -11 90.5t-33 84.5t-62.5 64.5t-92.5 24.5z" />
    <glyph glyph-name="ccedilla" unicode="&#xe7;" horiz-adv-x="1236" 
d="M856 1176h311v-359h-319v33q0 47 -39.5 88t-126.5 41q-109 0 -158 -86.5t-49 -300.5q0 -91 9 -156.5t33 -122.5t71 -86.5t117 -29.5q77 0 123 36t46 103v45h287v-62q0 -154 -128 -246.5t-347 -92.5q-284 0 -442 161t-158 449q0 141 39 256t108 191t163 117.5t204 41.5
q148 0 252 -74h4v54zM551 -61h211l-148 -353h-301z" />
    <glyph glyph-name="egrave" unicode="&#xe8;" horiz-adv-x="1341" 
d="M1251 537h-776q6 -176 60 -258t182 -82q96 0 154.5 42t58.5 109v33h287v-33q0 -114 -73.5 -199t-193 -127t-266.5 -42q-281 0 -439.5 160t-158.5 438q0 118 30 218.5t84 173.5t128.5 124t163.5 76.5t188 25.5q173 0 305.5 -75t202 -202.5t69.5 -285.5q0 -61 -6 -96z
M678 977q-87 0 -135.5 -58t-61.5 -200h404q0 132 -54.5 195t-152.5 63zM328 1595h334l270 -321h-256z" />
    <glyph glyph-name="eacute" unicode="&#xe9;" horiz-adv-x="1341" 
d="M1251 537h-776q6 -176 60 -258t182 -82q96 0 154.5 42t58.5 109v33h287v-33q0 -114 -73.5 -199t-193 -127t-266.5 -42q-281 0 -439.5 160t-158.5 438q0 118 30 218.5t84 173.5t128.5 124t163.5 76.5t188 25.5q173 0 305.5 -75t202 -202.5t69.5 -285.5q0 -61 -6 -96z
M678 977q-87 0 -135.5 -58t-61.5 -200h404q0 132 -54.5 195t-152.5 63zM723 1595h336l-350 -321h-254z" />
    <glyph glyph-name="ecircumflex" unicode="&#xea;" horiz-adv-x="1341" 
d="M1251 537h-776q6 -176 60 -258t182 -82q96 0 154.5 42t58.5 109v33h287v-33q0 -114 -73.5 -199t-193 -127t-266.5 -42q-281 0 -439.5 160t-158.5 438q0 118 30 218.5t84 173.5t128.5 124t163.5 76.5t188 25.5q173 0 305.5 -75t202 -202.5t69.5 -285.5q0 -61 -6 -96z
M678 977q-87 0 -135.5 -58t-61.5 -200h404q0 132 -54.5 195t-152.5 63zM668 1610h34l465 -373h-247l-230 182h-10l-229 -182h-248z" />
    <glyph glyph-name="edieresis" unicode="&#xeb;" horiz-adv-x="1341" 
d="M1251 537h-776q6 -176 60 -258t182 -82q96 0 154.5 42t58.5 109v33h287v-33q0 -114 -73.5 -199t-193 -127t-266.5 -42q-281 0 -439.5 160t-158.5 438q0 118 30 218.5t84 173.5t128.5 124t163.5 76.5t188 25.5q173 0 305.5 -75t202 -202.5t69.5 -285.5q0 -61 -6 -96z
M678 977q-87 0 -135.5 -58t-61.5 -200h404q0 132 -54.5 195t-152.5 63zM287 1610h288v-258h-288v258zM793 1610h288v-258h-288v258z" />
    <glyph glyph-name="igrave" unicode="&#xec;" horiz-adv-x="882" 
d="M35 1595h334l270 -321h-256zM92 1176h553v-971h160v-205h-713v205h160v766h-160v205z" />
    <glyph glyph-name="iacute" unicode="&#xed;" horiz-adv-x="876" 
d="M496 1595h335l-350 -321h-254zM92 1176h553v-971h160v-205h-713v205h160v766h-160v205z" />
    <glyph glyph-name="icircumflex" unicode="&#xee;" horiz-adv-x="964" 
d="M158 1176h553v-971h159v-205h-712v205h159v766h-159v205zM465 1610h35l465 -373h-248l-230 182h-10l-229 -182h-248z" />
    <glyph glyph-name="idieresis" unicode="&#xef;" horiz-adv-x="794" 
d="M0 1610h289v-258h-289v258zM506 1610h289v-258h-289v258zM55 1176h553v-971h160v-205h-713v205h160v766h-160v205z" />
    <glyph glyph-name="eth" unicode="&#xf0;" horiz-adv-x="1382" 
d="M240 1305l432 127q-92 112 -197 178h283q79 -37 155 -107l334 101l47 -129l-276 -82q122 -152 195 -360.5t73 -428.5q0 -297 -147.5 -460.5t-456.5 -163.5q-299 0 -447.5 152.5t-148.5 420.5q0 84 14 158t51 147t94.5 125t152 84.5t216.5 32.5q173 0 258 -51h9
q-48 139 -125 266l-469 -137zM674 209q59 0 104.5 23.5t72.5 61t44 90t23 103.5t6 109q0 125 -25 223q-97 53 -192 53q-127 0 -179.5 -80t-52.5 -255q0 -170 46.5 -249t152.5 -79z" />
    <glyph glyph-name="ntilde" unicode="&#xf1;" horiz-adv-x="1646" 
d="M92 1176h531v-84h8q203 104 411 104q371 0 371 -305v-686h156v-205h-690v205h137v645q0 46 -30 68t-95 22q-131 0 -246 -63v-672h135v-205h-688v205h160v766h-160v205zM276 1315v80q0 89 62 136.5t186 47.5q91 0 149 -24.5t130 -77.5q61 -45 97 -61.5t89 -16.5
q113 0 113 67v58h164v-80q0 -184 -250 -184q-96 0 -160 26t-131 76q-43 32 -62.5 45t-51 24t-66.5 11q-107 0 -107 -72v-55h-162z" />
    <glyph glyph-name="ograve" unicode="&#xf2;" horiz-adv-x="1372" 
d="M686 1196q149 0 266 -51t188.5 -139t108.5 -198.5t37 -236.5q0 -125 -37 -231t-109 -187t-188 -127t-266 -46t-266 46t-188 127t-109 187t-37 231q0 126 37 236.5t108.5 198.5t188.5 139t266 51zM686 967q-211 0 -211 -394q0 -189 49.5 -276.5t161.5 -87.5q111 0 161 88
t50 276q0 394 -211 394zM328 1595h334l270 -321h-256z" />
    <glyph glyph-name="oacute" unicode="&#xf3;" horiz-adv-x="1372" 
d="M686 1196q149 0 266 -51t188.5 -139t108.5 -198.5t37 -236.5q0 -125 -37 -231t-109 -187t-188 -127t-266 -46t-266 46t-188 127t-109 187t-37 231q0 126 37 236.5t108.5 198.5t188.5 139t266 51zM686 967q-211 0 -211 -394q0 -189 49.5 -276.5t161.5 -87.5q111 0 161 88
t50 276q0 394 -211 394zM719 1595h336l-350 -321h-254z" />
    <glyph glyph-name="ocircumflex" unicode="&#xf4;" horiz-adv-x="1372" 
d="M686 1196q149 0 266 -51t188.5 -139t108.5 -198.5t37 -236.5q0 -125 -37 -231t-109 -187t-188 -127t-266 -46t-266 46t-188 127t-109 187t-37 231q0 126 37 236.5t108.5 198.5t188.5 139t266 51zM686 967q-211 0 -211 -394q0 -189 49.5 -276.5t161.5 -87.5q111 0 161 88
t50 276q0 394 -211 394zM676 1610h35l465 -373h-248l-230 182h-10l-229 -182h-248z" />
    <glyph glyph-name="otilde" unicode="&#xf5;" horiz-adv-x="1372" 
d="M686 1196q149 0 266 -51t188.5 -139t108.5 -198.5t37 -236.5q0 -125 -37 -231t-109 -187t-188 -127t-266 -46t-266 46t-188 127t-109 187t-37 231q0 126 37 236.5t108.5 198.5t188.5 139t266 51zM686 967q-211 0 -211 -394q0 -189 49.5 -276.5t161.5 -87.5q111 0 161 88
t50 276q0 394 -211 394zM197 1315v80q0 184 247 184q91 0 149 -24.5t130 -77.5q61 -45 97 -61.5t89 -16.5q113 0 113 67v58h164v-80q0 -184 -250 -184q-96 0 -160 26t-131 76q-43 32 -62.5 45t-51 24t-66.5 11q-107 0 -107 -72v-55h-161z" />
    <glyph glyph-name="odieresis" unicode="&#xf6;" horiz-adv-x="1372" 
d="M686 1196q149 0 266 -51t188.5 -139t108.5 -198.5t37 -236.5q0 -125 -37 -231t-109 -187t-188 -127t-266 -46t-266 46t-188 127t-109 187t-37 231q0 126 37 236.5t108.5 198.5t188.5 139t266 51zM686 967q-211 0 -211 -394q0 -189 49.5 -276.5t161.5 -87.5q111 0 161 88
t50 276q0 394 -211 394zM287 1610h288v-258h-288v258zM793 1610h288v-258h-288v258z" />
    <glyph glyph-name="divide" unicode="&#xf7;" horiz-adv-x="1294" 
d="M92 913h1110v-215h-1110v215zM508 1438h328v-320h-328v320zM508 494h328v-320h-328v320z" />
    <glyph glyph-name="oslash" unicode="&#xf8;" horiz-adv-x="1378" 
d="M684 1196q169 0 299 -68l117 168h192l-180 -260q86 -86 130 -207t44 -258q0 -125 -37 -231t-109 -187t-188 -127t-266 -46q-154 0 -274 49l-105 -150h-190l159 230q-190 161 -190 462q0 126 37 236.5t108.5 198.5t188 139t264.5 51zM682 967q-207 0 -207 -404
q0 -92 10 -151l338 487q-52 68 -141 68zM897 565q0 64 -8 150l-326 -467q45 -39 121 -39q112 0 162.5 86.5t50.5 269.5z" />
    <glyph glyph-name="ugrave" unicode="&#xf9;" horiz-adv-x="1605" 
d="M51 1176h551v-850q0 -46 30.5 -68t96.5 -22q130 0 248 63v672h-158v205h551v-971h160v-205h-535v84q-194 -104 -415 -104q-191 0 -281 76.5t-90 228.5v686h-158v205zM412 1595h333l271 -321h-256z" />
    <glyph glyph-name="uacute" unicode="&#xfa;" horiz-adv-x="1605" 
d="M51 1176h551v-850q0 -46 30.5 -68t96.5 -22q130 0 248 63v672h-158v205h551v-971h160v-205h-535v84q-194 -104 -415 -104q-191 0 -281 76.5t-90 228.5v686h-158v205zM762 1595h336l-350 -321h-254z" />
    <glyph glyph-name="ucircumflex" unicode="&#xfb;" horiz-adv-x="1605" 
d="M51 1176h551v-850q0 -46 30.5 -68t96.5 -22q130 0 248 63v672h-158v205h551v-971h160v-205h-535v84q-194 -104 -415 -104q-191 0 -281 76.5t-90 228.5v686h-158v205zM737 1610h35l465 -373h-248l-229 182h-10l-230 -182h-248z" />
    <glyph glyph-name="udieresis" unicode="&#xfc;" horiz-adv-x="1605" 
d="M51 1176h551v-850q0 -46 30.5 -68t96.5 -22q130 0 248 63v672h-158v205h551v-971h160v-205h-535v84q-194 -104 -415 -104q-191 0 -281 76.5t-90 228.5v686h-158v205zM354 1610h289v-258h-289v258zM860 1610h289v-258h-289v258z" />
    <glyph glyph-name="yacute" unicode="&#xfd;" horiz-adv-x="1589" 
d="M39 1176h719v-205h-187l230 -439h8l242 439h-160v205h657v-205h-133l-610 -1123q-76 -139 -189.5 -200.5t-287.5 -61.5q-87 0 -187 19v205q68 -11 105 -11q186 0 264 148l123 233l-467 791h-127v205zM834 1595h335l-350 -321h-254z" />
    <glyph glyph-name="thorn" unicode="&#xfe;" horiz-adv-x="1462" 
d="M12 1610h549v-518q74 46 169.5 75t191.5 29q207 0 324.5 -147t117.5 -449q0 -321 -133 -470.5t-369 -149.5q-173 0 -301 73v-241h184v-205h-733v205h156v1593h-156v205zM561 879v-588q27 -29 79 -46.5t108 -17.5q118 0 171.5 85.5t53.5 267.5q0 368 -213 368
q-51 0 -107.5 -18.5t-91.5 -50.5z" />
    <glyph glyph-name="ydieresis" unicode="&#xff;" horiz-adv-x="1589" 
d="M39 1176h719v-205h-187l230 -439h8l242 439h-160v205h657v-205h-133l-610 -1123q-76 -139 -189.5 -200.5t-287.5 -61.5q-87 0 -187 19v205q68 -11 105 -11q186 0 264 148l123 233l-467 791h-127v205zM414 1610h288v-258h-288v258zM920 1610h288v-258h-288v258z" />
    <glyph glyph-name="Amacron" unicode="&#x100;" horiz-adv-x="1566" 
d="M793 1651h20l576 -1436h122v-215h-686v215h146l-43 119h-316l-45 -119h146v-215h-658v215h129zM772 801l-125 -295h248l-115 295h-8zM274 1942h1059v-170h-1059v170z" />
    <glyph glyph-name="amacron" unicode="&#x101;" horiz-adv-x="1339" 
d="M487 696l275 60q-3 137 -38 184t-124 47q-188 0 -188 -149v-41h-287v41q0 168 142 263t366 95q78 0 149.5 -12t141 -41t119.5 -73.5t81 -114.5t31 -158v-539q0 -29 27 -46t65 -17q22 0 64 10v-205q-79 -33 -191 -33q-101 0 -181.5 27t-125.5 78q-126 -92 -317 -92
q-214 0 -323.5 89.5t-109.5 221.5q0 62 24.5 121.5t73.5 115t133 100t193 68.5zM625 197q84 0 137 32v357l-98 -25q-123 -32 -165 -75.5t-42 -131.5q0 -90 36.5 -123.5t131.5 -33.5zM135 1507h1059v-170h-1059v170z" />
    <glyph glyph-name="Abreve" unicode="&#x102;" horiz-adv-x="1566" 
d="M793 1651h20l576 -1436h122v-215h-686v215h146l-43 119h-316l-45 -119h146v-215h-658v215h129zM772 801l-125 -295h248l-115 295h-8zM375 2044h203q15 -112 64.5 -160.5t160.5 -48.5q110 0 157.5 47.5t67.5 161.5h203q-14 -172 -116.5 -254t-311.5 -82
q-210 0 -314.5 82.5t-113.5 253.5z" />
    <glyph glyph-name="abreve" unicode="&#x103;" horiz-adv-x="1339" 
d="M487 696l275 60q-3 137 -38 184t-124 47q-188 0 -188 -149v-41h-287v41q0 168 142 263t366 95q78 0 149.5 -12t141 -41t119.5 -73.5t81 -114.5t31 -158v-539q0 -29 27 -46t65 -17q22 0 64 10v-205q-79 -33 -191 -33q-101 0 -181.5 27t-125.5 78q-126 -92 -317 -92
q-214 0 -323.5 89.5t-109.5 221.5q0 62 24.5 121.5t73.5 115t133 100t193 68.5zM625 197q84 0 137 32v357l-98 -25q-123 -32 -165 -75.5t-42 -131.5q0 -90 36.5 -123.5t131.5 -33.5zM219 1610h203q15 -112 64.5 -160.5t160.5 -48.5q110 0 157.5 47.5t67.5 161.5h203
q-14 -172 -116.5 -254t-311.5 -82q-210 0 -314.5 82.5t-113.5 253.5z" />
    <glyph glyph-name="Aogonek" unicode="&#x104;" horiz-adv-x="1566" 
d="M1114 0h-289v215h146l-43 119h-316l-45 -119h146v-215h-658v215h129l609 1436h20l576 -1436h122v-215h-251q-178 -29 -269.5 -80.5t-91.5 -103.5q0 -70 178 -70q107 0 156 25t49 77v15h223v-27q0 -117 -116.5 -183.5t-339.5 -66.5q-187 0 -283 46t-96 118q0 83 120 154
t324 96zM772 801l-125 -295h248l-115 295h-8z" />
    <glyph glyph-name="aogonek" unicode="&#x105;" horiz-adv-x="1339" 
d="M487 696l275 60q-3 137 -38 184t-124 47q-188 0 -188 -149v-41h-287v41q0 168 142 263t366 95q78 0 149.5 -12t141 -41t119.5 -73.5t81 -114.5t31 -158v-539q0 -29 27 -46t65 -17q22 0 64 10v-205q-79 -33 -191 -33q-64 0 -131 13q-128 -30 -192 -74.5t-64 -89.5
q0 -70 178 -70q107 0 156 25t49 77v15h223v-27q0 -117 -116.5 -183.5t-339.5 -66.5q-187 0 -283 46t-96 118q0 81 115 151t311 97q-73 24 -117 74q-126 -92 -317 -92q-214 0 -323.5 89.5t-109.5 221.5q0 62 24.5 121.5t73.5 115t133 100t193 68.5zM625 197q84 0 137 32v357
l-98 -25q-123 -32 -165 -75.5t-42 -131.5q0 -90 36.5 -123.5t131.5 -33.5z" />
    <glyph glyph-name="Cacute" unicode="&#x106;" horiz-adv-x="1372" 
d="M983 1610h289v-461h-301v98q0 174 -178 174q-68 0 -112 -26.5t-75 -96.5t-44 -192t-13 -313q0 -125 6 -213.5t22.5 -166.5t45.5 -124.5t75 -72.5t111 -26q94 0 152.5 52t58.5 157v56h260v-56q0 -139 -68.5 -238t-184 -146.5t-265.5 -47.5q-137 0 -249 42t-191 117.5
t-132.5 181t-78.5 231t-25 270.5q0 179 39 329.5t113.5 263.5t192.5 176.5t267 63.5q193 0 277 -100h8v68zM764 2030h336l-350 -322h-254z" />
    <glyph glyph-name="cacute" unicode="&#x107;" horiz-adv-x="1236" 
d="M856 1176h311v-359h-319v33q0 47 -39.5 88t-126.5 41q-109 0 -158 -86.5t-49 -300.5q0 -91 9 -156.5t33 -122.5t71 -86.5t117 -29.5q77 0 123 36t46 103v45h287v-62q0 -154 -128 -246.5t-347 -92.5q-284 0 -442 161t-158 449q0 141 39 256t108 191t163 117.5t204 41.5
q148 0 252 -74h4v54zM670 1595h336l-351 -321h-254z" />
    <glyph glyph-name="Cdotaccent" unicode="&#x10a;" horiz-adv-x="1372" 
d="M983 1610h289v-461h-301v98q0 174 -178 174q-68 0 -112 -26.5t-75 -96.5t-44 -192t-13 -313q0 -125 6 -213.5t22.5 -166.5t45.5 -124.5t75 -72.5t111 -26q94 0 152.5 52t58.5 157v56h260v-56q0 -139 -68.5 -238t-184 -146.5t-265.5 -47.5q-137 0 -249 42t-191 117.5
t-132.5 181t-78.5 231t-25 270.5q0 179 39 329.5t113.5 263.5t192.5 176.5t267 63.5q193 0 277 -100h8v68zM594 2044h289v-258h-289v258z" />
    <glyph glyph-name="cdotaccent" unicode="&#x10b;" horiz-adv-x="1236" 
d="M856 1176h311v-359h-319v33q0 47 -39.5 88t-126.5 41q-109 0 -158 -86.5t-49 -300.5q0 -91 9 -156.5t33 -122.5t71 -86.5t117 -29.5q77 0 123 36t46 103v45h287v-62q0 -154 -128 -246.5t-347 -92.5q-284 0 -442 161t-158 449q0 141 39 256t108 191t163 117.5t204 41.5
q148 0 252 -74h4v54zM485 1610h289v-258h-289v258z" />
    <glyph glyph-name="Ccaron" unicode="&#x10c;" horiz-adv-x="1372" 
d="M983 1610h289v-461h-301v98q0 174 -178 174q-68 0 -112 -26.5t-75 -96.5t-44 -192t-13 -313q0 -125 6 -213.5t22.5 -166.5t45.5 -124.5t75 -72.5t111 -26q94 0 152.5 52t58.5 157v56h260v-56q0 -139 -68.5 -238t-184 -146.5t-265.5 -47.5q-137 0 -249 42t-191 117.5
t-132.5 181t-78.5 231t-25 270.5q0 179 39 329.5t113.5 263.5t192.5 176.5t267 63.5q193 0 277 -100h8v68zM748 1671h-35l-465 373h248l229 -182h10l230 182h247z" />
    <glyph glyph-name="ccaron" unicode="&#x10d;" horiz-adv-x="1216" 
d="M856 1176h311v-359h-319v33q0 47 -39.5 88t-126.5 41q-109 0 -158 -86.5t-49 -300.5q0 -91 9 -156.5t33 -122.5t71 -86.5t117 -29.5q77 0 123 36t46 103v45h287v-62q0 -154 -128 -246.5t-347 -92.5q-284 0 -442 161t-158 449q0 141 39 256t108 191t163 117.5t204 41.5
q148 0 252 -74h4v54zM645 1237h-35l-465 373h248l230 -183h10l229 183h248z" />
    <glyph glyph-name="Dcaron" unicode="&#x10e;" horiz-adv-x="1585" 
d="M92 1610h660q190 0 335 -61.5t234 -174t133.5 -261.5t44.5 -331q0 -181 -44 -323t-134 -245.5t-233.5 -158.5t-335.5 -55h-660v215h160v1180h-160v215zM688 1395v-1180h86q87 0 142 48t86.5 175t31.5 344q0 219 -31 356.5t-87.5 197t-141.5 59.5h-86zM725 1671h-35
l-465 373h248l229 -182h11l229 182h248z" />
    <glyph glyph-name="dcaron" unicode="&#x10f;" horiz-adv-x="1802" 
d="M721 1610h571v-1405h160v-205h-534v84q-68 -48 -169 -76t-202 -28q-218 0 -333.5 145t-115.5 446q0 625 502 625q169 0 299 -74v283h-178v205zM899 297v588q-26 29 -77 46t-109 17q-118 0 -172 -85t-54 -273q0 -182 50.5 -272.5t160.5 -90.5q53 0 109.5 18.5t91.5 51.5z
M1591 1610h211l-147 -353h-301z" />
    <glyph glyph-name="Dcroat" unicode="&#x110;" horiz-adv-x="1585" 
d="M92 1610h660q190 0 335 -61.5t234 -174t133.5 -261.5t44.5 -331q0 -181 -44 -323t-134 -245.5t-233.5 -158.5t-335.5 -55h-660v215h160v512h-160v229h160v439h-160v215zM688 1395v-439h223v-229h-223v-512h86q87 0 142 48t86.5 175t31.5 344q0 219 -31 356.5t-87.5 197
t-141.5 59.5h-86z" />
    <glyph glyph-name="dmacron" unicode="&#x111;" horiz-adv-x="1533" 
d="M418 1507h481v103h393v-103h185v-170h-185v-1132h160v-205h-534v84q-68 -48 -169 -76t-202 -28q-218 0 -333.5 145t-115.5 446q0 625 502 625q169 0 299 -74v215h-481v170zM899 297v588q-26 29 -77 46t-109 17q-118 0 -172 -85t-54 -273q0 -182 50.5 -272.5t160.5 -90.5
q53 0 109.5 18.5t91.5 51.5z" />
    <glyph glyph-name="Emacron" unicode="&#x112;" horiz-adv-x="1464" 
d="M92 1610h1268v-461h-301v246h-371v-439h647v-229h-647v-512h377v309h301v-524h-1274v215h160v1180h-160v215zM221 1942h1059v-170h-1059v170z" />
    <glyph glyph-name="emacron" unicode="&#x113;" horiz-adv-x="1341" 
d="M1251 537h-776q6 -176 60 -258t182 -82q96 0 154.5 42t58.5 109v33h287v-33q0 -114 -73.5 -199t-193 -127t-266.5 -42q-281 0 -439.5 160t-158.5 438q0 118 30 218.5t84 173.5t128.5 124t163.5 76.5t188 25.5q173 0 305.5 -75t202 -202.5t69.5 -285.5q0 -61 -6 -96z
M678 977q-87 0 -135.5 -58t-61.5 -200h404q0 132 -54.5 195t-152.5 63zM145 1507h1059v-170h-1059v170z" />
    <glyph glyph-name="Ebreve" unicode="&#x114;" horiz-adv-x="1464" 
d="M92 1610h1268v-461h-301v246h-371v-439h647v-229h-647v-512h377v309h301v-524h-1274v215h160v1180h-160v215zM328 2044h202q15 -112 65 -160.5t161 -48.5q110 0 157.5 47.5t67.5 161.5h203q-14 -172 -116.5 -254t-311.5 -82q-210 0 -314.5 82.5t-113.5 253.5z" />
    <glyph glyph-name="ebreve" unicode="&#x115;" horiz-adv-x="1341" 
d="M1251 537h-776q6 -176 60 -258t182 -82q96 0 154.5 42t58.5 109v33h287v-33q0 -114 -73.5 -199t-193 -127t-266.5 -42q-281 0 -439.5 160t-158.5 438q0 118 30 218.5t84 173.5t128.5 124t163.5 76.5t188 25.5q173 0 305.5 -75t202 -202.5t69.5 -285.5q0 -61 -6 -96z
M678 977q-87 0 -135.5 -58t-61.5 -200h404q0 132 -54.5 195t-152.5 63zM254 1610h203q15 -112 64.5 -160.5t160.5 -48.5q110 0 157.5 47.5t67.5 161.5h203q-14 -172 -116.5 -254t-311.5 -82q-210 0 -314.5 82.5t-113.5 253.5z" />
    <glyph glyph-name="Edotaccent" unicode="&#x116;" horiz-adv-x="1464" 
d="M92 1610h1268v-461h-301v246h-371v-439h647v-229h-647v-512h377v309h301v-524h-1274v215h160v1180h-160v215zM618 2044h289v-258h-289v258z" />
    <glyph glyph-name="edotaccent" unicode="&#x117;" horiz-adv-x="1341" 
d="M1251 537h-776q6 -176 60 -258t182 -82q96 0 154.5 42t58.5 109v33h287v-33q0 -114 -73.5 -199t-193 -127t-266.5 -42q-281 0 -439.5 160t-158.5 438q0 118 30 218.5t84 173.5t128.5 124t163.5 76.5t188 25.5q173 0 305.5 -75t202 -202.5t69.5 -285.5q0 -61 -6 -96z
M678 977q-87 0 -135.5 -58t-61.5 -200h404q0 132 -54.5 195t-152.5 63zM539 1610h288v-258h-288v258z" />
    <glyph glyph-name="Eogonek" unicode="&#x118;" horiz-adv-x="1464" 
d="M971 0h-879v215h160v1180h-160v215h1268v-461h-301v246h-371v-439h647v-229h-647v-512h377v309h301v-524h-250q-178 -29 -269 -80.5t-91 -103.5q0 -70 178 -70q107 0 156 25t49 77v15h223v-27q0 -117 -117 -183.5t-340 -66.5q-187 0 -283 46t-96 118q0 83 120.5 154
t324.5 96z" />
    <glyph glyph-name="eogonek" unicode="&#x119;" horiz-adv-x="1341" 
d="M1251 537h-776q6 -176 60 -258t182 -82q96 0 154.5 42t58.5 109v33h287v-33q0 -60 -19.5 -111t-47.5 -86t-74 -65.5t-82.5 -48t-90.5 -33.5t-81 -22.5t-70 -14.5q-271 -54 -271 -147q0 -74 176 -74q110 0 158.5 25t48.5 77v15h223v-27q0 -117 -116.5 -183.5t-339.5 -66.5
q-187 0 -283 46t-96 118t92.5 136.5t253.5 97.5q-243 25 -377.5 181.5t-134.5 412.5q0 147 46.5 266t127.5 195t189 116.5t233 40.5q262 0 418.5 -159.5t156.5 -415.5q0 -36 -6 -84zM678 977q-87 0 -135.5 -58t-61.5 -200h404q0 132 -54.5 195t-152.5 63z" />
    <glyph glyph-name="Ecaron" unicode="&#x11a;" horiz-adv-x="1464" 
d="M92 1610h1268v-461h-301v246h-371v-439h647v-229h-647v-512h377v309h301v-524h-1274v215h160v1180h-160v215zM748 1671h-35l-465 373h248l229 -182h10l230 182h247z" />
    <glyph glyph-name="ecaron" unicode="&#x11b;" horiz-adv-x="1341" 
d="M1251 537h-776q6 -176 60 -258t182 -82q96 0 154.5 42t58.5 109v33h287v-33q0 -114 -73.5 -199t-193 -127t-266.5 -42q-281 0 -439.5 160t-158.5 438q0 118 30 218.5t84 173.5t128.5 124t163.5 76.5t188 25.5q173 0 305.5 -75t202 -202.5t69.5 -285.5q0 -61 -6 -96z
M678 977q-87 0 -135.5 -58t-61.5 -200h404q0 132 -54.5 195t-152.5 63zM702 1237h-34l-465 373h248l229 -183h10l230 183h247z" />
    <glyph glyph-name="Gbreve" unicode="&#x11e;" horiz-adv-x="1468" 
d="M1020 1610h289v-461h-301v98q0 89 -54 131.5t-145 42.5q-70 0 -115.5 -27t-80 -98.5t-49.5 -200t-15 -327.5q0 -125 6.5 -212t23.5 -160.5t47.5 -116t78 -66t114.5 -23.5q65 0 127 17v520h-219v229h590v-858q-69 -53 -214.5 -92t-303.5 -39q-153 0 -275 43t-203 117
t-134.5 180t-77 226.5t-23.5 261.5q0 249 71.5 438.5t216.5 299t345 109.5q98 0 175 -26.5t118 -73.5h8v68zM313 2044h203q15 -112 64.5 -160.5t160.5 -48.5q110 0 158 48t68 161h202q-14 -172 -116.5 -254t-311.5 -82q-210 0 -314.5 82.5t-113.5 253.5z" />
    <glyph glyph-name="gbreve" unicode="&#x11f;" horiz-adv-x="1376" 
d="M936 1415h319q68 -65 68 -137q0 -64 -50.5 -121t-137.5 -96q149 -128 149 -332q0 -93 -35.5 -172t-104.5 -139.5t-181.5 -94.5t-257.5 -34q-121 0 -220 24q-43 -34 -43 -73q0 -60 111 -60h408q211 0 313 -80.5t102 -214.5q0 -138 -107.5 -218.5t-332.5 -80.5h-418
q-204 0 -296.5 69.5t-92.5 186.5q0 110 78 174q-72 60 -72 152q0 68 43 126t127 97q-174 120 -174 338q0 94 35.5 177t104.5 148.5t181 103.5t255 38q144 0 256 -39q57 48 57 111q0 75 -84 147zM709 989q-203 0 -203 -254q0 -122 48.5 -178.5t154.5 -56.5q105 0 152.5 56.5
t47.5 178.5q0 254 -200 254zM436 -53q-37 -32 -37 -82q0 -109 179 -109h260q176 0 176 99q0 48 -41 70t-131 22h-406zM270 1743h203q15 -112 64.5 -160.5t160.5 -48.5q110 0 158 48t68 161h202q-14 -172 -116.5 -254t-311.5 -82q-210 0 -314.5 82.5t-113.5 253.5z" />
    <glyph glyph-name="Gdotaccent" unicode="&#x120;" horiz-adv-x="1468" 
d="M1020 1610h289v-461h-301v98q0 89 -54 131.5t-145 42.5q-70 0 -115.5 -27t-80 -98.5t-49.5 -200t-15 -327.5q0 -125 6.5 -212t23.5 -160.5t47.5 -116t78 -66t114.5 -23.5q65 0 127 17v520h-219v229h590v-858q-69 -53 -214.5 -92t-303.5 -39q-153 0 -275 43t-203 117
t-134.5 180t-77 226.5t-23.5 261.5q0 249 71.5 438.5t216.5 299t345 109.5q98 0 175 -26.5t118 -73.5h8v68zM596 2044h289v-258h-289v258z" />
    <glyph glyph-name="gdotaccent" unicode="&#x121;" horiz-adv-x="1376" 
d="M936 1415h319q68 -65 68 -137q0 -64 -50.5 -121t-137.5 -96q149 -128 149 -332q0 -93 -35.5 -172t-104.5 -139.5t-181.5 -94.5t-257.5 -34q-121 0 -220 24q-43 -34 -43 -73q0 -60 111 -60h408q211 0 313 -80.5t102 -214.5q0 -138 -107.5 -218.5t-332.5 -80.5h-418
q-204 0 -296.5 69.5t-92.5 186.5q0 110 78 174q-72 60 -72 152q0 68 43 126t127 97q-174 120 -174 338q0 94 35.5 177t104.5 148.5t181 103.5t255 38q144 0 256 -39q57 48 57 111q0 75 -84 147zM709 989q-203 0 -203 -254q0 -122 48.5 -178.5t154.5 -56.5q105 0 152.5 56.5
t47.5 178.5q0 254 -200 254zM436 -53q-37 -32 -37 -82q0 -109 179 -109h260q176 0 176 99q0 48 -41 70t-131 22h-406zM561 1733h289v-258h-289v258z" />
    <glyph glyph-name="Gcommaaccent" unicode="&#x122;" horiz-adv-x="1468" 
d="M1020 1610h289v-461h-301v98q0 89 -54 131.5t-145 42.5q-70 0 -115.5 -27t-80 -98.5t-49.5 -200t-15 -327.5q0 -125 6.5 -212t23.5 -160.5t47.5 -116t78 -66t114.5 -23.5q65 0 127 17v520h-219v229h590v-858q-69 -53 -214.5 -92t-303.5 -39q-153 0 -275 43t-203 117
t-134.5 180t-77 226.5t-23.5 261.5q0 249 71.5 438.5t216.5 299t345 109.5q98 0 175 -26.5t118 -73.5h8v68zM678 -61h211l-148 -353h-301z" />
    <glyph glyph-name="gcommaaccent" unicode="&#x123;" horiz-adv-x="1376" 
d="M936 1415h319q68 -65 68 -137q0 -64 -50.5 -121t-137.5 -96q149 -128 149 -332q0 -93 -35.5 -172t-104.5 -139.5t-181.5 -94.5t-257.5 -34q-121 0 -220 24q-43 -34 -43 -73q0 -60 111 -60h408q211 0 313 -80.5t102 -214.5q0 -138 -107.5 -218.5t-332.5 -80.5h-418
q-204 0 -296.5 69.5t-92.5 186.5q0 110 78 174q-72 60 -72 152q0 68 43 126t127 97q-174 120 -174 338q0 94 35.5 177t104.5 148.5t181 103.5t255 38q144 0 256 -39q57 48 57 111q0 75 -84 147zM709 989q-203 0 -203 -254q0 -122 48.5 -178.5t154.5 -56.5q105 0 152.5 56.5
t47.5 178.5q0 254 -200 254zM436 -53q-37 -32 -37 -82q0 -109 179 -109h260q176 0 176 99q0 48 -41 70t-131 22h-406zM729 1774h211l-147 -353h-301z" />
    <glyph glyph-name="Hbar" unicode="&#x126;" horiz-adv-x="1763" 
d="M12 1276h242v119h-160v215h725v-215h-129v-119h363v119h-135v215h755v-215h-184v-119h237v-170h-237v-891h184v-215h-755v215h135v533h-363v-533h129v-215h-725v215h160v891h-242v170zM690 977h363v129h-363v-129z" />
    <glyph glyph-name="hbar" unicode="&#x127;" horiz-adv-x="1646" 
d="M92 1507h160v103h393v-103h506v-170h-506v-245h12q206 104 375 104q197 0 289 -75.5t92 -229.5v-686h156v-205h-690v205h137v645q0 90 -119 90q-137 0 -252 -63v-672h135v-205h-688v205h160v1132h-160v170z" />
    <glyph glyph-name="Imacron" unicode="&#x12a;" horiz-adv-x="1058" 
d="M150 1610h755v-215h-160v-1180h160v-215h-755v215h159v1180h-159v215zM0 1942h1059v-170h-1059v170z" />
    <glyph glyph-name="imacron" unicode="&#x12b;" horiz-adv-x="1058" 
d="M0 1507h1059v-170h-1059v170zM178 1176h553v-971h160v-205h-713v205h160v766h-160v205z" />
    <glyph glyph-name="Ibreve" unicode="&#x12c;" horiz-adv-x="940" 
d="M92 1610h756v-215h-160v-1180h160v-215h-756v215h160v1180h-160v215zM55 2044h203q15 -112 64.5 -160.5t160.5 -48.5q110 0 158 48t68 161h202q-14 -172 -116.5 -254t-311.5 -82q-210 0 -314.5 82.5t-113.5 253.5z" />
    <glyph glyph-name="ibreve" unicode="&#x12d;" horiz-adv-x="882" 
d="M12 1610h203q15 -112 64.5 -160.5t160.5 -48.5q110 0 158 48t68 161h202q-14 -172 -116.5 -254t-311.5 -82q-210 0 -314.5 82.5t-113.5 253.5zM92 1176h553v-971h160v-205h-713v205h160v766h-160v205z" />
    <glyph glyph-name="Iogonek" unicode="&#x12e;" horiz-adv-x="940" 
d="M444 0h-352v215h160v1180h-160v215h756v-215h-160v-1180h160v-215h-258q-178 -29 -269.5 -80.5t-91.5 -103.5q0 -70 179 -70q107 0 155.5 25t48.5 77v15h224v-27q0 -117 -117 -183.5t-340 -66.5q-187 0 -283 46t-96 118q0 83 120 154t324 96z" />
    <glyph glyph-name="iogonek" unicode="&#x12f;" horiz-adv-x="882" 
d="M444 0h-352v205h160v766h-160v205h553v-971h160v-205h-215q-178 -29 -269.5 -80.5t-91.5 -103.5q0 -70 179 -70q107 0 155.5 25t48.5 77v15h224v-27q0 -117 -117 -183.5t-340 -66.5q-187 0 -283 46t-96 118q0 83 120 154t324 96zM252 1610h393v-258h-393v258z" />
    <glyph glyph-name="Idotaccent" unicode="&#x130;" horiz-adv-x="940" 
d="M92 1610h756v-215h-160v-1180h160v-215h-756v215h160v1180h-160v215zM328 2044h288v-258h-288v258z" />
    <glyph glyph-name="dotlessi" unicode="&#x131;" horiz-adv-x="882" 
d="M92 1176h553v-971h160v-205h-713v205h160v766h-160v205z" />
    <glyph glyph-name="IJ" unicode="&#x132;" horiz-adv-x="2314" 
d="M92 1610h756v-215h-160v-1180h160v-215h-756v215h160v1180h-160v215zM1454 1610h803v-215h-160v-885q0 -87 -16 -161.5t-59.5 -146.5t-112 -122.5t-181.5 -81.5t-260 -31q-274 0 -423.5 106t-149.5 326v56h305v-43q0 -112 61.5 -165.5t168.5 -53.5q119 0 175 73t56 242
v887h-207v215z" />
    <glyph glyph-name="ij" unicode="&#x133;" horiz-adv-x="1591" 
d="M92 1176h553v-971h160v-205h-713v205h160v766h-160v205zM252 1610h393v-258h-393v258zM1055 1610h393v-258h-393v258zM895 1176h553v-1252q0 -167 -129 -252.5t-354 -85.5q-201 0 -321 68t-120 201v61h283v-59q0 -82 111 -82q62 0 99.5 25t37.5 77v1094h-160v205z" />
    <glyph glyph-name="Kcommaaccent" unicode="&#x136;" horiz-adv-x="1708" 
d="M92 1610h713v-215h-117v-365h8l367 365h-135v215h678v-215h-191l-256 -271l260 -823q13 -41 56 -66.5t112 -25.5q37 0 84 6v-215q-152 -33 -256 -33q-166 0 -274.5 68.5t-139.5 204.5l-135 573l-178 -188v-410h129v-215h-725v215h160v1180h-160v215zM860 -61h211
l-147 -353h-301z" />
    <glyph glyph-name="kcommaaccent" unicode="&#x137;" horiz-adv-x="1562" 
d="M92 1610h553v-889h8l332 250h-154v205h652v-205h-174l-262 -209l264 -492q35 -69 157 -69q53 0 80 4v-213q-134 -25 -235 -25q-308 0 -389 203l-150 373l-129 -105v-233h160v-205h-713v205h160v1200h-160v205zM760 -61h211l-148 -353h-301z" />
    <glyph glyph-name="Lacute" unicode="&#x139;" horiz-adv-x="1419" 
d="M92 1610h782v-215h-180v-1180h346v309h301v-524h-1249v215h166v1180h-166v215zM668 2030h336l-351 -322h-254z" />
    <glyph glyph-name="lacute" unicode="&#x13a;" horiz-adv-x="876" 
d="M92 1610h553v-1405h160v-205h-713v205h160v1200h-160v205zM467 2030h336l-350 -322h-254z" />
    <glyph glyph-name="Lcommaaccent" unicode="&#x13b;" horiz-adv-x="1419" 
d="M92 1610h782v-215h-180v-1180h346v309h301v-524h-1249v215h166v1180h-166v215zM612 -61h211l-147 -353h-301z" />
    <glyph glyph-name="lcommaaccent" unicode="&#x13c;" horiz-adv-x="876" 
d="M86 1610h553v-1405h160v-205h-713v205h160v1200h-160v205zM287 -61h211l-148 -353h-301z" />
    <glyph glyph-name="Lcaron" unicode="&#x13d;" horiz-adv-x="1353" 
d="M92 1610h782v-215h-180v-1180h346v309h301v-524h-1249v215h166v1180h-166v215zM1098 1610h211l-148 -353h-301z" />
    <glyph glyph-name="lcaron" unicode="&#x13e;" horiz-adv-x="1155" 
d="M92 1610h553v-1405h160v-205h-713v205h160v1200h-160v205zM944 1610h211l-147 -353h-301z" />
    <glyph glyph-name="Ldot" unicode="&#x13f;" horiz-adv-x="1419" 
d="M92 1610h782v-215h-180v-1180h346v309h301v-524h-1249v215h166v1180h-166v215zM838 985h288v-258h-288v258z" />
    <glyph glyph-name="ldot" unicode="&#x140;" horiz-adv-x="1019" 
d="M92 1610h553v-1405h160v-205h-713v205h160v1200h-160v205zM731 985h289v-258h-289v258z" />
    <glyph glyph-name="Lslash" unicode="&#x141;" horiz-adv-x="1439" 
d="M98 1610h783v-215h-181v-402l359 107l67 -170l-426 -125v-590h351v309h297v-524h-1250v215h166v463l-176 -51l-68 168l244 71v529h-166v215z" />
    <glyph glyph-name="lslash" unicode="&#x142;" horiz-adv-x="1028" 
d="M143 1610h557v-611l269 80l59 -170l-328 -96v-608h160v-205h-717v205h160v491l-244 -69l-59 168l303 88v522h-160v205z" />
    <glyph glyph-name="Nacute" unicode="&#x143;" horiz-adv-x="1640" 
d="M92 1610h522l435 -621h8v406h-133v215h661v-215h-158v-1436h-20l-776 965h-8v-709h141v-215h-672v215h160v1180h-160v215zM856 2030h336l-350 -322h-254z" />
    <glyph glyph-name="nacute" unicode="&#x144;" horiz-adv-x="1646" 
d="M92 1176h531v-84h8q203 104 411 104q371 0 371 -305v-686h156v-205h-690v205h137v645q0 46 -30 68t-95 22q-131 0 -246 -63v-672h135v-205h-688v205h160v766h-160v205zM848 1595h336l-350 -321h-254z" />
    <glyph glyph-name="Ncommaaccent" unicode="&#x145;" horiz-adv-x="1640" 
d="M92 1610h522l435 -621h8v406h-133v215h661v-215h-158v-1436h-20l-776 965h-8v-709h141v-215h-672v215h160v1180h-160v215zM823 -61h211l-147 -353h-301z" />
    <glyph glyph-name="ncommaaccent" unicode="&#x146;" horiz-adv-x="1646" 
d="M92 1176h531v-84h8q203 104 411 104q371 0 371 -305v-686h156v-205h-690v205h137v645q0 46 -30 68t-95 22q-131 0 -246 -63v-672h135v-205h-688v205h160v766h-160v205zM713 -61h211l-148 -353h-301z" />
    <glyph glyph-name="Ncaron" unicode="&#x147;" horiz-adv-x="1640" 
d="M92 1610h522l435 -621h8v406h-133v215h661v-215h-158v-1436h-20l-776 965h-8v-709h141v-215h-672v215h160v1180h-160v215zM829 1671h-34l-465 373h248l229 -182h10l230 182h247z" />
    <glyph glyph-name="ncaron" unicode="&#x148;" horiz-adv-x="1646" 
d="M92 1176h531v-84h8q203 104 411 104q371 0 371 -305v-686h156v-205h-690v205h137v645q0 46 -30 68t-95 22q-131 0 -246 -63v-672h135v-205h-688v205h160v766h-160v205zM809 1237h-35l-465 373h248l229 -183h11l229 183h248z" />
    <glyph glyph-name="Eng" unicode="&#x14a;" horiz-adv-x="1640" 
d="M92 1610h522l435 -621h8v406h-133v215h661v-215h-158v-1471q0 -167 -120 -252.5t-330 -85.5q-213 0 -333 67.5t-120 201.5v61h281v-86q0 -24 31 -39.5t82 -15.5q63 0 101 24.5t38 77.5v551l-426 490h-8v-703h141v-215h-672v215h160v1180h-160v215z" />
    <glyph glyph-name="eng" unicode="&#x14b;" horiz-adv-x="1505" 
d="M92 1176h531v-84h8q203 104 411 104q371 0 371 -305v-967q0 -167 -130.5 -252.5t-356.5 -85.5q-200 0 -319.5 68t-119.5 201v61h281v-45q0 -52 29 -74t84 -22q135 0 135 102v973q0 46 -30 68t-95 22q-131 0 -246 -63v-672h123v-205h-676v205h160v766h-160v205z" />
    <glyph glyph-name="Omacron" unicode="&#x14c;" horiz-adv-x="1542" 
d="M770 1642q137 0 251.5 -46.5t194 -127.5t134.5 -191t80.5 -234.5t25.5 -260.5t-25.5 -256.5t-80.5 -223t-134.5 -177t-193.5 -116.5t-252 -42q-137 0 -250.5 42t-193 116.5t-134.5 177t-80.5 223t-25.5 256.5t25.5 261t80.5 234.5t134 190.5t193 127.5t251 46.5z
M770 1421q-116 0 -166.5 -162t-50.5 -477q0 -307 50 -450.5t167 -143.5q118 0 168.5 144t50.5 450q0 154 -12 269.5t-37.5 199.5t-68 127t-101.5 43zM242 1942h1058v-170h-1058v170z" />
    <glyph glyph-name="omacron" unicode="&#x14d;" horiz-adv-x="1372" 
d="M686 1196q149 0 266 -51t188.5 -139t108.5 -198.5t37 -236.5q0 -125 -37 -231t-109 -187t-188 -127t-266 -46t-266 46t-188 127t-109 187t-37 231q0 126 37 236.5t108.5 198.5t188.5 139t266 51zM686 967q-211 0 -211 -394q0 -189 49.5 -276.5t161.5 -87.5q111 0 161 88
t50 276q0 394 -211 394zM160 1507h1059v-170h-1059v170z" />
    <glyph glyph-name="Obreve" unicode="&#x14e;" horiz-adv-x="1542" 
d="M770 1642q137 0 251.5 -46.5t194 -127.5t134.5 -191t80.5 -234.5t25.5 -260.5t-25.5 -256.5t-80.5 -223t-134.5 -177t-193.5 -116.5t-252 -42q-137 0 -250.5 42t-193 116.5t-134.5 177t-80.5 223t-25.5 256.5t25.5 261t80.5 234.5t134 190.5t193 127.5t251 46.5z
M770 1421q-116 0 -166.5 -162t-50.5 -477q0 -307 50 -450.5t167 -143.5q118 0 168.5 144t50.5 450q0 154 -12 269.5t-37.5 199.5t-68 127t-101.5 43zM344 2044h203q15 -112 64.5 -160.5t160.5 -48.5q110 0 157.5 47.5t67.5 161.5h203q-14 -172 -116.5 -254t-311.5 -82
q-210 0 -314.5 82.5t-113.5 253.5z" />
    <glyph glyph-name="obreve" unicode="&#x14f;" horiz-adv-x="1372" 
d="M686 1196q149 0 266 -51t188.5 -139t108.5 -198.5t37 -236.5q0 -125 -37 -231t-109 -187t-188 -127t-266 -46t-266 46t-188 127t-109 187t-37 231q0 126 37 236.5t108.5 198.5t188.5 139t266 51zM686 967q-211 0 -211 -394q0 -189 49.5 -276.5t161.5 -87.5q111 0 161 88
t50 276q0 394 -211 394zM252 1610h203q15 -112 64.5 -160.5t160.5 -48.5q110 0 157.5 47.5t67.5 161.5h203q-14 -172 -116.5 -254t-311.5 -82q-210 0 -314.5 82.5t-113.5 253.5z" />
    <glyph glyph-name="Ohungarumlaut" unicode="&#x150;" horiz-adv-x="1525" 
d="M770 1642q137 0 251.5 -46.5t194 -127.5t134.5 -191t80.5 -234.5t25.5 -260.5t-25.5 -256.5t-80.5 -223t-134.5 -177t-193.5 -116.5t-252 -42q-137 0 -250.5 42t-193 116.5t-134.5 177t-80.5 223t-25.5 256.5t25.5 261t80.5 234.5t134 190.5t193 127.5t251 46.5z
M770 1421q-116 0 -166.5 -162t-50.5 -477q0 -307 50 -450.5t167 -143.5q118 0 168.5 144t50.5 450q0 154 -12 269.5t-37.5 199.5t-68 127t-101.5 43zM995 2030h336l-348 -322h-258zM532 2030h336l-350 -322h-254z" />
    <glyph glyph-name="ohungarumlaut" unicode="&#x151;" horiz-adv-x="1357" 
d="M686 1196q149 0 266 -51t188.5 -139t108.5 -198.5t37 -236.5q0 -125 -37 -231t-109 -187t-188 -127t-266 -46t-266 46t-188 127t-109 187t-37 231q0 126 37 236.5t108.5 198.5t188.5 139t266 51zM686 967q-211 0 -211 -394q0 -189 49.5 -276.5t161.5 -87.5q111 0 161 88
t50 276q0 394 -211 394zM922 1595h335l-348 -321h-258zM459 1595h336l-351 -321h-254z" />
    <glyph glyph-name="OE" unicode="&#x152;" horiz-adv-x="2109" 
d="M831 1610h1174v-461h-297v246h-375v-439h647v-229h-647v-512h381v309h297v-524h-1180q-191 0 -334.5 55t-233 158.5t-133.5 245.5t-44 323q0 145 27.5 269.5t86 228t145 176.5t210.5 113.5t276 40.5zM897 1395h-86q-85 0 -142 -59.5t-88.5 -197t-31.5 -356.5
q0 -164 17 -275.5t52 -175t81.5 -90t111.5 -26.5h86v1180z" />
    <glyph glyph-name="oe" unicode="&#x153;" horiz-adv-x="2148" 
d="M686 1196q255 0 404 -149q152 149 407 149q136 0 244.5 -44t179 -122t107.5 -183t38 -229q0 -54 -2 -81h-780q6 -177 60 -258.5t180 -81.5q96 0 155.5 42.5t59.5 108.5v33h284v-33q0 -114 -73 -199t-191.5 -127t-265.5 -42q-256 0 -403 135q-148 -135 -404 -135
q-150 0 -266 46t-188 127t-109 187t-37 231q0 126 37 236.5t108.5 198.5t188.5 139t266 51zM686 967q-211 0 -211 -394q0 -189 49.5 -276.5t161.5 -87.5q111 0 161 88t50 276q0 394 -211 394zM1487 977q-88 0 -136.5 -57.5t-62.5 -200.5h404q0 132 -53.5 195t-151.5 63z" />
    <glyph glyph-name="Racute" unicode="&#x154;" horiz-adv-x="1738" 
d="M92 1610h660q361 0 538.5 -127t177.5 -342q0 -277 -292 -381l282 -479q46 -74 164 -74q41 0 80 8v-215q-125 -33 -244 -33q-154 0 -253.5 63.5t-172.5 209.5l-235 462h-109v-487h217v-215h-813v215h160v1180h-160v215zM688 1395v-514h86q132 0 195 53.5t63 193.5
q0 141 -64.5 204t-193.5 63h-86zM807 2030h336l-350 -322h-254z" />
    <glyph glyph-name="racute" unicode="&#x155;" horiz-adv-x="1390" 
d="M92 1176h531l4 -105h8q101 64 191.5 94.5t195.5 30.5q169 0 247.5 -77t78.5 -228v-184h-328v157q0 42 -30.5 65t-88.5 23q-62 0 -133.5 -24.5t-122.5 -57.5v-665h193v-205h-746v205h160v766h-160v205zM731 1595h336l-350 -321h-254z" />
    <glyph glyph-name="Rcommaaccent" unicode="&#x156;" horiz-adv-x="1738" 
d="M92 1610h660q361 0 538.5 -127t177.5 -342q0 -277 -292 -381l282 -479q46 -74 164 -74q41 0 80 8v-215q-125 -33 -244 -33q-154 0 -253.5 63.5t-172.5 209.5l-235 462h-109v-487h217v-215h-813v215h160v1180h-160v215zM688 1395v-514h86q132 0 195 53.5t63 193.5
q0 141 -64.5 204t-193.5 63h-86zM877 -61h210l-147 -353h-301z" />
    <glyph glyph-name="rcommaaccent" unicode="&#x157;" horiz-adv-x="1384" 
d="M86 1176h530l5 -105h8q101 64 191.5 94.5t195.5 30.5q169 0 247 -76.5t78 -228.5v-184h-327v157q0 42 -30.5 65t-88.5 23q-62 0 -133.5 -24.5t-122.5 -57.5v-665h192v-205h-745v205h160v766h-160v205zM322 -61h210l-147 -353h-301z" />
    <glyph glyph-name="Rcaron" unicode="&#x158;" horiz-adv-x="1738" 
d="M92 1610h660q361 0 538.5 -127t177.5 -342q0 -277 -292 -381l282 -479q46 -74 164 -74q41 0 80 8v-215q-125 -33 -244 -33q-154 0 -253.5 63.5t-172.5 209.5l-235 462h-109v-487h217v-215h-813v215h160v1180h-160v215zM688 1395v-514h86q132 0 195 53.5t63 193.5
q0 141 -64.5 204t-193.5 63h-86zM791 1671h-35l-465 373h248l229 -182h10l230 182h247z" />
    <glyph glyph-name="rcaron" unicode="&#x159;" horiz-adv-x="1390" 
d="M92 1176h531l4 -105h8q101 64 191.5 94.5t195.5 30.5q169 0 247.5 -77t78.5 -228v-184h-328v157q0 42 -30.5 65t-88.5 23q-62 0 -133.5 -24.5t-122.5 -57.5v-665h193v-205h-746v205h160v766h-160v205zM709 1237h-35l-465 373h248l229 -183h10l230 183h248z" />
    <glyph glyph-name="Sacute" unicode="&#x15a;" horiz-adv-x="1290" 
d="M922 1610h288v-461h-301v127q-51 137 -223 137q-108 0 -163.5 -46t-55.5 -120q0 -64 50.5 -111t197.5 -132q53 -30 82.5 -47t79.5 -48.5t79 -53t70.5 -55t66 -61.5t52.5 -66t43 -74.5t25 -81t10 -91.5q0 -92 -36 -172t-103 -141.5t-171.5 -97t-232.5 -35.5
q-225 0 -326 98h-8v-78h-297v524h297v-141q33 -86 102 -136t162 -50q90 0 151.5 48t61.5 146t-65 167t-193 140q-23 13 -62.5 34t-65 35t-63 36t-62.5 39.5t-56 43.5t-51.5 50t-42 56t-34 65t-20.5 74t-8 86q0 88 29.5 162.5t87 131.5t152 89t217.5 32q239 0 327 -116h9v94z
M670 2030h336l-351 -322h-254z" />
    <glyph glyph-name="sacute" unicode="&#x15b;" horiz-adv-x="1263" 
d="M836 1176h313v-359h-326v70q-25 51 -78.5 79.5t-128.5 28.5q-71 0 -104 -25.5t-33 -66.5q0 -46 43 -75.5t183 -90.5q75 -32 122 -54t103 -51.5t89.5 -53.5t67.5 -56t52 -64.5t29.5 -73t11.5 -87.5q0 -157 -114 -243.5t-321 -86.5q-222 0 -337 101h-13v-68h-321v381h321
v-78q30 -50 92 -84.5t140 -34.5q73 0 119.5 31.5t46.5 93.5q0 30 -14 55.5t-33 43.5t-62.5 41t-77 37t-102.5 42q-62 25 -98.5 40t-85.5 38.5t-76.5 43t-59.5 47.5t-48 57t-27 67t-11 82q0 137 98.5 215t295.5 78q215 0 335 -104h9v84zM674 1595h336l-351 -321h-253z" />
    <glyph glyph-name="Scedilla" unicode="&#x15e;" horiz-adv-x="1290" 
d="M922 1610h288v-461h-301v127q-51 137 -223 137q-108 0 -163.5 -46t-55.5 -120q0 -64 50.5 -111t197.5 -132q53 -30 82.5 -47t79.5 -48.5t79 -53t70.5 -55t66 -61.5t52.5 -66t43 -74.5t25 -81t10 -91.5q0 -92 -36 -172t-103 -141.5t-171.5 -97t-232.5 -35.5
q-225 0 -326 98h-8v-78h-297v524h297v-141q33 -86 102 -136t162 -50q90 0 151.5 48t61.5 146t-65 167t-193 140q-23 13 -62.5 34t-65 35t-63 36t-62.5 39.5t-56 43.5t-51.5 50t-42 56t-34 65t-20.5 74t-8 86q0 88 29.5 162.5t87 131.5t152 89t217.5 32q239 0 327 -116h9v94z
M567 -61h211l-147 -353h-301z" />
    <glyph glyph-name="scedilla" unicode="&#x15f;" horiz-adv-x="1263" 
d="M836 1176h313v-359h-326v70q-25 51 -78.5 79.5t-128.5 28.5q-71 0 -104 -25.5t-33 -66.5q0 -46 43 -75.5t183 -90.5q75 -32 122 -54t103 -51.5t89.5 -53.5t67.5 -56t52 -64.5t29.5 -73t11.5 -87.5q0 -157 -114 -243.5t-321 -86.5q-222 0 -337 101h-13v-68h-321v381h321
v-78q30 -50 92 -84.5t140 -34.5q73 0 119.5 31.5t46.5 93.5q0 30 -14 55.5t-33 43.5t-62.5 41t-77 37t-102.5 42q-62 25 -98.5 40t-85.5 38.5t-76.5 43t-59.5 47.5t-48 57t-27 67t-11 82q0 137 98.5 215t295.5 78q215 0 335 -104h9v84zM532 -61h211l-147 -353h-301z" />
    <glyph glyph-name="Scaron" unicode="&#x160;" horiz-adv-x="1290" 
d="M922 1610h288v-461h-301v127q-51 137 -223 137q-108 0 -163.5 -46t-55.5 -120q0 -64 50.5 -111t197.5 -132q53 -30 82.5 -47t79.5 -48.5t79 -53t70.5 -55t66 -61.5t52.5 -66t43 -74.5t25 -81t10 -91.5q0 -92 -36 -172t-103 -141.5t-171.5 -97t-232.5 -35.5
q-225 0 -326 98h-8v-78h-297v524h297v-141q33 -86 102 -136t162 -50q90 0 151.5 48t61.5 146t-65 167t-193 140q-23 13 -62.5 34t-65 35t-63 36t-62.5 39.5t-56 43.5t-51.5 50t-42 56t-34 65t-20.5 74t-8 86q0 88 29.5 162.5t87 131.5t152 89t217.5 32q239 0 327 -116h9v94z
M678 1671h-35l-465 373h248l229 -182h11l229 182h248z" />
    <glyph glyph-name="scaron" unicode="&#x161;" horiz-adv-x="1263" 
d="M836 1176h313v-359h-326v70q-25 51 -78.5 79.5t-128.5 28.5q-71 0 -104 -25.5t-33 -66.5q0 -46 43 -75.5t183 -90.5q75 -32 122 -54t103 -51.5t89.5 -53.5t67.5 -56t52 -64.5t29.5 -73t11.5 -87.5q0 -157 -114 -243.5t-321 -86.5q-222 0 -337 101h-13v-68h-321v381h321
v-78q30 -50 92 -84.5t140 -34.5q73 0 119.5 31.5t46.5 93.5q0 30 -14 55.5t-33 43.5t-62.5 41t-77 37t-102.5 42q-62 25 -98.5 40t-85.5 38.5t-76.5 43t-59.5 47.5t-48 57t-27 67t-11 82q0 137 98.5 215t295.5 78q215 0 335 -104h9v84zM647 1237h-35l-465 373h248l230 -183
h10l229 183h248z" />
    <glyph glyph-name="Tcedilla" unicode="&#x162;" horiz-adv-x="1560" 
d="M49 1610h1462v-461h-301v246h-213v-1180h207v-215h-850v215h207v1180h-215v-246h-297v461zM686 -61h211l-147 -353h-301z" />
    <glyph glyph-name="tcedilla" unicode="&#x163;" horiz-adv-x="972" 
d="M240 1473h393v-297h307v-205h-307v-670q0 -50 40.5 -77t112.5 -27q66 0 82 8v-213q-131 -25 -227 -25q-89 0 -159 17.5t-126 55.5t-86 104t-30 157v670h-197v205h197v297zM424 -61h211l-148 -353h-301z" />
    <glyph glyph-name="Tcaron" unicode="&#x164;" horiz-adv-x="1560" 
d="M49 1610h1462v-461h-301v246h-213v-1180h207v-215h-850v215h207v1180h-215v-246h-297v461zM805 1671h-35l-465 373h248l229 -182h11l229 182h248z" />
    <glyph glyph-name="tcaron" unicode="&#x165;" horiz-adv-x="1198" 
d="M240 1473h393v-297h307v-205h-307v-670q0 -50 40.5 -77t112.5 -27q66 0 82 8v-213q-131 -25 -227 -25q-89 0 -159 17.5t-126 55.5t-86 104t-30 157v670h-197v205h197v297zM987 1610h211l-147 -353h-301z" />
    <glyph glyph-name="Tbar" unicode="&#x166;" horiz-adv-x="1560" 
d="M256 877h305v518h-215v-246h-297v461h1462v-461h-301v246h-213v-518h318v-170h-318v-492h207v-215h-850v215h207v492h-305v170z" />
    <glyph glyph-name="tbar" unicode="&#x167;" horiz-adv-x="1058" 
d="M0 705h313v266h-196v205h196v297h394v-297h307v-205h-307v-266h352v-170h-352v-234q0 -50 40.5 -77t112.5 -27q66 0 82 8v-213q-131 -25 -227 -25q-89 0 -159.5 17.5t-126 55.5t-86 104t-30.5 157v234h-313v170z" />
    <glyph glyph-name="Utilde" unicode="&#x168;" horiz-adv-x="1683" 
d="M61 1610h719v-215h-129v-920q0 -153 41 -226t152 -73q110 0 152 73.5t42 225.5v920h-147v215h731v-215h-178v-922q0 -87 -19 -160t-63.5 -138t-114 -110.5t-175.5 -71.5t-243 -26t-243 26t-175 71.5t-114 110.5t-63.5 138t-18.5 160v922h-154v215zM342 1749v80
q0 89 62 136.5t186 47.5q91 0 148.5 -24.5t129.5 -77.5q60 -44 97 -61t90 -17q112 0 112 68v57h164v-80q0 -184 -250 -184q-96 0 -159 26t-131 76q-42 31 -62.5 44.5t-52 24.5t-66.5 11q-106 0 -106 -72v-55h-162z" />
    <glyph glyph-name="utilde" unicode="&#x169;" horiz-adv-x="1605" 
d="M51 1176h551v-850q0 -46 30.5 -68t96.5 -22q130 0 248 63v672h-158v205h551v-971h160v-205h-535v84q-194 -104 -415 -104q-191 0 -281 76.5t-90 228.5v686h-158v205zM240 1315v80q0 184 247 184q91 0 149 -24.5t130 -77.5q61 -45 97 -61.5t89 -16.5q113 0 113 67v58h164
v-80q0 -184 -250 -184q-96 0 -160 26t-131 76q-43 32 -62.5 45t-51 24t-66.5 11q-107 0 -107 -72v-55h-161z" />
    <glyph glyph-name="Umacron" unicode="&#x16a;" horiz-adv-x="1683" 
d="M61 1610h719v-215h-129v-920q0 -153 41 -226t152 -73q110 0 152 73.5t42 225.5v920h-147v215h731v-215h-178v-922q0 -87 -19 -160t-63.5 -138t-114 -110.5t-175.5 -71.5t-243 -26t-243 26t-175 71.5t-114 110.5t-63.5 138t-18.5 160v922h-154v215zM311 1942h1059v-170
h-1059v170z" />
    <glyph glyph-name="umacron" unicode="&#x16b;" horiz-adv-x="1605" 
d="M51 1176h551v-850q0 -46 30.5 -68t96.5 -22q130 0 248 63v672h-158v205h551v-971h160v-205h-535v84q-194 -104 -415 -104q-191 0 -281 76.5t-90 228.5v686h-158v205zM262 1507h1059v-170h-1059v170z" />
    <glyph glyph-name="Ubreve" unicode="&#x16c;" horiz-adv-x="1683" 
d="M61 1610h719v-215h-129v-920q0 -153 41 -226t152 -73q110 0 152 73.5t42 225.5v920h-147v215h731v-215h-178v-922q0 -87 -19 -160t-63.5 -138t-114 -110.5t-175.5 -71.5t-243 -26t-243 26t-175 71.5t-114 110.5t-63.5 138t-18.5 160v922h-154v215zM406 2044h202
q15 -112 65 -160.5t161 -48.5q110 0 157.5 47.5t67.5 161.5h203q-14 -172 -116.5 -254t-311.5 -82q-210 0 -314.5 82.5t-113.5 253.5z" />
    <glyph glyph-name="ubreve" unicode="&#x16d;" horiz-adv-x="1605" 
d="M51 1176h551v-850q0 -46 30.5 -68t96.5 -22q130 0 248 63v672h-158v205h551v-971h160v-205h-535v84q-194 -104 -415 -104q-191 0 -281 76.5t-90 228.5v686h-158v205zM315 1610h203q15 -112 64.5 -160.5t160.5 -48.5q110 0 158 48t68 161h202q-14 -172 -116.5 -254
t-311.5 -82q-210 0 -314.5 82.5t-113.5 253.5z" />
    <glyph glyph-name="Uring" unicode="&#x16e;" horiz-adv-x="1683" 
d="M61 1610h719v-215h-129v-920q0 -153 41 -226t152 -73q110 0 152 73.5t42 225.5v920h-147v215h731v-215h-178v-922q0 -87 -19 -160t-63.5 -138t-114 -110.5t-175.5 -71.5t-243 -26t-243 26t-175 71.5t-114 110.5t-63.5 138t-18.5 160v922h-154v215zM610 1845
q0 84 66 141.5t162 57.5q95 0 162 -58t67 -141q0 -84 -66.5 -140t-162.5 -56q-97 0 -162.5 56t-65.5 140zM838 1968q-51 0 -85 -36t-34 -89q0 -52 34 -85.5t85 -33.5q50 0 84 33.5t34 85.5t-34 88.5t-84 36.5z" />
    <glyph glyph-name="uring" unicode="&#x16f;" horiz-adv-x="1605" 
d="M51 1176h551v-850q0 -46 30.5 -68t96.5 -22q130 0 248 63v672h-158v205h551v-971h160v-205h-535v84q-194 -104 -415 -104q-191 0 -281 76.5t-90 228.5v686h-158v205zM518 1452q0 84 65.5 141.5t161.5 57.5q95 0 162.5 -58t67.5 -141q0 -84 -67 -140.5t-163 -56.5
q-97 0 -162 56t-65 141zM745 1575q-51 0 -84.5 -36t-33.5 -89q0 -52 33.5 -85.5t84.5 -33.5q50 0 84.5 33.5t34.5 85.5t-34.5 88.5t-84.5 36.5z" />
    <glyph glyph-name="Uhungarumlaut" unicode="&#x170;" horiz-adv-x="1683" 
d="M61 1610h719v-215h-129v-920q0 -153 41 -226t152 -73q110 0 152 73.5t42 225.5v920h-147v215h731v-215h-178v-922q0 -87 -19 -160t-63.5 -138t-114 -110.5t-175.5 -71.5t-243 -26t-243 26t-175 71.5t-114 110.5t-63.5 138t-18.5 160v922h-154v215zM1116 2030h336
l-348 -322h-258zM653 2030h336l-350 -322h-254z" />
    <glyph glyph-name="uhungarumlaut" unicode="&#x171;" horiz-adv-x="1587" 
d="M51 1176h551v-850q0 -46 30.5 -68t96.5 -22q130 0 248 63v672h-158v205h551v-971h160v-205h-535v84q-194 -104 -415 -104q-191 0 -281 76.5t-90 228.5v686h-158v205zM1034 1595h336l-348 -321h-258zM571 1595h336l-350 -321h-254z" />
    <glyph glyph-name="Uogonek" unicode="&#x172;" horiz-adv-x="1683" 
d="M61 1610h719v-215h-129v-920q0 -153 41 -226t152 -73q110 0 152 73.5t42 225.5v920h-147v215h731v-215h-178v-922q0 -85 -18 -156.5t-60.5 -136t-108 -110t-166 -73t-229.5 -30.5q-105 -31 -158 -71.5t-53 -79.5q0 -70 178 -70q107 0 156 25t49 77v15h223v-27
q0 -117 -116.5 -183.5t-339.5 -66.5q-187 0 -283 46t-96 118q0 66 78.5 126.5t216.5 96.5q-111 10 -197.5 40.5t-143 76t-93.5 107t-52.5 129t-15.5 147.5v922h-154v215z" />
    <glyph glyph-name="uogonek" unicode="&#x173;" horiz-adv-x="1605" 
d="M1135 0h-140v84q-194 -104 -415 -104q-191 0 -281 76.5t-90 228.5v686h-158v205h551v-850q0 -46 30.5 -68t96.5 -22q130 0 248 63v672h-158v205h551v-971h160v-205h-250q-178 -29 -269 -80.5t-91 -103.5q0 -70 178 -70q107 0 156 25t49 77v15h223v-27q0 -117 -117 -183.5
t-340 -66.5q-187 0 -283 46t-96 118q0 83 120.5 154t324.5 96z" />
    <glyph glyph-name="Wcircumflex" unicode="&#x174;" horiz-adv-x="2111" 
d="M55 1610h637v-215h-121l119 -607h6l357 607h18l352 -607h7l129 607h-140v215h637v-215h-127l-338 -1436h-20l-510 823h-6l-506 -823h-21l-346 1436h-127v215zM1044 2044h35l465 -373h-248l-229 182h-10l-230 -182h-247z" />
    <glyph glyph-name="wcircumflex" unicode="&#x175;" horiz-adv-x="2031" 
d="M39 1176h610v-205h-137l139 -357h13l344 582h28l344 -582h11l155 357h-137v205h584v-205h-115l-432 -1004h-25l-407 711h-10l-416 -711h-27l-418 1004h-104v205zM1004 1610h34l465 -373h-248l-229 182h-10l-230 -182h-247z" />
    <glyph glyph-name="Ycircumflex" unicode="&#x176;" horiz-adv-x="1652" 
d="M55 1610h703v-215h-144l217 -363h9l223 363h-139v215h673v-215h-165l-392 -609v-571h166v-215h-768v215h166v555l-389 625h-160v215zM811 2044h35l465 -373h-248l-229 182h-11l-229 -182h-248z" />
    <glyph glyph-name="ycircumflex" unicode="&#x177;" horiz-adv-x="1589" 
d="M39 1176h719v-205h-187l230 -439h8l242 439h-160v205h657v-205h-133l-610 -1123q-76 -139 -189.5 -200.5t-287.5 -61.5q-87 0 -187 19v205q68 -11 105 -11q186 0 264 148l123 233l-467 791h-127v205zM807 1610h35l465 -373h-248l-230 182h-10l-229 -182h-248z" />
    <glyph glyph-name="Ydieresis" unicode="&#x178;" horiz-adv-x="1652" 
d="M55 1610h703v-215h-144l217 -363h9l223 363h-139v215h673v-215h-165l-392 -609v-571h166v-215h-768v215h166v555l-389 625h-160v215zM438 2044h289v-258h-289v258zM944 2044h289v-258h-289v258z" />
    <glyph glyph-name="Zacute" unicode="&#x179;" horiz-adv-x="1390" 
d="M92 1610h1217v-21l-717 -1374h393v309h301v-524h-1235v20l723 1375h-385v-246h-297v461zM741 2030h336l-350 -322h-254z" />
    <glyph glyph-name="zacute" unicode="&#x17a;" horiz-adv-x="1323" 
d="M92 1176h1161v-21l-680 -956h342v182h316v-381h-1176v20l697 959h-340v-162h-320v359zM715 1595h336l-351 -321h-254z" />
    <glyph glyph-name="Zdotaccent" unicode="&#x17b;" horiz-adv-x="1390" 
d="M92 1610h1217v-21l-717 -1374h393v309h301v-524h-1235v20l723 1375h-385v-246h-297v461zM567 2044h289v-258h-289v258z" />
    <glyph glyph-name="zdotaccent" unicode="&#x17c;" horiz-adv-x="1323" 
d="M92 1176h1161v-21l-680 -956h342v182h316v-381h-1176v20l697 959h-340v-162h-320v359zM528 1610h289v-258h-289v258z" />
    <glyph glyph-name="Zcaron" unicode="&#x17d;" horiz-adv-x="1390" 
d="M92 1610h1217v-21l-717 -1374h393v309h301v-524h-1235v20l723 1375h-385v-246h-297v461zM705 1671h-35l-465 373h248l229 -182h10l230 182h247z" />
    <glyph glyph-name="zcaron" unicode="&#x17e;" horiz-adv-x="1323" 
d="M92 1176h1161v-21l-680 -956h342v182h316v-381h-1176v20l697 959h-340v-162h-320v359zM684 1237h-35l-465 373h248l230 -183h10l229 183h248z" />
    <glyph glyph-name="florin" unicode="&#x192;" horiz-adv-x="1480" 
d="M88 1124h379v179q0 168 131 260t352 92q198 0 318.5 -73.5t120.5 -207.5v-61h-281v53q0 86 -113 86q-61 0 -98 -24t-37 -76v-228h426v-153h-426v-1047q0 -167 -128 -252.5t-353 -85.5q-200 0 -319 68t-119 201v61h280v-61q0 -80 111 -80q61 0 98 24.5t37 77.5v1094h-379
v153z" />
    <glyph glyph-name="Scommaaccent" unicode="&#x218;" horiz-adv-x="1290" 
d="M922 1610h288v-461h-301v127q-51 137 -223 137q-108 0 -163.5 -46t-55.5 -120q0 -64 50.5 -111t197.5 -132q53 -30 82.5 -47t79.5 -48.5t79 -53t70.5 -55t66 -61.5t52.5 -66t43 -74.5t25 -81t10 -91.5q0 -92 -36 -172t-103 -141.5t-171.5 -97t-232.5 -35.5
q-225 0 -326 98h-8v-78h-297v524h297v-141q33 -86 102 -136t162 -50q90 0 151.5 48t61.5 146t-65 167t-193 140q-23 13 -62.5 34t-65 35t-63 36t-62.5 39.5t-56 43.5t-51.5 50t-42 56t-34 65t-20.5 74t-8 86q0 88 29.5 162.5t87 131.5t152 89t217.5 32q239 0 327 -116h9v94z
M567 -61h211l-147 -353h-301z" />
    <glyph glyph-name="scommaaccent" unicode="&#x219;" horiz-adv-x="1263" 
d="M836 1176h313v-359h-326v70q-25 51 -78.5 79.5t-128.5 28.5q-71 0 -104 -25.5t-33 -66.5q0 -46 43 -75.5t183 -90.5q75 -32 122 -54t103 -51.5t89.5 -53.5t67.5 -56t52 -64.5t29.5 -73t11.5 -87.5q0 -157 -114 -243.5t-321 -86.5q-222 0 -337 101h-13v-68h-321v381h321
v-78q30 -50 92 -84.5t140 -34.5q73 0 119.5 31.5t46.5 93.5q0 30 -14 55.5t-33 43.5t-62.5 41t-77 37t-102.5 42q-62 25 -98.5 40t-85.5 38.5t-76.5 43t-59.5 47.5t-48 57t-27 67t-11 82q0 137 98.5 215t295.5 78q215 0 335 -104h9v84zM551 -61h211l-148 -353h-301z" />
    <glyph glyph-name="uni021A" unicode="&#x21a;" horiz-adv-x="1560" 
d="M49 1610h1462v-461h-301v246h-213v-1180h207v-215h-850v215h207v1180h-215v-246h-297v461zM662 -61h210l-147 -353h-301z" />
    <glyph glyph-name="uni021B" unicode="&#x21b;" horiz-adv-x="972" 
d="M240 1473h393v-297h307v-205h-307v-670q0 -50 40.5 -77t112.5 -27q66 0 82 8v-213q-131 -25 -227 -25q-89 0 -159 17.5t-126 55.5t-86 104t-30 157v670h-197v205h197v297zM446 -61h211l-147 -353h-301z" />
    <glyph glyph-name="circumflex" unicode="&#x2c6;" horiz-adv-x="1148" 
d="M557 1610h35l465 -373h-248l-229 182h-11l-229 -182h-248z" />
    <glyph glyph-name="caron" unicode="&#x2c7;" horiz-adv-x="1148" 
d="M592 1237h-35l-465 373h248l229 -183h11l229 183h248z" />
    <glyph glyph-name="breve" unicode="&#x2d8;" horiz-adv-x="1040" 
d="M92 1610h203q15 -112 64.5 -160.5t160.5 -48.5q110 0 157.5 47.5t67.5 161.5h203q-14 -172 -116.5 -254t-311.5 -82q-210 0 -314.5 82.5t-113.5 253.5z" />
    <glyph glyph-name="dotaccent" unicode="&#x2d9;" horiz-adv-x="473" 
d="M92 1610h289v-258h-289v258z" />
    <glyph glyph-name="ring" unicode="&#x2da;" horiz-adv-x="641" 
d="M92 1411q0 84 65.5 141.5t161.5 57.5q95 0 162.5 -58t67.5 -141q0 -84 -67 -140.5t-163 -56.5q-97 0 -162 56t-65 141zM319 1534q-51 0 -84.5 -36t-33.5 -89q0 -52 33.5 -85.5t84.5 -33.5q50 0 84.5 33.5t34.5 85.5t-34.5 88.5t-84.5 36.5z" />
    <glyph glyph-name="ogonek" unicode="&#x2db;" horiz-adv-x="1019" 
d="M537 0h145q-178 -29 -269 -80.5t-91 -103.5q0 -70 178 -70q107 0 156 25t49 77v15h223v-27q0 -117 -117 -183.5t-340 -66.5q-187 0 -283 46t-96 118q0 83 120.5 154t324.5 96z" />
    <glyph glyph-name="tilde" unicode="&#x2dc;" horiz-adv-x="1173" 
d="M92 1315v80q0 89 62 136.5t186 47.5q91 0 148.5 -24.5t129.5 -77.5q60 -44 97 -61t90 -17q113 0 113 67v58h163v-80q0 -184 -250 -184q-96 0 -159 26t-131 76q-42 31 -62.5 44.5t-52 24.5t-66.5 11q-106 0 -106 -72v-55h-162z" />
    <glyph glyph-name="hungarumlaut" unicode="&#x2dd;" horiz-adv-x="1226" 
d="M811 1595h336l-348 -321h-258zM348 1595h336l-350 -321h-254z" />
    <glyph glyph-name="Delta" unicode="&#x394;" horiz-adv-x="1501" 
d="M750 1651h20l676 -1651h-1391zM696 930l-297 -715h553l-247 715h-9z" />
    <glyph glyph-name="Omega" unicode="&#x3a9;" horiz-adv-x="1474" 
d="M117 215h346v104q-371 141 -371 670q0 150 31 263.5t85.5 187t137 119.5t177.5 64.5t214 18.5t214 -18.5t177.5 -64.5t137 -119t85.5 -186.5t31 -262.5q0 -529 -372 -672v-104h348v-215h-551v371q64 36 96.5 180.5t32.5 359.5q0 142 -14 242.5t-41 158t-62.5 83.5
t-81.5 26t-81.5 -26t-63 -83t-41.5 -157t-14 -240q0 -208 32 -357t97 -187v-371h-549v215z" />
    <glyph glyph-name="mu" unicode="&#x3bc;" horiz-adv-x="1605" 
d="M51 1176h551v-850q0 -46 30.5 -68t96.5 -22q130 0 248 63v672h-158v205h551v-971h160v-205h-535v84q-194 -104 -362 -104q-77 0 -109 12l80 -385h-395v1364h-158v205z" />
    <glyph glyph-name="pi" unicode="&#x3c0;" horiz-adv-x="1734" 
d="M92 1176h1487v-205h-172v-670q0 -50 42 -77t118 -27q51 0 75 8v-213q-131 -25 -229 -25q-88 0 -158 17.5t-125.5 55.5t-85.5 104t-30 157v670h-369v-766h160v-205h-713v205h160v766h-160v205z" />
    <glyph glyph-name="Wgrave" unicode="&#x1e80;" horiz-adv-x="2111" 
d="M55 1610h637v-215h-121l119 -607h6l357 607h18l352 -607h7l129 607h-140v215h637v-215h-127l-338 -1436h-20l-510 823h-6l-506 -823h-21l-346 1436h-127v215zM700 2030h334l271 -322h-256z" />
    <glyph glyph-name="wgrave" unicode="&#x1e81;" horiz-adv-x="2031" 
d="M39 1176h610v-205h-137l139 -357h13l344 582h28l344 -582h11l155 357h-137v205h584v-205h-115l-432 -1004h-25l-407 711h-10l-416 -711h-27l-418 1004h-104v205zM664 1595h333l271 -321h-256z" />
    <glyph glyph-name="Wacute" unicode="&#x1e82;" horiz-adv-x="2111" 
d="M55 1610h637v-215h-121l119 -607h6l357 607h18l352 -607h7l129 607h-140v215h637v-215h-127l-338 -1436h-20l-510 823h-6l-506 -823h-21l-346 1436h-127v215zM1090 2030h335l-350 -322h-254z" />
    <glyph glyph-name="wacute" unicode="&#x1e83;" horiz-adv-x="2031" 
d="M39 1176h610v-205h-137l139 -357h13l344 582h28l344 -582h11l155 357h-137v205h584v-205h-115l-432 -1004h-25l-407 711h-10l-416 -711h-27l-418 1004h-104v205zM1051 1595h335l-350 -321h-254z" />
    <glyph glyph-name="Wdieresis" unicode="&#x1e84;" horiz-adv-x="2111" 
d="M55 1610h637v-215h-121l119 -607h6l357 607h18l352 -607h7l129 607h-140v215h637v-215h-127l-338 -1436h-20l-510 823h-6l-506 -823h-21l-346 1436h-127v215zM666 2044h288v-258h-288v258zM1171 2044h289v-258h-289v258z" />
    <glyph glyph-name="wdieresis" unicode="&#x1e85;" horiz-adv-x="2031" 
d="M39 1176h610v-205h-137l139 -357h13l344 582h28l344 -582h11l155 357h-137v205h584v-205h-115l-432 -1004h-25l-407 711h-10l-416 -711h-27l-418 1004h-104v205zM627 1610h288v-258h-288v258zM1133 1610h288v-258h-288v258z" />
    <glyph glyph-name="Ygrave" unicode="&#x1ef2;" horiz-adv-x="1652" 
d="M55 1610h703v-215h-144l217 -363h9l223 363h-139v215h673v-215h-165l-392 -609v-571h166v-215h-768v215h166v555l-389 625h-160v215zM473 2030h334l270 -322h-256z" />
    <glyph glyph-name="ygrave" unicode="&#x1ef3;" horiz-adv-x="1589" 
d="M39 1176h719v-205h-187l230 -439h8l242 439h-160v205h657v-205h-133l-610 -1123q-76 -139 -189.5 -200.5t-287.5 -61.5q-87 0 -187 19v205q68 -11 105 -11q186 0 264 148l123 233l-467 791h-127v205zM463 1595h334l270 -321h-256z" />
    <glyph glyph-name="endash" unicode="&#x2013;" horiz-adv-x="1470" 
d="M92 874h1286v-229h-1286v229z" />
    <glyph glyph-name="emdash" unicode="&#x2014;" horiz-adv-x="2269" 
d="M61 874h2147v-229h-2147v229z" />
    <glyph glyph-name="quoteleft" unicode="&#x2018;" horiz-adv-x="450" 
d="M195 1610h194v-656h-342z" />
    <glyph glyph-name="quoteright" unicode="&#x2019;" horiz-adv-x="450" 
d="M61 1610h340l-147 -656h-193v656z" />
    <glyph glyph-name="quotesinglbase" unicode="&#x201a;" horiz-adv-x="450" 
d="M61 319h340l-147 -655h-193v655z" />
    <glyph glyph-name="quotedblleft" unicode="&#x201c;" horiz-adv-x="862" 
d="M195 1610h194v-656h-342zM606 1610h195v-656h-342z" />
    <glyph glyph-name="quotedblright" unicode="&#x201d;" horiz-adv-x="862" 
d="M61 1610h340l-147 -656h-193v656zM473 1610h340l-147 -656h-193v656z" />
    <glyph glyph-name="quotedblbase" unicode="&#x201e;" horiz-adv-x="862" 
d="M61 319h340l-147 -655h-193v655zM473 319h340l-147 -655h-193v655z" />
    <glyph glyph-name="dagger" unicode="&#x2020;" horiz-adv-x="1019" 
d="M399 1610h219l-14 -375l330 59v-219l-336 58l-49 -1133h-82l-49 1130l-332 -55v219l330 -57z" />
    <glyph glyph-name="daggerdbl" unicode="&#x2021;" horiz-adv-x="1019" 
d="M399 1610h219l-14 -375l330 59v-219l-340 58l-19 -328l19 -328l340 58v-220l-330 60l14 -375h-219l17 373l-330 -58v220l336 -56l16 326l-16 325l-336 -55v219l330 -57z" />
    <glyph glyph-name="bullet" unicode="&#x2022;" horiz-adv-x="712" 
d="M356 1090q131 0 201 -85.5t70 -211.5q0 -125 -69.5 -204t-201.5 -79t-201 79t-69 204q0 126 69.5 211.5t200.5 85.5z" />
    <glyph glyph-name="ellipsis" unicode="&#x2026;" horiz-adv-x="2117" 
d="M895 319h328v-319h-328v319zM1610 319h327v-319h-327v319zM180 319h328v-319h-328v319z" />
    <glyph glyph-name="perthousand" unicode="&#x2030;" horiz-adv-x="2095" 
d="M1321 1610h207l-1299 -1610h-209zM1167 905q153 0 215 -106.5t62 -356.5q0 -248 -62 -354t-215 -106t-215.5 106t-62.5 354q0 249 62.5 356t215.5 107zM1167 780q-59 0 -72.5 -58t-13.5 -280q0 -220 13.5 -278t72.5 -58q21 0 34.5 4.5t24 20.5t16 37t8.5 63t4 88t1 123
t-1 124t-4 89t-8.5 63t-16 37t-24 20.5t-34.5 4.5zM1788 905q153 0 214.5 -106.5t61.5 -356.5q0 -248 -61.5 -354t-214.5 -106t-216 106t-63 354q0 249 63 356t216 107zM1788 780q-59 0 -72.5 -58t-13.5 -280q0 -220 13.5 -278t72.5 -58q21 0 34.5 4.5t24 20.5t16 37t8.5 63
t4 88t1 123t-1 124t-4 89t-8.5 63t-16 37t-24 20.5t-34.5 4.5zM375 1630q153 0 214.5 -106.5t61.5 -356.5q0 -248 -61.5 -354t-214.5 -106t-216 106t-63 354q0 249 63 356t216 107zM375 1505q-59 0 -72.5 -58t-13.5 -280q0 -220 13.5 -278t72.5 -58q21 0 34.5 4.5t24 20.5
t16 37t8.5 63t4 88t1 123t-1 124t-4 89t-8.5 63t-16 37t-24 20.5t-34.5 4.5z" />
    <glyph glyph-name="guilsinglleft" unicode="&#x2039;" horiz-adv-x="700" 
d="M393 1176h277l-369 -590l369 -586h-277l-362 586z" />
    <glyph glyph-name="guilsinglright" unicode="&#x203a;" horiz-adv-x="700" 
d="M31 1176h276l363 -590l-363 -586h-276l368 586z" />
    <glyph glyph-name="fraction" unicode="&#x2044;" horiz-adv-x="360" 
d="M727 1610h207l-1299 -1610h-208z" />
    <glyph glyph-name="zerosuperior" unicode="&#x2070;" 
d="M344 1630q153 0 215 -106.5t62 -356.5q0 -248 -62 -354t-215 -106t-215.5 106t-62.5 354q0 249 62.5 356t215.5 107zM344 1505q-59 0 -72.5 -58t-13.5 -280q0 -220 13.5 -278t72.5 -58q21 0 34.5 4.5t24 20.5t16 37t8.5 63t4 88t1 123t-1 124t-4 89t-8.5 63t-16 37
t-24 20.5t-34.5 4.5z" />
    <glyph glyph-name="foursuperior" unicode="&#x2074;" 
d="M563 1632h17v-588h100v-96h-100v-223h-197v223h-358v10zM379 1231l-158 -187h162v187h-4z" />
    <glyph glyph-name="fivesuperior" unicode="&#x2075;" 
d="M154 1610h432v-125h-277l-26 -189q46 17 82 17q115 0 177 -89t62 -223t-67.5 -214t-200.5 -80q-115 0 -183.5 61.5t-68.5 175.5v31h127v-31q0 -115 96 -115q50 0 75.5 36.5t25.5 133.5q0 100 -31.5 154.5t-108.5 54.5q-80 0 -164 -39l-10 13z" />
    <glyph glyph-name="sixsuperior" unicode="&#x2076;" 
d="M256 1251h2q64 39 141 39q55 0 96.5 -18.5t65.5 -46t39 -66.5t20 -74t5 -73q0 -66 -16 -119.5t-49 -96t-90 -66t-134 -23.5q-67 0 -115 18.5t-78.5 51t-48.5 86t-24.5 114.5t-6.5 145q0 258 66.5 382t224.5 124q114 0 178 -61t64 -176v-31h-117v31q0 59 -27 82.5
t-81 23.5q-44 0 -65.5 -18.5t-33 -69.5t-16.5 -158zM258 1145v-66q0 -150 15.5 -195.5t70.5 -45.5q53 0 70.5 37t17.5 143q0 89 -15.5 126.5t-64.5 37.5q-61 0 -94 -37z" />
    <glyph glyph-name="sevensuperior" unicode="&#x2077;" 
d="M84 1610h520v-11q-188 -454 -233 -874h-213q64 380 245 760h-319v125z" />
    <glyph glyph-name="eightsuperior" unicode="&#x2078;" 
d="M246 1182q-67 64 -95 114t-28 113q0 103 67 161t175 58q110 0 171.5 -55.5t61.5 -140.5q0 -118 -133 -209q90 -74 124 -132t34 -128q0 -118 -75 -184t-200 -66q-120 0 -195 58.5t-75 160.5q0 140 168 250zM315 1112q-71 -58 -71 -160q0 -58 20 -84t70 -26q38 0 60 19.5
t22 74.5q0 51 -22.5 87t-78.5 89zM397 1282q36 33 47 61.5t11 63.5q0 47 -13.5 67.5t-54.5 20.5q-39 0 -56.5 -19t-17.5 -63q0 -30 16 -57.5t68 -73.5z" />
    <glyph glyph-name="ninesuperior" unicode="&#x2079;" 
d="M432 1083h-6q-62 -36 -137 -36q-68 0 -115 25.5t-70 69t-32 86.5t-9 93q0 138 68.5 222.5t216.5 84.5q138 0 207.5 -84t69.5 -268q0 -318 -197 -551h-221q59 24 139 148t86 210zM430 1188v67q0 151 -16 197.5t-72 46.5q-52 0 -69 -37t-17 -147q0 -92 15.5 -125t68.5 -33
q63 0 90 31z" />
    <glyph glyph-name="zeroinferior" unicode="&#x2080;" 
d="M344 905q153 0 215 -106.5t62 -356.5q0 -248 -62 -354t-215 -106t-215.5 106t-62.5 354q0 249 62.5 356t215.5 107zM344 780q-59 0 -72.5 -58t-13.5 -280q0 -220 13.5 -278t72.5 -58q21 0 34.5 4.5t24 20.5t16 37t8.5 63t4 88t1 123t-1 124t-4 89t-8.5 63t-16 37
t-24 20.5t-34.5 4.5z" />
    <glyph glyph-name="oneinferior" unicode="&#x2081;" horiz-adv-x="673" 
d="M336 885h158v-885h-213v651h-103v117h47q47 0 77.5 30.5t33.5 86.5z" />
    <glyph glyph-name="twoinferior" unicode="&#x2082;" 
d="M100 635v31q0 116 64.5 176.5t183.5 60.5q129 0 190.5 -68t61.5 -176q0 -82 -36.5 -137t-133.5 -143q-123 -113 -147.5 -145.5t-24.5 -86.5v-10h346v-137h-520v119q0 105 39 174.5t153 171.5q98 87 121 119t23 78q0 55 -19 82.5t-73 27.5q-51 0 -76 -27t-25 -88v-22h-127
z" />
    <glyph glyph-name="threeinferior" unicode="&#x2083;" 
d="M100 635v31q0 116 64 176.5t182 60.5q128 0 187 -67t59 -174q0 -140 -109 -195q131 -51 131 -213q0 -117 -69 -194.5t-201 -77.5q-115 0 -182.5 61t-67.5 176v31h131v-31q0 -58 21 -82t67 -24q57 0 81 34.5t24 116.5q0 75 -21 103t-75 28h-115v135h115q57 0 76.5 23.5
t19.5 93.5q0 72 -20 98.5t-76 26.5q-53 0 -74 -22.5t-21 -83.5v-31h-127z" />
    <glyph glyph-name="fourinferior" unicode="&#x2084;" 
d="M563 907h17v-588h100v-96h-100v-223h-197v223h-358v10zM379 506l-158 -187h162v187h-4z" />
    <glyph glyph-name="fiveinferior" unicode="&#x2085;" 
d="M154 885h432v-125h-277l-26 -189q46 17 82 17q115 0 177 -89t62 -223t-67.5 -214t-200.5 -80q-115 0 -183.5 61.5t-68.5 175.5v31h127v-31q0 -115 96 -115q50 0 75.5 36.5t25.5 133.5q0 100 -31.5 154.5t-108.5 54.5q-80 0 -164 -39l-10 13z" />
    <glyph glyph-name="sixinferior" unicode="&#x2086;" 
d="M256 526h2q64 39 141 39q55 0 96.5 -18.5t65.5 -46t39 -66.5t20 -74t5 -73q0 -66 -16 -119.5t-49 -96t-90 -66t-134 -23.5q-67 0 -115 18.5t-78.5 51t-48.5 86t-24.5 114.5t-6.5 145q0 258 66.5 382t224.5 124q114 0 178 -61t64 -176v-31h-117v31q0 59 -27 82.5t-81 23.5
q-44 0 -65.5 -18.5t-33 -69.5t-16.5 -158zM258 420v-66q0 -150 15.5 -195.5t70.5 -45.5q53 0 70.5 37t17.5 143q0 89 -15.5 126.5t-64.5 37.5q-61 0 -94 -37z" />
    <glyph glyph-name="seveninferior" unicode="&#x2087;" 
d="M84 885h520v-11q-188 -454 -233 -874h-213q64 380 245 760h-319v125z" />
    <glyph glyph-name="eightinferior" unicode="&#x2088;" 
d="M246 457q-67 64 -95 114t-28 113q0 103 67 161t175 58q110 0 171.5 -55.5t61.5 -140.5q0 -118 -133 -209q90 -74 124 -132t34 -128q0 -118 -75 -184t-200 -66q-120 0 -195 58.5t-75 160.5q0 140 168 250zM315 387q-71 -58 -71 -160q0 -58 20 -84t70 -26q38 0 60 19.5
t22 74.5q0 51 -22.5 87t-78.5 89zM397 557q36 33 47 61.5t11 63.5q0 47 -13.5 67.5t-54.5 20.5q-39 0 -56.5 -19t-17.5 -63q0 -30 16 -57.5t68 -73.5z" />
    <glyph glyph-name="nineinferior" unicode="&#x2089;" 
d="M432 358h-6q-62 -36 -137 -36q-68 0 -115 25.5t-70 69t-32 86.5t-9 93q0 138 68.5 222.5t216.5 84.5q138 0 207.5 -84t69.5 -268q0 -318 -197 -551h-221q59 24 139 148t86 210zM430 463v67q0 151 -16 197.5t-72 46.5q-52 0 -69 -37t-17 -147q0 -92 15.5 -125t68.5 -33
q63 0 90 31z" />
    <glyph glyph-name="uni20A4" unicode="&#x20a4;" horiz-adv-x="1431" 
d="M104 1006h129q-55 110 -55 223q0 199 154 305t422 106q269 0 410 -110.5t141 -325.5v-49h-261v49q0 113 -62.5 164t-193.5 51q-126 0 -179.5 -47.5t-53.5 -154.5q0 -100 43 -211h719v-156h-653l55 -129h598v-156h-549q18 -73 18 -151q0 -111 -34 -195q82 -29 141 -29
q96 0 146.5 55.5t50.5 160.5v49h262v-60q0 -200 -101.5 -314t-285.5 -114q-97 0 -167.5 31t-133.5 86q-117 -117 -312 -117q-123 0 -199.5 50t-76.5 147q0 93 72.5 139.5t195.5 46.5q82 0 166 -24q6 38 6 82q0 83 -22 157h-390v156h318q-25 41 -88 129h-230v156zM336 135
q96 0 145 96q-61 33 -127 33q-106 0 -106 -65q0 -29 23.5 -46.5t64.5 -17.5z" />
    <glyph glyph-name="Euro" unicode="&#x20ac;" horiz-adv-x="1462" 
d="M88 1026h162q19 134 62 241.5t114.5 193.5t181 133.5t250.5 47.5q146 0 260 -48t183 -147.5t69 -236.5v-55h-262v55q0 104 -58.5 156.5t-148.5 52.5q-124 0 -180.5 -99t-69.5 -294h713l-55 -154h-664v-129h602l-55 -155h-543q13 -203 67.5 -300.5t180.5 -97.5
q94 0 152.5 52t58.5 157v56h262v-56q0 -138 -69 -237.5t-184 -147t-263 -47.5q-116 0 -210.5 31.5t-162 86t-116.5 134t-77.5 170.5t-41.5 199h-215l57 155h148v129h-205z" />
    <glyph glyph-name="uni20B9" unicode="&#x20b9;" horiz-adv-x="983" 
d="M66 1253h335q-20 201 -139 201h-237l41 156h890l-41 -156h-286q65 -84 84 -201h161l-40 -153h-113q-6 -132 -74 -232.5t-198 -138.5l186 -448q28 -74 98 -74q24 0 43 8v-215q-79 -33 -164 -33q-173 0 -231 150l-289 743v21h170q64 0 100.5 49t43.5 170h-381z" />
    <glyph glyph-name="uni20BA" unicode="&#x20ba;" horiz-adv-x="1566" 
d="M45 979l244 70v346h-166v215h776v-215h-174v-217l358 104l68 -168l-426 -125v-137l358 106l68 -170l-426 -124v-449h80q201 0 318.5 60.5t117.5 187.5v117h258v-119q0 -215 -198.5 -338t-518.5 -123h-659v215h166v324l-176 -52l-68 166l244 72v137l-176 -51z" />
    <glyph glyph-name="uni20BD" unicode="&#x20bd;" horiz-adv-x="1585" 
d="M135 1610h660q192 0 335.5 -36t231.5 -102.5t131 -156t43 -201.5q0 -107 -40 -188.5t-125.5 -143t-230.5 -93.5t-345 -32h-64v-176h518v-153h-518v-113h221v-215h-817v215h160v113h-258v153h258v176h-258v154h258v584h-160v215zM731 1395v-584h86q132 0 196 62t64 219
q0 160 -65.5 231.5t-194.5 71.5h-86z" />
    <glyph glyph-name="trademark" unicode="&#x2122;" horiz-adv-x="1812" 
d="M92 1610h664v-256h-135v114h-99v-548h88v-142h-372v142h86v548h-97v-114h-135v256zM874 1610h279l145 -416h7l145 416h270v-142h-61v-548h61v-142h-264v142h45v352h-6l-190 -494h-13l-192 494h-4v-352h45v-142h-267v142h62v548h-62v142z" />
    <glyph glyph-name="onethird" unicode="&#x2153;" horiz-adv-x="1699" 
d="M1376 1610h207l-1298 -1610h-209zM297 1610h158v-885h-213v651h-103v117h47q47 0 77.5 30.5t33.5 86.5zM1110 635v31q0 116 64 176.5t182 60.5q128 0 187 -67t59 -174q0 -140 -109 -195q131 -51 131 -213q0 -117 -69 -194.5t-201 -77.5q-115 0 -182.5 61t-67.5 176v31
h131v-31q0 -58 21 -82t67 -24q57 0 80.5 34.5t23.5 116.5q0 75 -21 103t-75 28h-114v135h114q57 0 76.5 23.5t19.5 93.5q0 72 -20 98.5t-76 26.5q-53 0 -73.5 -22.5t-20.5 -83.5v-31h-127z" />
    <glyph glyph-name="twothirds" unicode="&#x2154;" horiz-adv-x="1699" 
d="M1391 1610h206l-1298 -1610h-209zM76 1360v31q0 116 64.5 176.5t183.5 60.5q129 0 190 -68t61 -176q0 -82 -36 -137t-133 -143q-124 -114 -148.5 -146t-24.5 -86v-10h347v-137h-521v119q0 104 39.5 173.5t153.5 172.5q98 87 120.5 118.5t22.5 77.5q0 56 -19 83.5
t-73 27.5q-51 0 -75.5 -27t-24.5 -88v-22h-127zM1124 635v31q0 116 64 176.5t182 60.5q128 0 187 -67t59 -174q0 -140 -109 -195q131 -51 131 -213q0 -117 -69 -194.5t-201 -77.5q-115 0 -182.5 61t-67.5 176v31h131v-31q0 -58 21 -82t67 -24q57 0 81 34.5t24 116.5
q0 75 -21 103t-75 28h-115v135h115q57 0 76.5 23.5t19.5 93.5q0 72 -20 98.5t-76 26.5q-53 0 -74 -22.5t-21 -83.5v-31h-127z" />
    <glyph glyph-name="uni2155" unicode="&#x2155;" horiz-adv-x="1699" 
d="M1380 1610h207l-1298 -1610h-209zM301 1610h158v-885h-213v651h-103v117h47q47 0 77.5 30.5t33.5 86.5zM1167 885h432v-125h-276l-27 -189q46 17 82 17q115 0 177.5 -89t62.5 -223t-67.5 -214t-200.5 -80q-115 0 -183.5 61.5t-68.5 175.5v31h127v-31q0 -115 96 -115
q50 0 75 36.5t25 133.5q0 101 -31 155t-108 54q-80 0 -164 -39l-10 13z" />
    <glyph glyph-name="uni2156" unicode="&#x2156;" horiz-adv-x="1699" 
d="M1397 1610h207l-1299 -1610h-209zM82 1360v31q0 116 64.5 176.5t183.5 60.5q129 0 190.5 -68t61.5 -176q0 -82 -36.5 -137t-133.5 -143q-123 -113 -147.5 -145.5t-24.5 -86.5v-10h346v-137h-520v119q0 105 39 174.5t153 171.5q98 87 120.5 118.5t22.5 77.5q0 56 -19 83.5
t-73 27.5q-51 0 -75.5 -27t-24.5 -88v-22h-127zM1184 885h432v-125h-277l-26 -189q46 17 82 17q115 0 177 -89t62 -223t-67.5 -214t-200.5 -80q-115 0 -183.5 61.5t-68.5 175.5v31h127v-31q0 -115 96 -115q50 0 75.5 36.5t25.5 133.5q0 100 -31.5 154.5t-108.5 54.5
q-78 0 -163 -39l-11 13z" />
    <glyph glyph-name="uni2157" unicode="&#x2157;" horiz-adv-x="1699" 
d="M1391 1610h206l-1298 -1610h-209zM1178 885h432v-125h-277l-26 -189q46 17 82 17q115 0 177 -89t62 -223t-67.5 -214t-200.5 -80q-115 0 -183.5 61.5t-68.5 175.5v31h127v-31q0 -115 96 -115q50 0 75.5 36.5t25.5 133.5q0 100 -31.5 154.5t-108.5 54.5q-80 0 -164 -39
l-10 13zM76 1360v31q0 116 64 176.5t182 60.5q128 0 186.5 -67.5t58.5 -174.5q0 -139 -108 -194q131 -51 131 -213q0 -117 -69.5 -194.5t-201.5 -77.5q-115 0 -182 61t-67 176v31h131v-31q0 -58 21 -82t67 -24q57 0 80.5 34.5t23.5 116.5q0 75 -21 103t-75 28h-115v135h115
q57 0 76.5 23.5t19.5 93.5q0 72 -20 98.5t-76 26.5q-53 0 -73.5 -22.5t-20.5 -83.5v-31h-127z" />
    <glyph glyph-name="uni2158" unicode="&#x2158;" horiz-adv-x="1699" 
d="M1425 1610h207l-1298 -1610h-209zM1212 885h433v-125h-277l-27 -189q46 17 82 17q115 0 177.5 -89t62.5 -223t-67.5 -214t-200.5 -80q-115 0 -183.5 61.5t-68.5 175.5v31h127v-31q0 -115 96 -115q50 0 75 36.5t25 133.5q0 101 -31 155t-108 54q-79 0 -164 -39l-10 13z
M573 1632h17v-588h100v-96h-100v-223h-197v223h-358v10zM389 1231l-158 -187h162v187h-4z" />
    <glyph glyph-name="uni2159" unicode="&#x2159;" horiz-adv-x="1699" 
d="M1370 1610h207l-1298 -1610h-209zM291 1610h158v-885h-213v651h-103v117h47q47 0 77.5 30.5t33.5 86.5zM1260 526h2q64 39 141 39q55 0 96.5 -18.5t65 -46t38.5 -66.5t20 -73.5t5 -73.5q0 -66 -16 -119.5t-49 -96t-90 -66t-134 -23.5q-67 0 -115 18.5t-78 51t-48 86
t-24.5 114.5t-6.5 145q0 258 66.5 382t224.5 124q114 0 177.5 -61t63.5 -176v-31h-116v31q0 59 -27.5 82.5t-81.5 23.5q-44 0 -65.5 -18.5t-32.5 -69t-16 -158.5zM1262 420v-66q0 -150 15.5 -195.5t70.5 -45.5q53 0 70.5 37t17.5 143q0 89 -15.5 126.5t-64.5 37.5
q-61 0 -94 -37z" />
    <glyph glyph-name="uni215A" unicode="&#x215a;" horiz-adv-x="1699" 
d="M1386 1610h207l-1298 -1610h-209zM1276 526h2q64 39 141 39q55 0 96.5 -18.5t65.5 -46t39 -66.5t20 -74t5 -73q0 -66 -16 -119.5t-49 -96t-90 -66t-134 -23.5q-67 0 -115 18.5t-78.5 51t-48.5 86t-24.5 114.5t-6.5 145q0 258 66.5 382t224.5 124q114 0 178 -61t64 -176
v-31h-117v31q0 59 -27 82.5t-81 23.5q-44 0 -65.5 -18.5t-33 -69.5t-16.5 -158zM1278 420v-66q0 -150 15.5 -195.5t70.5 -45.5q53 0 70.5 37t17.5 143q0 89 -15.5 126.5t-64.5 37.5q-61 0 -94 -37zM125 1610h432v-125h-276l-27 -189q46 17 82 17q115 0 177 -89t62 -223
t-67.5 -214t-200.5 -80q-115 0 -183.5 61.5t-68.5 175.5v31h127v-31q0 -115 97 -115q50 0 75 36.5t25 133.5q0 101 -31 155t-108 54q-80 0 -164 -39l-10 13z" />
    <glyph glyph-name="oneeighth" unicode="&#x215b;" horiz-adv-x="1699" 
d="M1378 1610h207l-1298 -1610h-209zM299 1610h158v-885h-213v651h-103v117h47q47 0 77.5 30.5t33.5 86.5zM1257 457q-66 63 -94 113.5t-28 113.5q0 103 66.5 161t174.5 58q110 0 172 -55.5t62 -140.5q0 -118 -133 -209q90 -74 123.5 -132t33.5 -128q0 -118 -74.5 -184
t-199.5 -66q-120 0 -195 58.5t-75 160.5q0 141 167 250zM1327 387q-72 -58 -72 -160q0 -58 20.5 -84t70.5 -26q38 0 59.5 19.5t21.5 74.5q0 52 -22.5 87.5t-77.5 88.5zM1409 557q36 33 46.5 61t10.5 64q0 48 -13.5 68t-53.5 20q-39 0 -56.5 -19t-17.5 -63q0 -30 16 -57.5
t68 -73.5z" />
    <glyph glyph-name="threeeighths" unicode="&#x215c;" horiz-adv-x="1699" 
d="M1386 1610h207l-1298 -1610h-209zM1268 457q-67 64 -95 114t-28 113q0 103 66.5 161t174.5 58q110 0 172 -55.5t62 -140.5q0 -118 -133 -209q90 -74 124 -132t34 -128q0 -118 -75 -184t-200 -66q-120 0 -195 58.5t-75 160.5q0 140 168 250zM1337 387q-71 -58 -71 -160
q0 -58 20 -84t70 -26q38 0 60 19.5t22 74.5q0 51 -22.5 87t-78.5 89zM1419 557q36 33 47 61.5t11 63.5q0 47 -13.5 67.5t-54.5 20.5q-39 0 -56.5 -19t-17.5 -63q0 -30 16 -57.5t68 -73.5zM72 1360v31q0 116 63.5 176.5t181.5 60.5q128 0 187 -67.5t59 -174.5
q0 -139 -108 -194q131 -51 131 -213q0 -117 -69.5 -194.5t-201.5 -77.5q-115 0 -182 61t-67 176v31h131v-31q0 -58 21 -82t67 -24q57 0 80.5 34.5t23.5 116.5q0 75 -21 103t-75 28h-115v135h115q57 0 76.5 23.5t19.5 93.5q0 72 -20 98.5t-76 26.5q-53 0 -73.5 -22.5
t-20.5 -83.5v-31h-127z" />
    <glyph glyph-name="fiveeighths" unicode="&#x215d;" horiz-adv-x="1699" 
d="M1393 1610h206l-1298 -1610h-209zM131 1610h432v-125h-276l-27 -189q46 17 82 17q115 0 177.5 -89.5t62.5 -222.5t-68 -213.5t-201 -80.5q-115 0 -183.5 61.5t-68.5 175.5v31h127v-31q0 -115 97 -115q50 0 75 36.5t25 133.5q0 101 -31 155t-108 54q-80 0 -164 -39l-10 13
zM1272 457q-67 64 -95 114t-28 113q0 103 67 161t175 58q110 0 171.5 -55.5t61.5 -140.5q0 -118 -133 -209q90 -74 124 -132t34 -128q0 -118 -75 -184t-200 -66q-120 0 -195 58.5t-75 160.5q0 140 168 250zM1341 387q-71 -58 -71 -160q0 -58 20 -84t70 -26q38 0 60 19.5
t22 74.5q0 51 -22.5 87t-78.5 89zM1423 557q36 33 47 61.5t11 63.5q0 47 -13.5 67.5t-54.5 20.5q-39 0 -56.5 -19t-17.5 -63q0 -30 16 -57.5t68 -73.5z" />
    <glyph glyph-name="seveneighths" unicode="&#x215e;" horiz-adv-x="1699" 
d="M1393 1610h206l-1298 -1610h-209zM1272 457q-67 64 -95 114t-28 113q0 103 67 161t175 58q110 0 171.5 -55.5t61.5 -140.5q0 -118 -133 -209q90 -74 124 -132t34 -128q0 -118 -75 -184t-200 -66q-120 0 -195 58.5t-75 160.5q0 140 168 250zM1341 387q-71 -58 -71 -160
q0 -58 20 -84t70 -26q38 0 60 19.5t22 74.5q0 51 -22.5 87t-78.5 89zM1423 557q36 33 47 61.5t11 63.5q0 47 -13.5 67.5t-54.5 20.5q-39 0 -56.5 -19t-17.5 -63q0 -30 16 -57.5t68 -73.5zM61 1610h521v-11q-189 -457 -234 -874h-213q64 377 246 760h-320v125z" />
    <glyph glyph-name="partialdiff" unicode="&#x2202;" horiz-adv-x="1566" 
d="M639 1411v219q102 12 176 12q149 0 264 -39.5t190 -108t123.5 -168t68.5 -210.5t20 -244q0 -147 -24 -276t-80.5 -246t-141.5 -201t-214.5 -133t-291.5 -49q-133 0 -242 33t-182.5 88.5t-123.5 131t-72.5 159t-22.5 174.5q0 127 45.5 230t125 169.5t184 102t225.5 35.5
q157 0 291.5 -58t213.5 -162h9q-3 98 -15 174.5t-41.5 149.5t-76 121t-122.5 77t-177 29q-63 0 -109 -10zM1157 629q-60 117 -185 199.5t-255 82.5q-126 0 -200.5 -90t-74.5 -291q0 -102 20 -174.5t59 -114.5t88.5 -60.5t115.5 -18.5q182 0 296.5 129.5t135.5 337.5z" />
    <glyph glyph-name="product" unicode="&#x220f;" horiz-adv-x="1548" 
d="M92 1610h1364v-2003h-301v1788h-762v-1788h-301v2003z" />
    <glyph glyph-name="summation" unicode="&#x2211;" horiz-adv-x="1665" 
d="M33 1784h1597v-215h-1206l762 -813v-121l-762 -813h1206v-215h-1597v155l866 934l-866 934v154z" />
    <glyph glyph-name="minus" unicode="&#x2212;" horiz-adv-x="1294" 
d="M92 913h1110v-215h-1110v215z" />
    <glyph glyph-name="radical" unicode="&#x221a;" horiz-adv-x="1443" 
d="M86 913h369l209 -604h8l534 1549h238l-670 -1858h-217l-258 698h-213v215z" />
    <glyph glyph-name="infinity" unicode="&#x221e;" horiz-adv-x="2437" 
d="M1219 915q164 178 351 263.5t361 85.5q92 0 165 -24.5t130 -76.5t88 -142.5t31 -213.5t-31 -213.5t-88 -142.5t-130 -76.5t-165 -24.5q-174 0 -361 85t-351 261q-165 -176 -353 -261t-360 -85q-73 0 -134.5 15t-114 49.5t-88.5 86.5t-56.5 129.5t-20.5 176.5t20.5 176.5
t56.5 129.5t88.5 86.5t114 49.5t134.5 15q172 0 360 -86t353 -263zM1139 807q-129 110 -281 169.5t-283 59.5q-113 0 -176 -52.5t-63 -176.5t62.5 -176.5t174.5 -52.5q129 0 281 58.5t285 170.5zM1298 807q133 -112 285 -170.5t279 -58.5q112 0 174.5 52.5t62.5 176.5
t-63 176.5t-176 52.5q-131 0 -282 -59.5t-280 -169.5z" />
    <glyph glyph-name="integral" unicode="&#x222b;" horiz-adv-x="702" 
d="M43 -346v174q48 -10 90 -10q55 0 83 37t28 131l2 1530q0 161 74 228.5t221 67.5q54 0 116 -10v-172q-52 10 -90 10q-55 0 -82.5 -37t-27.5 -137v-1515q0 -68 -13 -120t-44 -95.5t-89 -66.5t-141 -23q-57 0 -127 8z" />
    <glyph glyph-name="approxequal" unicode="&#x2248;" horiz-adv-x="1294" 
d="M92 950v101q0 121 63.5 180t200.5 59q96 0 170 -30.5t181 -106.5q80 -57 119.5 -77.5t80.5 -20.5q47 0 65.5 23.5t18.5 68.5v72h211v-103q0 -120 -62.5 -179.5t-197.5 -59.5q-100 0 -171 30.5t-181 104.5q-82 57 -122 77.5t-83 20.5q-82 0 -82 -88v-72h-211zM92 418v100
q0 121 63.5 180.5t200.5 59.5q96 0 170 -30.5t181 -106.5q81 -58 120.5 -78.5t79.5 -20.5q47 0 65.5 23.5t18.5 68.5v72h211v-102q0 -120 -63 -180t-197 -60q-100 0 -171 30.5t-181 104.5q-84 58 -123.5 78.5t-81.5 20.5q-82 0 -82 -89v-71h-211z" />
    <glyph glyph-name="notequal" unicode="&#x2260;" horiz-adv-x="1294" 
d="M92 692h385l127 230h-512v215h631l264 473h215l-264 -473h264v-215h-383l-127 -230h510v-215h-631l-264 -477h-215l264 477h-264v215z" />
    <glyph glyph-name="lessequal" unicode="&#x2264;" horiz-adv-x="1294" 
d="M92 1016l1110 399v-235l-799 -269v-8l799 -266v-234l-1110 398v215zM92 215h1110v-215h-1110v215z" />
    <glyph glyph-name="greaterequal" unicode="&#x2265;" horiz-adv-x="1294" 
d="M92 215h1110v-215h-1110v215zM92 1180v235l1110 -399v-215l-1110 -398v234l799 266v8z" />
    <glyph glyph-name="lozenge" unicode="&#x25ca;" horiz-adv-x="1292" 
d="M535 1610h217l448 -805l-448 -805h-217l-447 805zM637 1360l-307 -555l307 -555h8l313 555l-313 555h-8z" />
    <glyph glyph-name="CR" horiz-adv-x="741" 
 />
    <glyph glyph-name="zero.tab" horiz-adv-x="1433" 
d="M717 1645q177 0 296 -47t193 -151t105.5 -259t31.5 -383q0 -227 -31.5 -381.5t-105.5 -258.5t-193 -151t-296 -47q-141 0 -245 31t-178 93t-118.5 163.5t-65 235.5t-20.5 315q0 228 32 383t106 259t193 151t296 47zM717 1434q-50 0 -84 -10t-60 -39.5t-41 -71.5
t-24.5 -117t-12.5 -165t-3 -226q0 -135 3 -224.5t12.5 -164.5t24.5 -117t41 -71.5t60 -39.5t84 -10t83.5 10t59.5 39.5t41 71t24 117t12 164.5t3 225q0 137 -3 226t-12 164.5t-24 117.5t-41 71.5t-59.5 39.5t-83.5 10z" />
    <glyph glyph-name="one.tab" horiz-adv-x="1433" 
d="M639 1610h319v-1405h275v-205h-1032v205h303v993h-303v197h143q127 0 205 56.5t90 158.5z" />
    <glyph glyph-name="two.tab" horiz-adv-x="1433" 
d="M141 1155v55q0 211 150.5 321.5t431.5 110.5q157 0 274.5 -35t186.5 -97t102 -140t33 -172q0 -52 -10 -95t-36.5 -87t-61 -83t-96.5 -90.5t-129.5 -100.5t-172.5 -121q-211 -145 -237 -165q-90 -68 -113 -123q-14 -35 -14 -81v-16h577v217h301v-453h-1227v215
q0 125 42.5 220.5t139 189t277.5 219.5q211 146 263 191q85 73 102 141q6 25 6 55q0 92 -59.5 140t-192.5 48q-272 0 -272 -209v-55h-265z" />
    <glyph glyph-name="three.tab" horiz-adv-x="1433" 
d="M133 1155v55q0 211 147 321.5t420 110.5q125 0 224 -23.5t163.5 -63.5t107.5 -96.5t61 -119t18 -133.5q0 -259 -254 -356q307 -96 307 -389q0 -102 -38.5 -190t-113 -156.5t-197 -108t-278.5 -39.5q-268 0 -427.5 111.5t-159.5 320.5v56h280v-56q0 -209 240 -209
q138 0 204 70t66 217q0 137 -57.5 193.5t-186.5 56.5h-258v229h258q131 0 186.5 48.5t55.5 175.5q0 128 -57 183.5t-193 55.5q-130 0 -194 -50t-64 -159v-55h-260z" />
    <glyph glyph-name="four.tab" horiz-adv-x="1433" 
d="M1118 1651h29v-1078h272v-161h-272v-207h145v-205h-755v205h206v207h-772v20zM735 948l-325 -366v-9h333v375h-8z" />
    <glyph glyph-name="five.tab" horiz-adv-x="1433" 
d="M268 1610h1014v-461h-303v246h-383l-64 -357q83 29 222 29q143 0 253.5 -45t178 -123t101.5 -177t34 -214q0 -120 -37.5 -217t-113 -170.5t-197 -113.5t-281.5 -40q-177 0 -308.5 48t-206.5 146.5t-75 237.5v56h267v-56q0 -106 69.5 -157.5t190.5 -51.5q131 0 200.5 70
t69.5 240q0 379 -352 379q-86 0 -197 -20.5t-190 -49.5l-25 22z" />
    <glyph glyph-name="six.tab" horiz-adv-x="1433" 
d="M498 950h8q163 72 350 72q103 0 185.5 -22t137.5 -61t93.5 -87t59 -107t29.5 -113.5t9 -113.5q0 -119 -35.5 -215.5t-111 -173.5t-205 -119.5t-305.5 -42.5q-151 0 -260.5 33.5t-178.5 93.5t-109.5 157t-55.5 208t-15 264q0 232 34.5 398.5t111.5 285.5t205.5 177
t312.5 58q260 0 406.5 -111.5t146.5 -320.5v-55h-262v55q0 209 -256 209q-99 0 -156 -38t-92 -140.5t-47 -290.5zM504 770v-125q0 -182 20 -278.5t68 -137.5t139 -41q124 0 178 75t54 259q0 168 -49 242t-169 74q-66 0 -133.5 -19.5t-107.5 -48.5z" />
    <glyph glyph-name="seven.tab" horiz-adv-x="1433" 
d="M106 1610h1276v-21q-238 -413 -390.5 -803.5t-207.5 -785.5h-469q168 709 631 1395h-532v-246h-308v461z" />
    <glyph glyph-name="eight.tab" horiz-adv-x="1433" 
d="M80 379q0 142 105 257.5t296 201.5q-169 129 -235 215.5t-66 191.5q0 177 153 287t412 110q252 0 401.5 -101.5t149.5 -258.5q0 -112 -80.5 -205t-238.5 -178q210 -140 292.5 -239t82.5 -232q0 -211 -177.5 -329.5t-469.5 -118.5q-179 0 -318.5 44.5t-223 136.5
t-83.5 218zM938 387q0 60 -37.5 114t-83 90t-167.5 123q-10 7 -15 11q-113 -68 -172.5 -142t-59.5 -173q0 -109 73.5 -161t201.5 -52q121 0 190.5 46.5t69.5 143.5zM559 1260q0 -62 53 -110.5t215 -152.5q100 60 142.5 121t42.5 129q0 166 -217 166q-109 0 -172.5 -39.5
t-63.5 -113.5z" />
    <glyph glyph-name="nine.tab" horiz-adv-x="1433" 
d="M942 659h-10q-162 -73 -361 -73q-123 0 -217 33t-148 82.5t-87.5 119t-44.5 132.5t-11 132q0 120 35.5 218t110.5 175.5t203.5 120.5t302.5 43q108 0 196.5 -16.5t171.5 -61t139.5 -115.5t90 -185.5t33.5 -266.5q0 -143 -29.5 -277.5t-74.5 -237t-108.5 -198.5
t-120.5 -160.5t-122 -123.5h-475q62 21 150.5 97.5t168.5 172.5t140 204t67 185zM936 840v125q0 138 -10.5 223t-38 138.5t-70.5 74t-112 20.5q-127 0 -181.5 -75.5t-54.5 -262.5q0 -167 48 -239t173 -72q68 0 138.5 19t107.5 49z" />
    </font>
</defs>
</svg>
